<?xml version="1.0" encoding="UTF-8" standalone="no"?>
<!-- Created with Inkscape (http://www.inkscape.org/) -->

<svg
   xmlns:dc="http://purl.org/dc/elements/1.1/"
   xmlns:cc="http://creativecommons.org/ns#"
   xmlns:rdf="http://www.w3.org/1999/02/22-rdf-syntax-ns#"
   xmlns:svg="http://www.w3.org/2000/svg"
   xmlns="http://www.w3.org/2000/svg"
   xmlns:sodipodi="http://sodipodi.sourceforge.net/DTD/sodipodi-0.dtd"
   xmlns:inkscape="http://www.inkscape.org/namespaces/inkscape"
   width="210mm"
   height="297mm"
   viewBox="0 0 210 297"
   version="1.1"
   id="svg1604"
   inkscape:version="0.92.4 (5da689c313, 2019-01-14)"
   sodipodi:docname="ratings_very_low.svg">
  <defs
     id="defs1598" />
  <sodipodi:namedview
     id="base"
     pagecolor="#ffffff"
     bordercolor="#666666"
     borderopacity="1.0"
     inkscape:pageopacity="0.0"
     inkscape:pageshadow="2"
     inkscape:zoom="0.35"
     inkscape:cx="-224.28571"
     inkscape:cy="560"
     inkscape:document-units="mm"
     inkscape:current-layer="layer1"
     showgrid="false"
     inkscape:window-width="2560"
     inkscape:window-height="1377"
     inkscape:window-x="-8"
     inkscape:window-y="1072"
     inkscape:window-maximized="1" />
  <metadata
     id="metadata1601">
    <rdf:RDF>
      <cc:Work
         rdf:about="">
        <dc:format>image/svg+xml</dc:format>
        <dc:type
           rdf:resource="http://purl.org/dc/dcmitype/StillImage" />
        <dc:title></dc:title>
      </cc:Work>
    </rdf:RDF>
  </metadata>
  <g
     inkscape:label="Ebene 1"
     inkscape:groupmode="layer"
     id="layer1">
    <path
       inkscape:connector-curvature="0"
       style="opacity:1;fill:#ca4310;stroke:none;stroke-width:0.26458332"
       d="m 82.405294,81.301671 c 13.45555,2.127414 24.212716,8.47902 31.714606,19.791379 6.12299,9.23306 8.37802,19.4476 6.82973,30.49019 -1.56189,11.13952 -6.71864,20.20968 -15.18293,27.55961 -6.668206,5.79034 -14.431696,8.89307 -23.059906,10.19371 -8.61439,1.29853 -16.76196,-0.33279 -24.54287,-3.93187 -16.35248,-7.56393 -26.73412,-24.82704 -25.22653,-43.34854 0.9422,-11.57539 5.70112,-21.30024 14.19475,-29.226412 4.85832,-4.533728 10.54599,-7.555804 16.79038,-9.70267 5.9973,-2.061914 12.11878,-2.476003 18.48277,-1.825397 m -45.18104,29.183239 c -0.0312,0.10636 -0.0624,0.21272 -0.21026,0.4718 -0.52921,1.9742 -1.05843,3.94839 -1.64529,6.14215 -0.10314,0.73797 -0.20628,1.47594 -0.44605,2.38373 -0.11805,1.39504 -0.28373,2.78799 -0.34511,4.18553 -0.17592,4.00491 0.16174,7.97481 1.23591,11.83854 0.45706,1.64401 1.49725,3.14398 1.83587,4.79874 0.55841,2.72882 1.85598,5.06277 3.30565,7.33689 0.70293,1.10272 1.69821,2.01494 2.50988,3.05348 1.11731,1.42959 2.15162,2.92469 3.28469,4.34117 1.29568,1.61972 3.2248,2.50726 4.67994,3.99543 1.25534,1.28384 2.91207,2.20539 4.47086,3.15685 5.45031,3.32677 11.43636,5.08304 17.76151,5.50945 5.97103,0.40253 11.88032,-0.0919 17.56458,-2.217 3.47492,-1.29911 6.78224,-2.87854 9.852396,-5.00142 3.23452,-2.23653 6.07436,-4.88452 8.61992,-7.83903 1.10827,-1.28633 1.87388,-2.86505 2.82122,-4.29369 0.96862,-1.46074 2.16652,-2.80686 2.90743,-4.37197 0.99579,-2.10356 1.80928,-4.32644 2.40898,-6.57595 0.71758,-2.69169 1.40323,-5.44611 1.59741,-8.20889 0.22374,-3.18348 -0.10444,-6.40575 -0.28151,-9.80743 -0.29385,-1.44259 -0.58771,-2.88517 -0.91573,-4.53893 -0.34293,-1.16524 -0.68586,-2.33048 -1.08101,-3.68824 -0.17504,-0.43558 -0.33032,-0.88037 -0.52862,-1.30508 -0.76625,-1.64108 -1.54623,-3.27574 -2.44234,-5.05292 -0.81519,-1.35269 -1.47547,-2.83533 -2.47816,-4.03078 -2.02545,-2.414829 -4.11013,-4.807382 -6.39452,-6.972658 C 97.414224,86.30877 87.784094,83.084727 77.076824,82.896923 c -5.68612,-0.09972 -11.1937,1.090308 -16.43743,3.321235 -10.3318,4.395647 -17.77124,11.764817 -22.56709,22.077672 -0.1924,0.57357 -0.3848,1.14715 -0.70765,1.77492 -0.0285,0.0857 -0.057,0.17129 -0.1404,0.41416 z"
       id="path819" />
    <path
       inkscape:connector-curvature="0"
       style="opacity:1;fill:#fd4c02;stroke:none;stroke-width:0.26458332"
       d="m 119.24086,119.57955 c 0.0885,3.20542 0.41667,6.42769 0.19293,9.61117 -0.19418,2.76278 -0.87983,5.5172 -1.59741,8.20889 -0.5997,2.24951 -1.41319,4.47239 -2.40898,6.57595 -0.74091,1.56511 -1.93881,2.91123 -2.90743,4.37197 -0.94734,1.42864 -1.71295,3.00736 -2.82122,4.29369 -2.54556,2.95451 -5.3854,5.6025 -8.61992,7.83903 -3.070156,2.12288 -6.377476,3.70231 -9.852396,5.00142 -5.68426,2.12508 -11.59355,2.61953 -17.56458,2.217 -6.32515,-0.42641 -12.3112,-2.18268 -17.76151,-5.50945 -1.55879,-0.95146 -3.21552,-1.87301 -4.47086,-3.15685 -1.45514,-1.48817 -3.38426,-2.37571 -4.67994,-3.99543 -1.13307,-1.41648 -2.16738,-2.91158 -3.28469,-4.34117 -0.81167,-1.03854 -1.80695,-1.95076 -2.50988,-3.05348 -1.44967,-2.27412 -2.74724,-4.60807 -3.30565,-7.33689 -0.33862,-1.65476 -1.37881,-3.15473 -1.83587,-4.79874 -1.07417,-3.86373 -1.41183,-7.83363 -1.23591,-11.83854 0.0614,-1.39754 0.22706,-2.79049 0.50908,-4.25968 1.50861,0.16981 2.07344,-0.92218 2.60993,-1.72728 1.68306,-2.52574 3.12325,-5.21517 4.83828,-7.71731 2.27257,-3.31552 5.02637,-6.22101 7.87857,-9.06903 4.12714,-4.121073 9.10993,-6.866609 14.35949,-9.010179 3.14215,-1.283046 6.69764,-1.658516 10.10943,-2.149432 4.04959,-0.582692 8.05995,0.344995 11.88414,1.45611 3.25948,0.947029 6.44961,2.458556 9.3515,4.239874 5.373976,3.298815 9.705976,7.866037 13.614136,12.762897 2.44948,3.06918 4.45534,6.48905 6.81227,9.63775 0.60226,0.80457 1.78205,1.17683 2.69649,1.74771 m -33.244206,-7.38526 c -0.10752,0.18476 -0.21504,0.36952 -0.38604,0.71022 -0.0507,0.0241 -0.1014,0.0482 -0.32683,0.0755 -0.0812,0.0305 -0.20717,0.0375 -0.23729,0.0949 -1.78999,3.40842 -1.7464,6.83298 0.0893,10.18184 0.40712,0.7427 1.23299,1.25585 2.04146,1.91358 0.40368,0.25124 0.80737,0.50247 1.22637,0.76092 0,0 0.0102,-0.0136 0.099,0.0985 0.0182,0.044 0.0364,0.0881 0.0959,0.31232 1.62811,1.57305 3.67386,1.45252 5.70194,1.40831 3.76188,-0.082 7.564136,-2.99228 8.597766,-6.57997 1.17415,-4.07536 0.0638,-7.65079 -2.904686,-10.43477 -2.41343,-2.26346 -5.55404,-3.03266 -8.81218,-2.03958 -1.48385,0.45227 -2.80755,1.42995 -4.22985,2.25484 0,0 -0.0187,0.0874 -0.0131,0.13687 0,0 -0.0496,-0.005 -0.24067,0.0258 -0.17423,0.35822 -0.34845,0.71643 -0.53394,1.0662 0,0 0.0137,-0.003 -0.1671,0.0145 m -30.76828,13.37084 c 0.18345,0.11588 0.3669,0.23175 0.74513,0.36934 0.20256,0.15495 0.40513,0.30989 0.64916,0.61076 0.53015,0.29417 1.02789,0.72399 1.59589,0.85972 2.88502,0.68932 5.64779,0.68128 8.2921,-1.06901 4.29818,-2.84499 5.69735,-7.76029 3.61298,-12.18565 -0.55305,-1.17416 -1.39835,-2.21995 -2.18427,-3.26862 -0.19561,-0.26101 -0.68229,-0.30387 -1.21736,-0.52974 -0.48429,-0.28372 -0.96859,-0.56744 -1.48711,-1.03917 -0.096,-0.14179 -0.15992,-0.335 -0.29271,-0.41772 -2.36826,-1.47535 -8.12966,-0.41371 -9.47369,1.1054 -1.22428,1.38376 -2.47315,2.8633 -3.22827,4.52064 -1.67177,3.6692 -0.74629,7.10662 1.6635,10.18594 0.27852,0.35589 0.87308,0.46448 1.30636,0.69306 0,0 0.004,-0.0152 0.0183,0.16505 m 29.11842,13.72222 c -2.02271,-0.56589 -4.03358,-1.56203 -6.07033,-1.61815 -6.48068,-0.17854 -11.71243,2.62817 -15.89152,7.50337 -0.51473,0.60046 -0.80733,1.23159 -0.075,1.82705 0.6908,0.56169 1.24909,0.14261 1.67429,-0.43266 1.78741,-2.41826 4.23212,-3.93763 6.92351,-5.13459 2.54876,-1.13352 5.14191,-2.3474 7.99432,-1.65748 4.51565,1.09221 8.70447,2.87456 11.68909,6.69782 0.16155,0.20694 0.34382,0.506 0.55497,0.54314 0.42714,0.0751 1.03446,0.16727 1.28138,-0.0593 0.26062,-0.2392 0.30503,-0.86429 0.22472,-1.27826 -0.0673,-0.34711 -0.44552,-0.63674 -0.69401,-0.94541 -1.9866,-2.46785 -4.58721,-4.08147 -7.61144,-5.4455 z"
       id="path1063" />
    <path
       inkscape:connector-curvature="0"
       style="opacity:1;fill:#fdd4c0;stroke:none;stroke-width:0.26458332"
       d="m 38.226004,108.19348 c 4.64215,-10.210505 12.08159,-17.579675 22.41339,-21.975322 5.24373,-2.230927 10.75131,-3.420957 16.43743,-3.321235 10.70727,0.187804 20.3374,3.411847 28.235076,10.897759 2.28439,2.165276 4.36907,4.557829 6.39452,6.972658 1.00269,1.19545 1.66297,2.67809 2.50482,4.19118 0.0749,0.52338 0.16725,0.88761 0.15697,1.24892 -0.008,0.26864 -0.14829,0.5335 -0.22967,0.80005 -0.22797,-0.0778 -0.52413,-0.09 -0.67238,-0.24439 -0.73656,-0.76684 -1.40796,-1.5967 -2.15077,-2.35699 -1.66768,-1.70684 -3.3472,-3.40287 -5.05217,-5.072392 -3.521,-3.447812 -7.422316,-6.3427 -11.845466,-8.584472 -3.90219,-1.977764 -8.03752,-3.405244 -12.28286,-3.841346 -5.03505,-0.517231 -10.22011,-0.564282 -15.15467,1.046748 -3.00917,0.982427 -6.04473,2.056053 -8.81021,3.562701 -2.58323,1.407362 -4.87682,3.376184 -7.19628,5.225336 -1.17197,0.934326 -2.11918,2.150563 -3.21157,3.316815 -0.36796,0.30708 -0.69238,0.53667 -1.09914,0.79346 -0.46331,0.52407 -0.84428,1.02094 -1.26864,1.59525 -0.46677,0.56186 -0.89013,1.04627 -1.40261,1.53546 -0.37169,0.34816 -0.65427,0.69154 -0.98785,1.10388 -0.20198,0.29496 -0.35294,0.52095 -0.58689,0.75214 -0.19413,0.16996 -0.30526,0.33473 -0.43634,0.58812 -0.28179,0.47805 -0.54365,0.86749 -0.90012,1.26089 -1.26265,0.50668 -1.76088,1.56347 -2.26758,2.69118 -0.0116,0.11826 -0.0146,0.16571 -0.11616,0.2054 -0.23588,-0.30274 -0.45597,-0.58809 -0.49173,-0.89491 -0.0573,-0.49148 0.008,-0.9972 0.0209,-1.49689 z"
       id="path1065" />
    <path
       inkscape:connector-curvature="0"
       style="opacity:1;fill:#fc9d73;stroke:none;stroke-width:0.26458332"
       d="m 41.175194,107.68474 c 0.26185,-0.38944 0.52371,-0.77888 0.88691,-1.26407 0.21354,-0.25923 0.32572,-0.4227 0.43791,-0.58617 0.15097,-0.226 0.30193,-0.45199 0.59271,-0.75282 0.42259,-0.4175 0.70537,-0.76014 0.98816,-1.10278 0.42337,-0.48442 0.84673,-0.96883 1.40422,-1.53656 0.5095,-0.5944 0.88488,-1.10548 1.26027,-1.61657 0.32441,-0.2296 0.64883,-0.45919 1.10951,-0.7694 0.57595,-0.358051 1.05381,-0.590014 1.44839,-0.921219 1.34227,-1.126715 2.58965,-2.37639 3.99131,-3.420666 4.56103,-3.398054 9.42384,-6.150261 15.08352,-7.393128 4.40182,-0.966649 8.83768,-0.933939 13.2461,-0.665543 2.60506,0.158604 5.16686,1.137388 7.7297,1.816772 0.827,0.219228 1.58829,0.677455 2.39174,0.995831 3.48091,1.379323 6.74197,3.199302 9.591996,5.590362 2.6787,2.247337 5.17662,4.735051 7.57164,7.288141 2.09279,2.23088 3.99985,4.64831 5.84833,7.08981 0.71121,0.93937 1.30876,1.46495 2.45015,0.91191 0.34293,1.16524 0.68586,2.33048 1.00448,3.69609 -0.31643,0.28684 -0.76195,0.53809 -0.87536,0.43253 -0.64313,-0.59859 -1.263,-1.24076 -1.78701,-1.94527 -1.58832,-2.13548 -3.1158,-4.3161 -4.69094,-6.46153 -4.05416,-5.52201 -9.07141,-9.994905 -14.913636,-13.543396 -0.75778,-0.46027 -1.67445,-0.651883 -2.49796,-1.012593 -1.31003,-0.573809 -2.5552,-1.355891 -3.91524,-1.741455 -2.14268,-0.607425 -4.35163,-0.992235 -6.54488,-1.405816 -1.24278,-0.234371 -2.50708,-0.443296 -3.76708,-0.480341 -3.24546,-0.09541 -6.49519,-0.178712 -9.66489,0.796462 -1.75599,0.540237 -3.61969,0.789705 -5.30532,1.484464 -2.1576,0.889285 -4.27176,1.956847 -6.24602,3.199561 -2.46261,1.550098 -4.95019,3.152643 -7.08731,5.104476 -2.68466,2.451928 -5.18861,5.149478 -7.46565,7.985808 -2.04662,2.5493 -3.66368,5.44131 -5.50741,8.1569 -0.58165,0.85669 -1.17675,1.84606 -2.51719,1.26476 0.52922,-1.97419 1.05844,-3.94838 1.73096,-5.942 0.29147,0.30759 0.43964,0.63459 0.78238,1.39096 0.39427,-0.79954 0.62497,-1.26738 0.85567,-1.73521 0.003,-0.0474 0.006,-0.0949 0.10743,-0.21887 0.82308,-0.94748 1.54775,-1.81846 2.27241,-2.68943 z"
       id="path1067" />
    <path
       inkscape:connector-curvature="0"
       style="opacity:1;fill:#fc7032;stroke:none;stroke-width:0.26458332"
       d="m 35.397524,116.98907 c 1.36926,0.47152 1.96436,-0.51785 2.54601,-1.37454 1.84373,-2.71559 3.46079,-5.6076 5.50741,-8.1569 2.27704,-2.83633 4.78099,-5.53388 7.46565,-7.985808 2.13712,-1.951833 4.6247,-3.554378 7.08731,-5.104476 1.97426,-1.242714 4.08842,-2.310276 6.24602,-3.199561 1.68563,-0.694759 3.54933,-0.944227 5.30532,-1.484464 3.1697,-0.975174 6.41943,-0.89187 9.66489,-0.796462 1.26,0.03704 2.5243,0.24597 3.76708,0.480341 2.19325,0.413581 4.4022,0.798391 6.54488,1.405816 1.36004,0.385564 2.60521,1.167646 3.91524,1.741455 0.82351,0.36071 1.74018,0.552323 2.49796,1.012593 5.842226,3.548491 10.859476,8.021386 14.913636,13.543396 1.57514,2.14543 3.10262,4.32605 4.69094,6.46153 0.52401,0.70451 1.14388,1.34668 1.78701,1.94527 0.11341,0.10556 0.55893,-0.14569 0.89245,-0.32694 0.33524,1.3478 0.6291,2.79038 0.96724,4.3311 -0.87015,-0.47275 -2.04994,-0.84501 -2.6522,-1.64958 -2.35693,-3.1487 -4.36279,-6.56857 -6.81227,-9.63775 -3.90816,-4.89686 -8.24016,-9.464082 -13.614136,-12.762897 -2.90189,-1.781318 -6.09202,-3.292845 -9.3515,-4.239874 -3.82419,-1.111115 -7.83455,-2.038802 -11.88414,-1.45611 -3.41179,0.490916 -6.96728,0.866386 -10.10943,2.149432 -5.24956,2.14357 -10.23235,4.889106 -14.35949,9.010179 -2.8522,2.84802 -5.606,5.75351 -7.87857,9.06903 -1.71503,2.50214 -3.15522,5.19157 -4.83828,7.71731 -0.53649,0.8051 -1.10132,1.89709 -2.54162,1.64238 0.007,-0.74874 0.11063,-1.48671 0.24259,-2.33447 z"
       id="path1069" />
    <path
       inkscape:connector-curvature="0"
       style="opacity:1;fill:#fcc777;stroke:none;stroke-width:0.26458332"
       d="m 117.18165,111.25237 c -1.11528,0.64931 -1.71283,0.12373 -2.42404,-0.81564 -1.84848,-2.4415 -3.75554,-4.85893 -5.84833,-7.08981 -2.39502,-2.55309 -4.89294,-5.040804 -7.57164,-7.288141 -2.850026,-2.39106 -6.111086,-4.211039 -9.591996,-5.590362 -0.80345,-0.318376 -1.56474,-0.776603 -2.39174,-0.995831 -2.56284,-0.679384 -5.12464,-1.658168 -7.7297,-1.816772 -4.40842,-0.268396 -8.84428,-0.301106 -13.2461,0.665543 -5.65968,1.242867 -10.52249,3.995074 -15.08352,7.393128 -1.40166,1.044276 -2.64904,2.293951 -3.99131,3.420666 -0.39458,0.331205 -0.87244,0.563168 -1.40485,0.843748 0.95613,-1.085651 1.90334,-2.301888 3.07531,-3.236214 2.31946,-1.849152 4.61305,-3.817974 7.19628,-5.225336 2.76548,-1.506648 5.80104,-2.580274 8.81021,-3.562701 4.93456,-1.61103 10.11962,-1.563979 15.15467,-1.046748 4.24534,0.436102 8.38067,1.863582 12.28286,3.841346 4.42315,2.241772 8.324466,5.13666 11.845466,8.584472 1.70497,1.669522 3.38449,3.365552 5.05217,5.072392 0.74281,0.76029 1.41421,1.59015 2.15077,2.35699 0.14825,0.15434 0.44441,0.16661 0.67238,0.24439 0.0814,-0.26655 0.22203,-0.53141 0.22967,-0.80005 0.0103,-0.36131 -0.082,-0.72554 -0.0964,-1.17885 0.80884,1.54671 1.58881,3.18137 2.35506,4.82245 0.19831,0.42471 0.35358,0.8695 0.55474,1.40133 z"
       id="path1071" />
    <path
       inkscape:connector-curvature="0"
       style="opacity:1;fill:#fcc777;stroke:none;stroke-width:0.26458332"
       d="m 38.696834,110.58528 c -0.13218,0.47559 -0.36288,0.94343 -0.75715,1.74297 -0.34274,-0.75637 -0.49091,-1.08337 -0.72404,-1.46731 -0.0538,-0.16331 -0.0226,-0.26967 0.0879,-0.49379 0.14026,-0.18399 0.17771,-0.26161 0.19159,-0.35059 0.19241,-0.57358 0.38481,-1.14716 0.65406,-1.77191 0.0636,0.44852 -0.001,0.95424 0.0559,1.44572 0.0358,0.30682 0.25585,0.59217 0.49173,0.89491 z"
       id="path1073" />
    <path
       inkscape:connector-curvature="0"
       style="opacity:1;fill:#fc9d73;stroke:none;stroke-width:0.26458332"
       d="m 37.429874,110.04365 c 0.0513,0.0619 0.0139,0.13951 -0.0989,0.24489 -0.0233,-0.0465 0.005,-0.13214 0.0989,-0.24489 z"
       id="path1075" />
    <path
       inkscape:connector-curvature="0"
       style="opacity:1;fill:#fafaf8;stroke:none;stroke-width:0.26458332"
       d="m 56.581204,126.39928 c -0.20256,-0.15494 -0.40513,-0.30989 -0.73423,-0.5508 -0.2954,-0.21187 -0.46427,-0.33777 -0.63314,-0.46367 -10e-6,0 -0.004,0.0152 -0.0161,-0.0751 -0.8779,-1.34019 -2.00815,-2.48407 -2.55878,-3.85991 -1.57513,-3.93583 -0.54877,-7.51686 2.43557,-10.32943 2.92297,-2.75474 6.51014,-2.86609 10.19459,-1.6196 0.4843,0.28372 0.9686,0.56744 1.58618,0.95672 0.68357,0.83528 1.24874,1.55432 1.78158,2.29658 2.2925,3.19346 2.29047,7.63606 0.006,10.72626 -2.36984,3.20572 -6.53952,4.51727 -10.34183,3.27852 -0.55359,-0.18035 -1.14564,-0.24264 -1.71989,-0.35954 m 7.73413,-8.56653 c -1.14645,0.45073 -2.11299,0.17618 -2.72717,-0.87178 -0.74173,-1.2656 -0.10591,-2.24577 0.89908,-3.07968 -2.16254,-0.64922 -4.1532,0.10429 -5.24077,1.94946 -1.03044,1.74824 -0.65648,4.07457 0.91281,5.6784 1.19385,1.22012 3.63255,1.44373 5.283,0.48441 1.69129,-0.98307 2.51771,-3.06003 1.98456,-4.95186 -0.30368,0.23362 -0.61372,0.47214 -1.11151,0.79105 z"
       id="path1251" />
    <path
       inkscape:connector-curvature="0"
       style="opacity:1;fill:#fafaf8;stroke:none;stroke-width:0.26458332"
       d="m 85.458524,112.97674 c 0.0507,-0.0241 0.10139,-0.0482 0.25883,-0.18242 0.22452,-0.27942 0.34229,-0.44865 0.46007,-0.61787 0,0 -0.0137,0.003 0.0418,-0.0575 0.26016,-0.38577 0.46488,-0.71078 0.66959,-1.03578 0,0 0.0496,0.005 0.12503,-0.0358 0.22094,-0.0948 0.36642,-0.14933 0.59574,-0.2353 4.35735,-3.15598 9.63107,-2.59437 12.792466,1.32186 2.57185,3.18591 2.93393,7.36031 0.9272,10.68962 -1.992376,3.30546 -5.890456,4.9671 -9.899506,4.1668 -0.9738,-0.1944 -1.91581,-0.54808 -2.87245,-0.82852 -0.0182,-0.044 -0.0364,-0.0881 -0.0896,-0.21116 -0.0349,-0.079 -0.0898,-0.0899 -0.0898,-0.0899 0,0 0.0104,0.0632 0.0104,0.0632 -0.40368,-0.25125 -0.80737,-0.50248 -1.30689,-0.86959 -0.25272,-0.36742 -0.38262,-0.64147 -0.5706,-0.86713 -2.34173,-2.81105 -2.87699,-5.94168 -1.68423,-9.38475 0.21081,-0.60854 0.4213,-1.21721 0.63194,-1.82582 m 6.53798,9.42852 c 3.69109,0.69881 6.25066,-1.45053 5.77052,-4.90453 -1.16665,0.67287 -2.32927,0.88564 -3.35608,-0.19713 -0.83315,-0.87858 -0.73299,-1.81968 0.27991,-3.4432 -2.42432,-0.6744 -4.63885,0.42178 -5.50663,2.72574 -0.82756,2.19718 0.29049,4.64424 2.81228,5.81912 z"
       id="path1253" />
    <path
       inkscape:connector-curvature="0"
       style="opacity:1;fill:#080808;stroke:none;stroke-width:0.26458332"
       d="m 84.432174,139.33884 c 2.93885,1.31251 5.53946,2.92613 7.52606,5.39398 0.2485,0.30867 0.62668,0.5983 0.69401,0.94541 0.0803,0.41398 0.0359,1.03906 -0.22472,1.27826 -0.24691,0.2266 -0.85423,0.13448 -1.28137,0.0593 -0.21116,-0.0371 -0.39343,-0.3362 -0.55498,-0.54313 -2.98461,-3.82327 -7.17343,-5.60562 -11.68908,-6.69783 -2.85242,-0.68992 -5.44557,0.52396 -7.99433,1.65749 -2.69138,1.19695 -5.13609,2.71632 -6.9235,5.13458 -0.4252,0.57528 -0.98349,0.99435 -1.6743,0.43266 -0.73235,-0.59545 -0.43974,-1.22659 0.075,-1.82705 4.17909,-4.8752 9.41084,-7.68191 15.89152,-7.50337 2.03676,0.0561 4.04762,1.05226 6.1557,1.66967 z"
       id="path1255" />
    <path
       inkscape:connector-curvature="0"
       style="opacity:1;fill:#7a6038;stroke:none;stroke-width:0.26458332"
       d="m 88.577894,126.25194 c 0.93601,0.19035 1.87802,0.54403 2.85182,0.73843 4.00905,0.8003 7.90714,-0.86134 9.899506,-4.1668 2.00674,-3.3293 1.64465,-7.5037 -0.92719,-10.68962 -3.161396,-3.91623 -8.435116,-4.47784 -12.884176,-1.31785 -0.29715,0.0401 -0.41876,0.0447 -0.54038,0.0493 1.39634,-0.73937 2.72005,-1.71705 4.2039,-2.16932 3.25814,-0.99308 6.39875,-0.22388 8.81218,2.03958 2.968466,2.78397 4.078836,6.3594 2.904686,10.43477 -1.03363,3.58769 -4.835896,6.49796 -8.597766,6.57997 -2.02808,0.0442 -4.07383,0.16473 -5.72258,-1.49841 z"
       id="path1257" />
    <path
       inkscape:connector-curvature="0"
       style="opacity:1;fill:#7a6038;stroke:none;stroke-width:0.26458332"
       d="m 56.601944,126.47225 c 0.55351,0.0439 1.14556,0.10622 1.69915,0.28657 3.80231,1.23875 7.97199,-0.0728 10.34183,-3.27851 2.28443,-3.0902 2.28646,-7.53281 -0.006,-10.72627 -0.53284,-0.74225 -1.09801,-1.46129 -1.6905,-2.25521 0.3107,0.0789 0.79737,0.12181 0.99298,0.38281 0.78592,1.04867 1.63123,2.09446 2.18427,3.26863 2.08438,4.42536 0.68521,9.34065 -3.61297,12.18565 -2.64431,1.75028 -5.40709,1.75832 -8.2921,1.06901 -0.56801,-0.13574 -1.06574,-0.56556 -1.61663,-0.93268 z"
       id="path1259" />
    <path
       inkscape:connector-curvature="0"
       style="opacity:1;fill:#ca4310;stroke:none;stroke-width:0.26458332"
       d="m 65.252014,109.40673 c -3.66734,-1.15247 -7.25451,-1.04112 -10.17748,1.71362 -2.98434,2.81257 -4.0107,6.39359 -2.43557,10.32942 0.55063,1.37585 1.68088,2.51972 2.56616,3.85724 -0.42831,-0.13554 -1.02287,-0.24413 -1.30139,-0.60001 -2.40979,-3.07933 -3.33527,-6.51675 -1.6635,-10.18595 0.75512,-1.65734 2.00399,-3.13688 3.22827,-4.52064 1.34402,-1.51911 7.10543,-2.58075 9.47369,-1.10539 0.13279,0.0827 0.19672,0.27592 0.30982,0.51171 z"
       id="path1261" />
    <path
       inkscape:connector-curvature="0"
       style="opacity:1;fill:#ca4310;stroke:none;stroke-width:0.26458332"
       d="m 85.371154,112.97837 c -0.12327,0.60698 -0.33376,1.21565 -0.54457,1.82419 -1.19276,3.44307 -0.6575,6.5737 1.68423,9.38475 0.18798,0.22566 0.31788,0.49971 0.48289,0.8477 -0.62492,-0.52243 -1.45079,-1.03558 -1.85791,-1.77828 -1.8357,-3.34886 -1.87929,-6.77342 -0.0893,-10.18184 0.0301,-0.0573 0.15606,-0.0644 0.32466,-0.0965 z"
       id="path1263" />
    <path
       inkscape:connector-curvature="0"
       style="opacity:1;fill:#ca4310;stroke:none;stroke-width:0.26458332"
       d="m 86.793234,111.09835 c -0.10916,0.30983 -0.31387,0.63484 -0.5684,1.02482 0.12441,-0.29322 0.29863,-0.65143 0.5684,-1.02482 z"
       id="path1265" />
    <path
       inkscape:connector-curvature="0"
       style="opacity:1;fill:#ca4310;stroke:none;stroke-width:0.26458332"
       d="m 86.087034,112.18537 c -0.0274,0.1603 -0.14516,0.32953 -0.33794,0.53098 0.0325,-0.15254 0.14004,-0.3373 0.33794,-0.53098 z"
       id="path1267" />
    <path
       inkscape:connector-curvature="0"
       style="opacity:1;fill:#ca4310;stroke:none;stroke-width:0.26458332"
       d="m 55.221104,125.47495 c 0.1616,0.0358 0.33047,0.16166 0.52848,0.36268 -0.15431,-0.0408 -0.33775,-0.15665 -0.52848,-0.36268 z"
       id="path1269" />
    <path
       inkscape:connector-curvature="0"
       style="opacity:1;fill:#ca4310;stroke:none;stroke-width:0.26458332"
       d="m 86.964494,110.90811 c 0.1346,-0.0473 0.25621,-0.0519 0.46953,-0.0605 -0.0538,0.0505 -0.19926,0.10496 -0.42297,0.17506 -0.0782,0.0156 -0.0595,-0.0718 -0.0466,-0.11453 z"
       id="path1271" />
    <path
       inkscape:connector-curvature="0"
       style="opacity:1;fill:#7a6038;stroke:none;stroke-width:0.26458332"
       d="m 88.395964,125.92762 c -0.008,-0.004 -0.0181,-0.0668 -0.0181,-0.0668 0,0 0.0549,0.0108 0.0454,0.0339 -0.01,0.023 -0.0197,0.0366 -0.0273,0.033 z"
       id="path1273" />
    <path
       inkscape:connector-curvature="0"
       style="opacity:1;fill:#fcc777;stroke:none;stroke-width:0.26458332"
       d="m 41.080574,107.6887 c -0.63004,0.86701 -1.35471,1.73799 -2.16916,2.61467 0.40828,-1.0512 0.90651,-2.10799 2.16916,-2.61467 z"
       id="path1275" />
    <path
       inkscape:connector-curvature="0"
       style="opacity:1;fill:#fcc777;stroke:none;stroke-width:0.26458332"
       d="m 46.663024,100.85296 c -0.29304,0.4839 -0.66842,0.99498 -1.13453,1.51193 0.29025,-0.49099 0.67122,-0.98786 1.13453,-1.51193 z"
       id="path1277" />
    <path
       inkscape:connector-curvature="0"
       style="opacity:1;fill:#fcc777;stroke:none;stroke-width:0.26458332"
       d="m 43.991774,103.98367 c -0.19368,0.33787 -0.47646,0.68051 -0.84804,1.02903 0.19377,-0.33749 0.47635,-0.68087 0.84804,-1.02903 z"
       id="path1279" />
    <path
       inkscape:connector-curvature="0"
       style="opacity:1;fill:#fcc777;stroke:none;stroke-width:0.26458332"
       d="m 42.417034,105.83969 c -0.0292,0.15828 -0.14139,0.32175 -0.33499,0.49236 0.0297,-0.15763 0.14086,-0.3224 0.33499,-0.49236 z"
       id="path1281" />
    <path
       inkscape:connector-curvature="0"
       style="opacity:1;fill:#080808;stroke:none;stroke-width:0.26458332"
       d="m 64.409204,117.79256 c 0.40391,-0.27871 0.71396,-0.51723 1.01764,-0.75085 0.53315,1.89182 -0.29327,3.96879 -1.98456,4.95185 -1.65045,0.95933 -4.08915,0.73571 -5.283,-0.48441 -1.56929,-1.60382 -1.94325,-3.93015 -0.91282,-5.6784 1.08757,-1.84516 3.07824,-2.59868 5.24078,-1.94946 -1.00499,0.83392 -1.64081,1.81409 -0.89908,3.07968 0.61418,1.04797 1.58072,1.32251 2.82104,0.83159 z"
       id="path1461" />
    <path
       inkscape:connector-curvature="0"
       style="opacity:1;fill:#080808;stroke:none;stroke-width:0.26458332"
       d="m 91.902014,122.36651 c -2.4273,-1.13613 -3.54535,-3.58319 -2.71779,-5.78037 0.86778,-2.30396 3.08231,-3.40014 5.50663,-2.72574 -1.0129,1.62351 -1.11306,2.56462 -0.27991,3.44319 1.02681,1.08278 2.18943,0.87001 3.35608,0.19714 0.48014,3.454 -2.07943,5.60334 -5.86501,4.86578 z"
       id="path1463" />
  </g>
</svg>
