<?xml version="1.0" encoding="UTF-8" standalone="no"?>
<!-- Created with Inkscape (http://www.inkscape.org/) -->

<svg
   width="88.637535mm"
   height="88.821083mm"
   viewBox="0 0 88.637535 88.821083"
   version="1.1"
   id="svg4438"
   inkscape:version="1.2.2 (1:1.2.2+202212051552+b0a8486541)"
   sodipodi:docname="ratings_very_high.svg"
   xmlns:inkscape="http://www.inkscape.org/namespaces/inkscape"
   xmlns:sodipodi="http://sodipodi.sourceforge.net/DTD/sodipodi-0.dtd"
   xmlns="http://www.w3.org/2000/svg"
   xmlns:svg="http://www.w3.org/2000/svg"
   xmlns:rdf="http://www.w3.org/1999/02/22-rdf-syntax-ns#"
   xmlns:cc="http://creativecommons.org/ns#"
   xmlns:dc="http://purl.org/dc/elements/1.1/">
  <defs
     id="defs4432" />
  <sodipodi:namedview
     id="base"
     pagecolor="#ffffff"
     bordercolor="#666666"
     borderopacity="1.0"
     inkscape:pageopacity="0.0"
     inkscape:pageshadow="2"
     inkscape:zoom="0.35"
     inkscape:cx="-34.285714"
     inkscape:cy="138.57143"
     inkscape:document-units="mm"
     inkscape:current-layer="layer1"
     showgrid="false"
     inkscape:window-width="958"
     inkscape:window-height="1054"
     inkscape:window-x="0"
     inkscape:window-y="0"
     inkscape:window-maximized="1"
     inkscape:showpageshadow="2"
     inkscape:pagecheckerboard="0"
     inkscape:deskcolor="#d1d1d1" />
  <metadata
     id="metadata4435">
    <rdf:RDF>
      <cc:Work
         rdf:about="">
        <dc:format>image/svg+xml</dc:format>
        <dc:type
           rdf:resource="http://purl.org/dc/dcmitype/StillImage" />
      </cc:Work>
    </rdf:RDF>
  </metadata>
  <g
     inkscape:label="Ebene 1"
     inkscape:groupmode="layer"
     id="layer1"
     transform="translate(-61.514566,-112.73827)">
    <path
       inkscape:connector-curvature="0"
       style="opacity:1;fill:#39930f;stroke:none;stroke-width:0.264583"
       d="m 136.07771,124.98338 c 5.37019,5.04299 9.26581,10.96364 11.60939,17.83422 3.21754,9.43303 3.29903,18.96035 0.16322,28.42365 -2.63533,7.95297 -7.3287,14.5109 -13.70963,19.98717 -5.60104,4.80691 -12.04171,7.75405 -19.12056,9.32143 -7.03075,1.55673 -14.0797,1.29153 -21.056415,-0.64703 -4.84333,-1.34576 -9.42385,-3.28437 -13.463509,-6.25719 -13.210407,-9.72155 -19.838193,-22.78482 -18.897758,-39.23683 0.797507,-13.95055 7.262971,-25.06487 18.533983,-33.21282 3.16947,-2.29126 6.856809,-3.9805 10.497847,-5.48226 8.691509,-3.58491 17.702582,-3.83063 26.670022,-1.27395 7.00429,1.99697 13.39977,5.32583 18.77341,10.54361 m -66.900744,10.78645 c 0,0 -0.0087,-0.0367 -0.166026,0.0523 -1.146281,2.52813 -2.292588,5.05627 -3.536288,7.76631 -0.281702,0.91996 -0.563351,1.83993 -0.984727,2.90238 -0.309086,2.16358 -0.618172,4.32715 -1.049469,6.66193 -0.01508,2.72314 -0.235585,5.46529 0.01429,8.16393 0.235082,2.54012 0.966046,5.03435 1.49561,7.75046 0.354145,0.97913 0.708263,1.95827 1.061588,2.95501 0,0 0.01587,0.008 0.0077,0.20779 1.054152,2.25943 1.969981,4.59692 3.191113,6.76216 2.579872,4.5744 6.117061,8.32589 10.212519,11.62084 4.752552,3.82363 10.066391,6.44469 15.959218,7.84773 4.495667,1.07036 9.048216,1.62488 13.715706,1.12749 3.687,-0.3929 7.28927,-1.0269 10.79521,-2.23411 5.0904,-1.75275 9.58136,-4.45735 13.67724,-7.97327 5.43788,-4.66784 9.39755,-10.31352 11.98843,-16.94152 1.57639,-4.03273 2.48433,-8.24457 2.71039,-12.56829 0.0976,-1.86709 -0.12014,-3.75068 -0.18587,-5.79179 -0.0106,-0.10953 -0.0212,-0.21906 -0.023,-0.56391 -0.14314,-1.07555 -0.28628,-2.1511 -0.43921,-3.44862 -0.16136,-0.79191 -0.32273,-1.58382 -0.52022,-2.5978 -0.71268,-2.23222 -1.42534,-4.46444 -2.19519,-6.88495 -1.16713,-2.18438 -2.28862,-4.39515 -3.52679,-6.5385 -0.42265,-0.73169 -1.18105,-1.2609 -1.71091,-1.94114 -0.92376,-1.18601 -1.78929,-2.41738 -2.73364,-3.75093 -0.0996,-0.0853 -0.19918,-0.17058 -0.34359,-0.41787 -0.32999,-0.29905 -0.66001,-0.59812 -1.04048,-1.03636 -0.19277,-0.15012 -0.38552,-0.30025 -0.65291,-0.58442 -0.18214,-0.15373 -0.36428,-0.30747 -0.65482,-0.62124 -0.58642,-0.5002 -1.17281,-1.00039 -1.81038,-1.59888 -0.0468,-0.0627 -0.10888,-0.10052 -0.29663,-0.25254 -0.26092,-0.14411 -0.55832,-0.24665 -0.77736,-0.43857 -3.23051,-2.83083 -7.01204,-4.71711 -11.01937,-6.08012 -6.41792,-2.18293 -12.92736,-3.39257 -19.8178,-2.31235 -7.469764,1.17105 -14.304031,3.67744 -20.329069,8.22219 -3.810979,2.87469 -7.176691,6.22465 -9.857184,10.43511 -0.39169,0.68929 -0.783405,1.37857 -1.157949,2.10154 z"
       id="path823" />
    <path
       inkscape:connector-curvature="0"
       style="opacity:1;fill:#55fe01;stroke:none;stroke-width:0.264583"
       d="m 148.0518,153.7506 c 0.0106,0.10953 0.0212,0.21906 0.0161,0.53905 -0.19249,2.30303 -0.18801,4.43113 -0.58931,6.47973 -0.58642,2.99371 -1.34244,5.96815 -2.24753,8.88208 -1.22653,3.9487 -3.27207,7.5183 -5.8878,10.70365 -1.84822,2.25079 -3.79235,4.46968 -5.96918,6.39059 -2.18289,1.92623 -4.61918,3.61 -7.10978,5.1288 -2.0398,1.2439 -4.23852,2.37843 -6.51798,3.04143 -3.17434,0.92333 -6.49328,1.34456 -9.74387,2.01196 -3.4009,0.69825 -6.83429,0.52655 -10.172353,-0.0986 -3.928984,-0.73581 -7.937924,-1.52856 -11.603012,-3.04426 -3.255751,-1.34641 -6.144234,-3.63471 -9.08476,-5.66661 -1.458648,-1.00797 -2.715551,-2.32824 -3.981239,-3.58998 -1.494975,-1.49027 -3.127083,-2.91783 -4.290112,-4.64794 -1.591998,-2.36806 -2.790402,-4.99979 -4.185894,-7.50271 -0.101282,-0.18162 -0.432911,-0.23483 -0.65741,-0.34775 0,0 -0.01587,-0.008 -0.0095,-0.12483 -0.258043,-1.10083 -0.522335,-2.08474 -0.800703,-3.17514 -1.020207,-5.27684 -2.360401,-10.42671 -1.009703,-15.71674 0.400949,-0.10496 0.891725,-0.0821 1.095057,-0.31273 0.907574,-1.0291 1.823244,-2.07216 2.566776,-3.21978 1.083786,-1.67272 2.041525,-3.42884 3.01244,-5.17201 0.330094,-0.59268 0.421058,-1.34296 0.822774,-1.86671 1.153134,-1.50335 2.34233,-2.99073 3.639926,-4.36897 2.245572,-2.38515 4.518078,-4.7535 6.912637,-6.98584 1.056666,-0.98506 2.410354,-1.67096 3.681068,-2.40254 2.065576,-1.18919 4.096465,-2.49088 6.28568,-3.3986 2.224617,-0.92243 4.589966,-1.5899 6.954573,-2.06705 2.475755,-0.49958 5.048275,-1.0038 7.533875,-0.83776 2.6274,0.17549 5.34861,0.25531 7.87416,1.42626 2.34252,1.0861 4.87294,1.77184 7.19847,2.88826 1.70368,0.81788 3.30306,1.93133 4.782,3.12058 2.27661,1.83066 4.43288,3.81425 6.59392,5.78374 0.9634,0.87801 1.91222,1.80546 2.69544,2.84074 1.59157,2.10383 3.07845,4.28763 4.58504,6.45476 1.34128,1.92938 2.6148,3.90694 3.99434,5.808 0.47318,0.65205 1.12927,1.52929 1.78578,1.60866 1.05397,0.12739 1.55159,0.53129 1.83023,1.43823 m -19.10202,-10.95278 c -0.0738,-0.0479 -0.14761,-0.0958 -0.34084,-0.19007 -0.0763,-0.0477 -0.12618,-0.11505 -0.19748,-0.33369 -0.0755,-0.0524 -0.15089,-0.10485 -0.20812,-0.15833 0,0 0,0.0182 -0.0825,-0.11081 -0.14163,-0.0483 -0.28329,-0.0967 -0.43646,-0.14003 0,0 -0.005,-0.0114 -0.0274,-0.20343 -0.7153,-1.27255 -2.04928,-1.40918 -3.23821,-1.51467 -1.73431,-0.15388 -3.54698,-0.65799 -5.21234,0.38262 0,0 0,-0.001 -0.15349,0.005 -0.12247,0.0763 -0.24497,0.15251 -0.5058,0.30502 -0.40947,0.14575 -0.86479,0.21986 -1.22134,0.44822 -3.86501,2.47537 -5.30368,6.21627 -4.64884,10.63452 0.0652,0.43962 0.46225,0.83005 0.75705,1.46227 0.0837,0.19692 0.16738,0.39384 0.14796,0.64256 0.33393,0.54039 0.66789,1.08078 1.148,1.78776 0.0545,0.0498 0.10911,0.0996 0.13441,0.15789 0,0 0.031,-0.006 0.15819,0.12377 0.0458,0.0397 0.0916,0.0793 0.10755,0.13899 0,0 0.0483,-0.002 0.15611,0.11839 0.0366,0.0396 0.0731,0.0792 0.0726,0.22274 0.0921,0.0504 0.18425,0.1007 0.42389,0.30633 0.0492,0.0517 0.0983,0.1035 0.12581,0.15609 0,0 0.0148,-0.004 0.17187,0.13121 0.0524,0.0451 0.1048,0.0901 0.10451,0.26953 0.67313,0.45996 1.31876,0.96812 2.02451,1.37086 2.09135,1.19335 6.22925,1.29054 8.54972,-0.28894 0.3378,-0.018 0.77314,0.0948 0.99886,-0.0735 3.49464,-2.60528 4.80017,-6.11325 4.11961,-10.37492 -0.25455,-1.59415 -0.23013,-3.37332 -2.23398,-4.18121 -0.0514,-0.0565 -0.0849,-0.12222 -0.12187,-0.35693 -0.0907,-0.12243 -0.18134,-0.24484 -0.25521,-0.36502 0,0 -1.1e-4,0.0169 -0.0546,-0.112 -0.0758,-0.0514 -0.15153,-0.10278 -0.21061,-0.1531 0,0 0,0.0168 -0.0516,-0.10739 m -33.617678,-1.05985 c -0.07445,-0.0449 -0.148907,-0.0898 -0.395525,-0.20175 -0.460825,-0.24932 -0.902679,-0.54561 -1.385465,-0.74049 -3.692551,-1.49035 -7.681701,-0.72727 -10.36492,1.9707 -3.230483,3.24823 -3.930306,7.33745 -2.128864,11.5265 0.770176,1.79096 2.079916,3.55247 4.402588,4.05071 0,0 0.08906,-0.003 0.132424,0.12267 0.09789,0.0899 0.195791,0.17972 0.373009,0.43553 0.173435,0.0478 0.346895,0.0956 0.594731,0.14303 0,0 0.06829,0.0296 0.132371,0.21795 1.169617,0.94938 2.45192,0.64856 3.859292,0.31474 0,0 0.125889,-0.005 0.125889,-0.005 0,0 0.125147,0.0146 0.283554,0.13531 0.616293,-0.19979 1.232561,-0.3996 1.963076,-0.63273 0.07766,-0.0189 0.156368,-0.0262 0.42873,-0.008 0.152083,-0.0929 0.304165,-0.18574 0.608912,-0.37195 0.392245,-0.2455 0.784543,-0.49099 1.336252,-0.71997 0.119168,-0.0896 0.238363,-0.1793 0.34499,-0.25291 0,0 -0.01667,-0.0119 0.179176,-0.004 0.367057,-0.2093 0.78994,-0.35813 1.092571,-0.6373 2.91883,-2.69255 3.306447,-6.08122 2.512324,-9.71726 -0.206957,-0.94782 -0.101124,-2.18441 -1.38221,-2.60167 0,0 0,0.008 -0.0391,-0.11773 -0.04739,-0.0796 -0.115147,-0.13362 -0.303107,-0.19729 0,0 -0.103108,-0.0237 -0.141499,-0.15739 -0.01376,-0.0911 -0.02738,-0.18216 -0.06189,-0.44932 -0.171397,-0.22296 -0.342821,-0.44591 -0.569383,-0.78568 -0.05207,-0.0731 -0.121153,-0.1224 -0.22352,-0.30363 -0.0925,-0.1158 -0.18497,-0.23161 -0.368671,-0.48669 -0.212857,-0.0558 -0.425767,-0.11151 -0.658177,-0.16686 0,0 -0.01111,-0.0161 -0.07509,-0.12277 -0.05757,-0.0639 -0.12827,-0.10535 -0.209867,-0.12258 0,0 0.0026,0.002 -0.0626,-0.11358 M 90.50325,166.1317 c 0.05363,0.48072 -0.068,1.10133 0.187245,1.4212 3.832384,4.80299 8.892223,7.67853 14.974275,7.72207 6.10013,0.0436 11.13092,-2.89417 15.0879,-7.56059 0.48768,-0.57511 0.66474,-1.21796 0.028,-1.74342 -0.65405,-0.53972 -1.25826,-0.19772 -1.68564,0.40089 -2.43866,3.41581 -6.11428,4.92886 -9.83133,6.33179 -1.91831,0.72404 -3.91266,0.96038 -5.95419,0.30152 -4.147922,-1.33864 -8.120059,-2.94019 -10.874372,-6.57489 -0.476858,-0.62934 -1.044469,-0.95585 -1.931934,-0.29857 z"
       id="path1097" />
    <path
       inkscape:connector-curvature="0"
       style="opacity:1;fill:#d5fdc1;stroke:none;stroke-width:0.264583"
       d="m 136.63572,128.09748 c 0.0996,0.0853 0.19917,0.17057 0.3112,0.42991 0.19674,0.94954 0.3811,1.72503 0.57679,2.54809 -1.99628,-0.0279 -1.63192,-1.68151 -2.05878,-2.5373 -0.68431,-0.0504 -1.35617,0.099 -1.74379,-0.16656 -1.07735,-0.73796 -2.04054,-1.64364 -3.03934,-2.49427 -0.2267,-0.19308 -0.37714,-0.49968 -0.62696,-0.63777 -1.56885,-0.86705 -3.29793,-1.51595 -4.7013,-2.59253 -1.81139,-1.38952 -3.92367,-2.09109 -5.88434,-3.12882 -0.2206,-0.11677 -0.50934,-0.10256 -0.76517,-0.15544 -1.06577,-0.22031 -2.13289,-0.43432 -3.19593,-0.66715 -1.35993,-0.29785 -2.71391,-0.85832 -4.07487,-0.87225 -4.0861,-0.0418 -8.22164,-0.22135 -12.24664,0.32488 -3.163729,0.42934 -6.216835,1.78661 -9.269677,2.8707 -1.432481,0.50867 -2.746375,1.34935 -4.118319,2.03094 -0.760916,0.37801 -1.618219,0.62459 -2.276714,1.13201 -1.094025,0.84308 -1.983316,1.9589 -3.099779,2.7645 -3.14325,2.26807 -5.741961,5.06894 -8.207745,8.01906 -0.78777,0.9425 -1.596019,1.86926 -2.429986,2.77074 -0.163936,0.17722 -0.489453,0.20499 -0.740463,0.30169 -0.0607,-0.2623 -0.192749,-0.53183 -0.167084,-0.7854 0.05181,-0.51107 0.189283,-1.01345 0.291412,-1.51942 0,0 0.0087,0.0367 0.09787,0.0221 0.971867,-0.4755 1.337204,-1.20656 1.224121,-2.18753 2.525184,-4.10983 5.890895,-7.45978 9.701874,-10.33447 6.025039,-4.54476 12.859306,-7.05114 20.32908,-8.22219 6.89043,-1.08022 13.39987,0.12942 19.81779,2.31235 4.00733,1.36301 7.78886,3.24929 11.01937,6.08012 0.21904,0.19192 0.51644,0.29446 0.79306,0.59508 -0.0925,0.37643 -0.20082,0.59634 -0.30911,0.81624 0.0981,0.0428 0.1961,0.0856 0.29416,0.12846 0.11565,-0.25013 0.23132,-0.50027 0.347,-0.75039 0.58645,0.50021 1.17285,1.0004 1.70318,1.61931 -0.32602,1.18591 0.50755,0.45976 0.78554,0.63658 0.19275,0.15012 0.3855,0.30025 0.5393,0.57248 0.34875,0.44016 0.7365,0.7582 1.12425,1.07625 z"
       id="path1099" />
    <path
       inkscape:connector-curvature="0"
       style="opacity:1;fill:#4eec06;stroke:none;stroke-width:0.264583"
       d="m 66.023503,172.13 c 0.228574,0.013 0.560203,0.0662 0.661485,0.24782 1.395492,2.50292 2.593896,5.13465 4.185894,7.50271 1.163028,1.73011 2.795137,3.15767 4.290112,4.64794 1.265687,1.26174 2.522591,2.58201 3.981239,3.58998 2.940526,2.0319 5.829008,4.3202 9.08476,5.66661 3.665087,1.5157 7.674027,2.30845 11.603011,3.04426 3.338066,0.62512 6.771456,0.79682 10.172356,0.0986 3.25059,-0.6674 6.56952,-1.08863 9.74386,-2.01196 2.27947,-0.66301 4.47818,-1.79753 6.51799,-3.04143 2.4906,-1.51881 4.92688,-3.20257 7.10977,-5.12881 2.17684,-1.92091 4.12097,-4.13979 5.96919,-6.39058 2.61572,-3.18535 4.66127,-6.75495 5.8878,-10.70366 0.90509,-2.91392 1.66111,-5.88836 2.24753,-8.88208 0.40129,-2.0486 0.39682,-4.1767 0.58491,-6.39721 0.0857,1.74814 0.30348,3.63173 0.20585,5.49882 -0.22606,4.32372 -1.134,8.53556 -2.71039,12.56829 -2.59088,6.628 -6.55056,12.27368 -11.98843,16.94152 -4.09588,3.51592 -8.58684,6.22052 -13.67724,7.97327 -3.50594,1.20721 -7.10822,1.84121 -10.79521,2.23411 -4.66749,0.49739 -9.220044,-0.0571 -13.715712,-1.12749 -5.892826,-1.40303 -11.206665,-4.02409 -15.959217,-7.84773 -4.095459,-3.29495 -7.632647,-7.04644 -10.212519,-11.62083 -1.221132,-2.16525 -2.13696,-4.50273 -3.187039,-6.86212 z"
       id="path1101" />
    <path
       inkscape:connector-curvature="0"
       style="opacity:1;fill:#a9fc7f;stroke:none;stroke-width:0.264583"
       d="m 144.96305,140.77219 c 0.71266,2.23223 1.42531,4.46445 2.05436,6.77459 -1.88746,-0.45306 -2.70804,-2.02816 -3.69866,-3.3924 -1.73638,-2.39136 -3.25231,-4.96173 -5.15343,-7.20943 -1.97791,-2.33844 -4.35154,-4.33729 -6.46199,-6.56983 -2.23301,-2.36217 -5.09495,-3.73208 -7.89546,-5.18494 -1.83579,-0.95235 -3.85387,-1.55432 -5.68497,-2.5142 -3.38048,-1.77207 -7.02085,-2.34709 -10.73902,-2.50648 -4.90823,-0.2104 -9.712215,0.40901 -14.300355,2.29683 -1.037484,0.42689 -2.150348,0.69877 -3.135841,1.2179 -1.841738,0.97014 -3.630401,2.04471 -5.413323,3.12184 -1.582816,0.95622 -3.193811,1.88695 -4.669525,2.99281 -1.259417,0.94378 -2.416492,2.05307 -3.492976,3.20661 -3.289803,3.52536 -6.339602,7.24309 -8.949875,11.31656 -0.62566,0.97634 -1.272884,2.16992 -2.79236,2.02631 0.281676,-0.91997 0.563325,-1.83994 0.980149,-2.82667 0.402299,0.10614 0.669449,0.27904 0.962687,0.46878 0.202512,-0.48529 0.276992,-0.90156 0.510884,-1.18724 2.161725,-2.63992 4.335039,-5.27077 6.5396,-7.87497 0.955331,-1.12858 1.945031,-2.23633 3.002253,-3.26834 1.430311,-1.39614 2.836307,-2.85334 4.442063,-4.02486 2.210515,-1.61283 4.550754,-3.06517 6.923617,-4.43324 2.19509,-1.26553 4.408197,-2.6387 6.793839,-3.3961 2.425462,-0.77006 5.061585,-1.0482 7.623363,-1.17212 2.92994,-0.14172 5.90984,-0.10363 8.81139,0.28224 2.4674,0.32813 4.87968,1.18276 7.26752,1.95533 1.47841,0.47831 2.91243,1.15198 4.28252,1.89301 1.96001,1.06011 3.91255,2.16231 5.73929,3.43215 1.71984,1.19563 3.39066,2.51316 4.87259,3.98843 2.60276,2.59098 5.03889,5.34895 7.55875,8.02385 0.59357,0.63007 1.23412,1.21701 1.86905,1.80661 0.4995,0.46386 1.02356,0.90129 1.50423,1.32199 0.0891,-0.0775 0.36936,-0.32124 0.64963,-0.56502 z"
       id="path1103" />
    <path
       inkscape:connector-curvature="0"
       style="opacity:1;fill:#87fe4b;stroke:none;stroke-width:0.264583"
       d="m 64.559749,146.41959 c 1.589352,0.0724 2.236576,-1.1212 2.862236,-2.09754 2.610273,-4.07347 5.660072,-7.7912 8.949875,-11.31656 1.076484,-1.15354 2.233559,-2.26283 3.492976,-3.20661 1.475714,-1.10586 3.086709,-2.03659 4.669525,-2.99281 1.782922,-1.07713 3.571585,-2.1517 5.413323,-3.12184 0.985493,-0.51913 2.098357,-0.79101 3.135841,-1.2179 4.58814,-1.88782 9.392125,-2.50723 14.300355,-2.29683 3.71817,0.15939 7.35854,0.73441 10.73902,2.50648 1.8311,0.95988 3.84918,1.56185 5.68497,2.5142 2.80051,1.45286 5.66245,2.82277 7.89546,5.18494 2.11045,2.23254 4.48408,4.23139 6.46199,6.56983 1.90112,2.2477 3.41705,4.81807 5.15343,7.20943 0.99062,1.36424 1.8112,2.93934 3.71673,3.50344 0.26305,0.82502 0.42442,1.61693 0.52343,2.56367 -0.66747,-0.36845 -1.37867,-0.80961 -1.8586,-1.42976 -1.72918,-2.23442 -3.30028,-4.59426 -5.08042,-6.78545 -2.49931,-3.07647 -5.08307,-6.08854 -7.73247,-9.0367 -1.01465,-1.12898 -2.31479,-1.99994 -3.47557,-2.99925 -2.25621,-1.94237 -4.611,-3.72335 -7.50152,-4.6366 -0.49424,-0.15616 -1.01505,-0.24103 -1.49233,-0.43556 -1.24478,-0.50736 -2.42887,-1.22201 -3.71446,-1.56027 -4.36086,-1.14746 -8.71945,-2.41761 -13.33092,-1.61514 -2.40753,0.41894 -4.832804,0.73452 -7.246148,1.1211 -3.535971,0.56643 -6.47102,2.54343 -9.544579,4.16464 -3.433737,1.81119 -6.309069,4.37502 -9.008454,7.13122 -1.268889,1.29555 -2.509018,2.6244 -3.685302,4.00374 -0.931307,1.09209 -1.811814,2.24067 -2.597838,3.44083 -1.676797,2.56006 -3.238103,5.196 -4.926118,7.74834 -0.843809,1.27585 -1.862138,2.43628 -2.801514,3.64891 0.309086,-2.16356 0.618172,-4.32713 0.997082,-6.56195 z"
       id="path1105" />
    <path
       inkscape:connector-curvature="0"
       style="opacity:1;fill:#65fd19;stroke:none;stroke-width:0.264583"
       d="m 63.501548,153.06715 c 1.000495,-1.29824 2.018824,-2.45867 2.862633,-3.73452 1.688015,-2.55234 3.249321,-5.18828 4.926118,-7.74834 0.786024,-1.20016 1.666531,-2.34874 2.597838,-3.44083 1.176284,-1.37934 2.416413,-2.70819 3.685302,-4.00374 2.699385,-2.7562 5.574717,-5.32003 9.008454,-7.13122 3.073559,-1.62121 6.008608,-3.59821 9.544579,-4.16464 2.413344,-0.38658 4.838618,-0.70216 7.246148,-1.1211 4.61147,-0.80247 8.97006,0.46768 13.33092,1.61514 1.28559,0.33826 2.46968,1.05291 3.71446,1.56027 0.47728,0.19453 0.99809,0.2794 1.49233,0.43556 2.89052,0.91325 5.24531,2.69423 7.50152,4.6366 1.16078,0.99931 2.46092,1.87027 3.47557,2.99925 2.6494,2.94816 5.23316,5.96023 7.73247,9.0367 1.78014,2.19119 3.35124,4.55103 5.08042,6.78545 0.47993,0.62015 1.19113,1.06131 1.86346,1.54075 0.21043,1.0317 0.35357,2.10725 0.49234,3.30046 -0.28294,-0.78928 -0.78057,-1.19318 -1.83454,-1.32057 -0.65651,-0.0794 -1.3126,-0.95661 -1.78578,-1.60866 -1.37954,-1.90106 -2.65306,-3.87862 -3.99433,-5.808 -1.50659,-2.16713 -2.99347,-4.35093 -4.58505,-6.45476 -0.78322,-1.03528 -1.73204,-1.96273 -2.69544,-2.84074 -2.16104,-1.96949 -4.31731,-3.95308 -6.59392,-5.78374 -1.47894,-1.18925 -3.07832,-2.3027 -4.782,-3.12058 -2.32553,-1.11642 -4.85595,-1.80216 -7.19847,-2.88826 -2.52555,-1.17095 -5.24676,-1.25077 -7.87415,-1.42626 -2.48561,-0.16604 -5.05812,0.33818 -7.533883,0.83776 -2.364608,0.47715 -4.729957,1.14462 -6.954573,2.06705 -2.189216,0.90772 -4.220105,2.20941 -6.28568,3.3986 -1.270715,0.73158 -2.624403,1.41748 -3.681069,2.40254 -2.394559,2.23234 -4.667065,4.60069 -6.912636,6.98584 -1.297596,1.37824 -2.486793,2.86562 -3.639926,4.36897 -0.401717,0.52375 -0.492681,1.27403 -0.822775,1.86671 -0.970915,1.74317 -1.928653,3.49929 -3.01244,5.17201 -0.743532,1.14762 -1.659202,2.19068 -2.566776,3.21978 -0.203332,0.23062 -0.694107,0.20777 -1.095057,0.31273 -1.350698,5.29003 -0.01058,10.4399 0.935037,15.72176 -0.110119,0.11777 -0.159623,0.12406 -0.209179,0.13035 -0.512789,-2.51443 -1.243753,-5.00866 -1.478836,-7.54878 -0.249766,-2.69864 -0.02929,-5.44078 0.04691,-8.24954 z"
       id="path1107" />
    <path
       inkscape:connector-curvature="0"
       style="opacity:1;fill:#ccfeb2;stroke:none;stroke-width:0.264583"
       d="m 144.93448,140.67806 c -0.2517,0.33791 -0.53197,0.58168 -0.62106,0.65915 -0.48067,-0.4207 -1.00473,-0.85813 -1.50423,-1.32199 -0.63493,-0.5896 -1.27548,-1.17654 -1.86905,-1.80661 -2.51986,-2.6749 -4.95599,-5.43287 -7.55875,-8.02385 -1.48193,-1.47527 -3.15275,-2.7928 -4.87259,-3.98843 -1.82674,-1.26984 -3.77928,-2.37204 -5.73929,-3.43215 -1.37009,-0.74103 -2.80411,-1.4147 -4.28252,-1.89301 -2.38784,-0.77257 -4.80012,-1.6272 -7.26752,-1.95533 -2.90155,-0.38587 -5.88145,-0.42396 -8.81139,-0.28224 -2.561778,0.12392 -5.197901,0.40206 -7.623363,1.17212 -2.385642,0.7574 -4.598749,2.13057 -6.793839,3.3961 -2.372863,1.36807 -4.713102,2.82041 -6.923617,4.43324 -1.605756,1.17152 -3.011752,2.62872 -4.442063,4.02486 -1.057222,1.03201 -2.046922,2.13976 -3.002253,3.26834 -2.204561,2.6042 -4.377875,5.23505 -6.5396,7.87497 -0.233892,0.28568 -0.308372,0.70195 -0.510884,1.18724 -0.293238,-0.18974 -0.560388,-0.36264 -0.914003,-0.55973 1.059894,-2.55233 2.206201,-5.08046 3.431143,-7.65312 -0.02355,0.46144 -0.160973,0.96382 -0.212778,1.47489 -0.02567,0.25357 0.106389,0.5231 0.167084,0.7854 0.25101,-0.0967 0.576527,-0.12447 0.740463,-0.30169 0.833967,-0.90148 1.642216,-1.82824 2.429986,-2.77074 2.465784,-2.95012 5.064495,-5.75099 8.207745,-8.01906 1.116463,-0.8056 2.005754,-1.92142 3.099779,-2.7645 0.658495,-0.50742 1.515798,-0.754 2.276714,-1.13201 1.371944,-0.68159 2.685838,-1.52227 4.118319,-2.03094 3.052842,-1.08409 6.105948,-2.44136 9.269677,-2.8707 4.025,-0.54623 8.16054,-0.36669 12.24664,-0.32488 1.36096,0.0139 2.71494,0.5744 4.07487,0.87225 1.06304,0.23283 2.13016,0.44684 3.19593,0.66715 0.25583,0.0529 0.54457,0.0387 0.76517,0.15544 1.96067,1.03773 4.07295,1.7393 5.88434,3.12882 1.40337,1.07658 3.13245,1.72548 4.7013,2.59253 0.24982,0.13809 0.40026,0.44469 0.62696,0.63777 0.9988,0.85063 1.96199,1.75631 3.03934,2.49427 0.38762,0.26553 1.05948,0.11613 1.74379,0.16656 0.42686,0.85579 0.0625,2.50937 2.05878,2.5373 -0.19569,-0.82306 -0.38005,-1.59855 -0.54959,-2.4875 0.90474,1.09891 1.77027,2.33029 2.69404,3.51629 0.52985,0.68024 1.28825,1.20945 1.7109,1.94114 1.23817,2.14335 2.35966,4.35413 3.55542,6.63265 z"
       id="path1109" />
    <path
       inkscape:connector-curvature="0"
       style="opacity:1;fill:#4eec06;stroke:none;stroke-width:0.264583"
       d="m 64.941887,168.96631 c 0.04114,-0.10713 0.09065,-0.11342 0.214841,-0.12471 0.338958,0.9789 0.60325,1.96281 0.861695,3.05483 -0.359912,-0.87101 -0.714031,-1.85015 -1.076536,-2.93012 z"
       id="path1111" />
    <path
       inkscape:connector-curvature="0"
       style="opacity:1;fill:#ccfeb2;stroke:none;stroke-width:0.264583"
       d="m 70.41257,133.61797 c 0.190739,0.93066 -0.174598,1.66172 -1.155038,2.12036 0.293978,-0.69147 0.685694,-1.38075 1.155038,-2.12036 z"
       id="path1113" />
    <path
       inkscape:connector-curvature="0"
       style="opacity:1;fill:#ccfeb2;stroke:none;stroke-width:0.264583"
       d="m 136.61333,128.01647 c -0.36536,-0.23704 -0.75311,-0.55509 -1.07664,-0.92566 0.39423,0.24655 0.72424,0.54561 1.07664,0.92566 z"
       id="path1115" />
    <path
       inkscape:connector-curvature="0"
       style="opacity:1;fill:#ccfeb2;stroke:none;stroke-width:0.264583"
       d="m 134.93481,126.38171 c -0.24063,-0.10978 -1.0742,0.61636 -0.69397,-0.48953 0.29242,0.11504 0.47456,0.26878 0.69397,0.48953 z"
       id="path1117" />
    <path
       inkscape:connector-curvature="0"
       style="opacity:1;fill:#ccfeb2;stroke:none;stroke-width:0.264583"
       d="m 132.45792,124.1437 c -0.0901,0.29928 -0.20582,0.54941 -0.32147,0.79954 -0.0981,-0.0428 -0.19611,-0.0856 -0.29416,-0.12845 0.10829,-0.21991 0.21656,-0.43982 0.36438,-0.74665 0.11679,-0.0741 0.17883,-0.0363 0.25125,0.0756 z"
       id="path1119" />
    <path
       inkscape:connector-curvature="0"
       style="opacity:1;fill:#fafaf8;stroke:none;stroke-width:0.264583"
       d="m 113.68502,153.97541 c -0.0837,-0.1969 -0.16735,-0.39382 -0.26424,-0.80369 -1.81126,-6.16072 1.62351,-11.58221 7.73681,-12.49935 2.14916,-0.32243 4.02212,0.5142 5.94275,1.2391 0.01,-0.006 0.0175,-0.0281 0.0103,0.0653 0.87988,0.9108 1.76679,1.7282 2.66568,2.53619 0.0119,-0.009 -0.0167,0.001 -0.0549,0.0833 0.0791,0.20298 0.19651,0.32379 0.32337,0.4389 0.01,-0.006 -0.008,0.008 -0.013,0.0977 0.0862,0.12077 0.17696,0.15214 0.27501,0.17368 0.007,-0.01 -0.0159,-0.002 -0.0617,0.0842 0.0745,0.20713 0.19492,0.32816 0.32658,0.44212 0.0114,-0.007 -0.0146,-5.3e-4 -0.0511,0.10259 1.27066,3.09778 0.87294,6.00643 -0.47297,8.87273 0.006,0.006 -0.009,-0.001 -0.0889,0.0268 -0.20288,0.27176 -0.32565,0.5156 -0.44215,0.76562 0.006,0.006 -0.01,-1.8e-4 -0.0969,0.0243 -0.29749,0.35862 -0.50818,0.69274 -0.70784,1.0318 0.0111,0.005 0.003,-0.0175 -0.0842,-0.064 -0.46598,0.25776 -0.84566,0.56199 -1.22221,0.86339 0.003,-0.003 -0.005,-0.007 -0.0908,0.0298 -2.69476,1.61103 -5.44399,2.07615 -8.35449,1.01539 -0.92932,-0.3387 -1.81628,-0.79383 -2.72264,-1.19568 -0.0524,-0.0451 -0.10485,-0.0902 -0.22722,-0.20225 -0.07,-0.067 -0.0802,-0.065 -0.0802,-0.065 -0.0492,-0.0518 -0.0984,-0.10353 -0.23524,-0.26166 -0.15815,-0.17221 -0.22863,-0.23802 -0.29912,-0.30382 -0.0366,-0.0396 -0.0731,-0.0792 -0.15856,-0.18596 -0.0489,-0.0671 -0.0774,-0.0713 -0.0774,-0.0713 -0.0458,-0.0397 -0.0916,-0.0793 -0.19317,-0.18611 -0.0558,-0.0671 -0.0732,-0.0652 -0.0732,-0.0652 -0.0546,-0.0498 -0.10917,-0.0996 -0.25395,-0.29459 -0.37841,-0.66159 -0.66654,-1.17799 -0.95467,-1.69439 m 9.93241,-4.40082 c -0.37201,-0.61042 -1.00455,-1.20401 -1.04537,-1.83583 -0.044,-0.68082 0.46627,-1.39745 0.73244,-2.09255 -2.34929,-0.47362 -4.1688,0.29062 -5.19639,2.21329 -0.98221,1.83762 -0.63775,3.69177 1.00283,5.39875 1.24457,1.29505 3.42005,1.59153 5.11918,0.69768 1.57533,-0.82873 2.51574,-2.78743 2.26444,-4.26732 -0.93726,0 -1.81343,0 -2.87713,-0.11402 z"
       id="path1337" />
    <path
       inkscape:connector-curvature="0"
       style="opacity:1;fill:#080808;stroke:none;stroke-width:0.264583"
       d="m 90.566597,166.06656 c 0.824018,-0.59247 1.391629,-0.26595 1.868488,0.36339 2.754312,3.63469 6.726449,5.23624 10.874375,6.57489 2.04153,0.65885 4.03587,0.42251 5.95418,-0.30152 3.71706,-1.40293 7.39267,-2.91599 9.83134,-6.3318 0.42738,-0.59861 1.03158,-0.94061 1.68563,-0.40088 0.6367,0.52545 0.45964,1.16831 -0.028,1.74342 -3.95697,4.66641 -8.98776,7.60422 -15.08789,7.56058 -6.082056,-0.0435 -11.141895,-2.91907 -14.974278,-7.72207 -0.255244,-0.31986 -0.133615,-0.94048 -0.123799,-1.48601 z"
       id="path1339" />
    <path
       inkscape:connector-curvature="0"
       style="opacity:1;fill:#39930f;stroke:none;stroke-width:0.264583"
       d="m 85.370842,158.34229 c -2.233586,-0.49693 -3.543327,-2.25843 -4.313502,-4.0494 -1.801442,-4.18905 -1.10162,-8.27827 2.128864,-11.5265 2.683219,-2.69796 6.672368,-3.46105 10.36492,-1.9707 0.482785,0.19488 0.924639,0.49117 1.506431,0.82892 0.184124,0.15003 0.256752,0.19691 0.338932,0.22907 0,0 -0.0026,-0.002 0.02744,0.0518 0.08734,0.11875 0.159173,0.15919 0.24466,0.17529 0,0 0.01111,0.0161 0.02487,0.11026 -0.01535,0.14989 -0.04442,0.20562 -0.171741,0.26302 -5.585857,-3.86302 -12.576837,-1.36482 -14.513349,4.90309 -0.995944,3.2237 -0.01667,8.11203 4.347925,10.71851 0.01138,0.14791 0.01296,0.20727 0.01455,0.26663 z"
       id="path1341" />
    <path
       inkscape:connector-curvature="0"
       style="opacity:1;fill:#39930f;stroke:none;stroke-width:0.264583"
       d="m 127.09045,141.91752 c -1.91074,-0.73095 -3.7837,-1.56758 -5.93286,-1.24515 -6.1133,0.91714 -9.54807,6.33863 -7.76269,12.38987 -0.25572,-0.30979 -0.65281,-0.70022 -0.71797,-1.13984 -0.65485,-4.41825 0.78383,-8.15915 4.64883,-10.63451 0.35655,-0.22837 0.81188,-0.30248 1.36671,-0.48656 0.26791,-0.11653 0.39047,-0.19474 0.51305,-0.27295 0,-1e-5 0,0.001 0.11351,-0.004 1.32556,-0.0928 2.55368,-0.34114 3.74756,-0.22808 1.45708,0.13797 3.0294,0.23108 4.02386,1.6209 z"
       id="path1343" />
    <path
       inkscape:connector-curvature="0"
       style="opacity:1;fill:#87fe4b;stroke:none;stroke-width:0.264583"
       d="m 129.74007,143.94409 c 1.9074,0.75606 1.88298,2.53523 2.13754,4.12938 0.68056,4.26167 -0.62497,7.76964 -4.11962,10.37492 -0.22571,0.16829 -0.66106,0.0555 -1.03925,-0.009 0.20052,-0.38486 0.44143,-0.68733 0.68238,-0.98978 0,0 0.007,0.004 0.0966,0.0477 0.4648,-0.25672 0.84061,-0.5574 1.2164,-0.85809 0,0 0.009,0.0225 0.0928,0.0155 0.28916,-0.35607 0.49448,-0.70519 0.69982,-1.05431 0,0 0.0164,0.006 0.10777,0.0315 0.20248,-0.25814 0.31353,-0.54151 0.4246,-0.82487 0,0 0.0143,0.007 0.10147,0.0399 0.54642,-1.03716 1.25396,-2.07237 1.41078,-3.18519 0.28136,-1.99725 0.52134,-4.09314 -0.99398,-5.82946 0,0 0.0259,-0.007 0.0463,-0.087 -0.0905,-0.20052 -0.20151,-0.32061 -0.3125,-0.44069 0,0 0.0233,-0.008 0.0276,-0.0887 -0.0911,-0.11132 -0.18661,-0.14191 -0.28218,-0.17251 0,0 0.0177,-0.014 0.05,-0.0954 -0.0874,-0.19894 -0.20712,-0.31642 -0.32687,-0.43391 0,0 0.0286,-0.0106 0.0474,-0.0956 -0.01,-0.21484 -0.0385,-0.34463 -0.0671,-0.47443 z"
       id="path1345" />
    <path
       inkscape:connector-curvature="0"
       style="opacity:1;fill:#7a6038;stroke:none;stroke-width:0.264583"
       d="m 127.31476,157.4859 c -0.15459,0.2662 -0.3955,0.56867 -0.68736,0.94701 -2.18874,1.66842 -6.32664,1.57124 -8.41798,0.37788 -0.70575,-0.40274 -1.35139,-0.91089 -1.99814,-1.43803 0.93271,0.33471 1.81968,0.78983 2.749,1.12854 2.91049,1.06075 5.65973,0.59563 8.35448,-1.0154 z"
       id="path1347" />
    <path
       inkscape:connector-curvature="0"
       style="opacity:1;fill:#87fe4b;stroke:none;stroke-width:0.264583"
       d="m 98.037928,144.75717 c 1.288177,0.42155 1.182343,1.65813 1.3893,2.60595 0.794122,3.63604 0.406506,7.02472 -2.512324,9.71727 -0.302631,0.27917 -0.725514,0.42799 -1.20023,0.56923 -0.125095,-0.15563 -0.118692,-0.24138 -0.02757,-0.40101 0.580602,-0.59899 1.100428,-1.12233 1.700583,-1.66941 0.176636,-0.19047 0.272917,-0.35723 0.376237,-0.5156 0.0071,0.008 -0.01482,0.008 0.07673,-0.0139 1.676718,-2.37276 1.93728,-4.95187 1.270424,-7.63022 -0.166264,-0.66786 -0.712841,-1.24104 -1.077675,-1.85941 0.0069,-0.002 0.0037,0.0122 0.03921,-0.0858 0.01217,-0.30441 -0.01138,-0.51077 -0.03469,-0.71712 z"
       id="path1349" />
    <path
       inkscape:connector-curvature="0"
       style="opacity:1;fill:#7a6038;stroke:none;stroke-width:0.264583"
       d="m 95.626304,157.32428 c -0.03032,0.084 -0.03672,0.16971 -0.0095,0.32156 0.0098,0.0643 0.02646,0.0762 -0.04506,0.0668 -0.191929,0.0757 -0.312499,0.16072 -0.433043,0.24574 -0.392245,0.2455 -0.784543,0.49099 -1.344719,0.77972 -0.323109,0.13392 -0.478314,0.22461 -0.633518,0.3153 -0.07982,-0.004 -0.158538,0.003 -0.400447,0.034 -0.761921,0.17473 -1.359588,0.33729 -1.957229,0.49984 0,0 -0.125148,-0.0146 -0.125148,-0.0146 0,0 -0.125888,0.005 -0.307419,-0.002 -1.368293,-0.17 -2.555055,-0.33309 -3.741844,-0.49617 0,0 -0.06829,-0.0296 -0.162824,-0.0965 -0.256223,-0.1253 -0.417857,-0.18371 -0.579517,-0.24212 -0.0979,-0.0899 -0.195792,-0.17971 -0.285221,-0.37603 0.0085,-0.10644 0.07432,-0.18805 0.173964,-0.17257 2.493063,1.02728 4.924504,1.19241 7.376477,0.26921 0.84709,-0.3189 1.651265,-0.75151 2.475045,-1.13217 z"
       id="path1351" />
    <path
       inkscape:connector-curvature="0"
       style="opacity:1;fill:#65fd19;stroke:none;stroke-width:0.264583"
       d="m 127.10034,141.91147 c -1.00435,-1.38377 -2.57667,-1.47688 -4.03375,-1.61485 -1.19388,-0.11306 -2.422,0.13525 -3.7478,0.22746 1.55297,-1.03528 3.36563,-0.53117 5.09995,-0.37729 1.18893,0.10549 2.52291,0.24212 3.15452,1.60074 -0.20762,0.10267 -0.33152,0.11925 -0.45545,0.13584 0,0 -0.007,0.022 -0.0175,0.0281 z"
       id="path1353" />
    <path
       inkscape:connector-curvature="0"
       style="opacity:1;fill:#39930f;stroke:none;stroke-width:0.264583"
       d="m 127.11072,141.97677 c 0.13102,-0.10999 0.25492,-0.12657 0.47381,-0.13323 0.095,0.01 0.0998,0.0214 0.1456,0.0839 0.18868,0.11053 0.33158,0.15854 0.47448,0.20655 0,-1e-5 0,-0.0182 0.007,0.0518 0.0881,0.12002 0.16801,0.17001 0.24791,0.21999 0.0233,0.087 0.0732,0.15428 0.23686,0.28597 0.16026,0.13272 0.23323,0.18147 0.30617,0.23023 0,0 0,-0.0168 0.019,0.0461 0.095,0.11494 0.17003,0.16708 0.24501,0.21922 0,1e-5 1e-4,-0.0169 0.007,0.0603 0.0945,0.20071 0.18208,0.32416 0.26961,0.44762 0.0156,0.0748 0.0491,0.14053 0.14867,0.22298 0.0768,0.15572 0.10546,0.28551 0.10332,0.50976 -0.91766,-0.72296 -1.80457,-1.54036 -2.68444,-2.45116 z"
       id="path1355" />
    <path
       inkscape:connector-curvature="0"
       style="opacity:1;fill:#87fe4b;stroke:none;stroke-width:0.264583"
       d="m 86.660421,159.16862 c 1.154747,0.0689 2.34151,0.23199 3.647811,0.41296 -1.16385,0.32976 -2.446153,0.63058 -3.647811,-0.41296 z"
       id="path1357" />
    <path
       inkscape:connector-curvature="0"
       style="opacity:1;fill:#7a6038;stroke:none;stroke-width:0.264583"
       d="m 113.63348,154.00132 c 0.33967,0.49049 0.6278,1.00689 0.9331,1.58518 -0.31676,-0.47849 -0.65071,-1.01888 -0.9331,-1.58518 z"
       id="path1359" />
    <path
       inkscape:connector-curvature="0"
       style="opacity:1;fill:#87fe4b;stroke:none;stroke-width:0.264583"
       d="m 90.88198,159.64759 c 0.518452,-0.22292 1.116119,-0.38547 1.820916,-0.54354 -0.509138,0.2043 -1.125405,0.40411 -1.820916,0.54354 z"
       id="path1361" />
    <path
       inkscape:connector-curvature="0"
       style="opacity:1;fill:#87fe4b;stroke:none;stroke-width:0.264583"
       d="m 96.985204,143.17085 c 0.171397,0.22296 0.34282,0.44591 0.428228,0.71956 -0.214895,0.0617 -0.343853,0.0727 -0.464265,0.0809 0.0085,-0.003 0.01799,0.0126 0.06019,-0.0831 0.02064,-0.30292 0,-0.51017 -0.02461,-0.71565 -0.0026,0.002 0,-0.002 0,-0.002 z"
       id="path1363" />
    <path
       inkscape:connector-curvature="0"
       style="opacity:1;fill:#39930f;stroke:none;stroke-width:0.264583"
       d="m 98.041473,144.75931 c 0.01984,0.20421 0.04329,0.41057 -0.03966,0.66951 -0.272071,-0.2375 -0.437806,-0.5276 -0.553852,-0.86549 0.08377,-0.0787 0.117739,-0.10966 0.151738,-0.14059 0,0 0.103109,0.0237 0.175393,0.10388 0.138377,0.13449 0.204523,0.18883 0.270642,0.24315 0,1e-5 0,-0.008 -0.0042,-0.0104 z"
       id="path1365" />
    <path
       inkscape:connector-curvature="0"
       style="opacity:1;fill:#39930f;stroke:none;stroke-width:0.264583"
       d="m 96.940621,143.97418 c 0.128958,-0.011 0.257916,-0.022 0.483209,0.004 0.110093,0.12843 0.123772,0.21951 0.156686,0.37744 -0.01482,0.0978 -0.04879,0.12872 -0.200766,0.16297 -0.225001,-0.17936 -0.332052,-0.36202 -0.439129,-0.54468 z"
       id="path1367" />
    <path
       inkscape:connector-curvature="0"
       style="opacity:1;fill:#7a6038;stroke:none;stroke-width:0.264583"
       d="m 115.37737,156.52482 c 0.089,0.0139 0.15949,0.0797 0.24392,0.17425 -0.0782,-0.0216 -0.17034,-0.0719 -0.24392,-0.17425 z"
       id="path1369" />
    <path
       inkscape:connector-curvature="0"
       style="opacity:1;fill:#87fe4b;stroke:none;stroke-width:0.264583"
       d="m 95.619874,142.45239 c 0.02918,-0.0557 0.05831,-0.11145 0.08337,-0.26155 0.208836,-0.0386 0.421746,0.0171 0.681091,0.14295 0.04651,0.0701 0.04302,0.0731 -0.05734,0.0731 -0.298133,-5.3e-4 -0.495962,-7.9e-4 -0.691118,0.0121 0.0026,0.0134 -0.01614,0.0334 -0.01614,0.0334 z"
       id="path1371" />
    <path
       inkscape:connector-curvature="0"
       style="opacity:1;fill:#87fe4b;stroke:none;stroke-width:0.264583"
       d="m 96.429949,142.40343 c 0.0916,0.11538 0.184071,0.23118 0.282072,0.42676 0.0056,0.0798 0.01005,0.0757 -0.06003,0.0402 -0.121629,-0.17819 -0.173117,-0.32089 -0.224631,-0.46358 0,0 0.0034,-0.003 0.0026,-0.003 z"
       id="path1373" />
    <path
       inkscape:connector-curvature="0"
       style="opacity:1;fill:#87fe4b;stroke:none;stroke-width:0.264583"
       d="m 128.1627,142.06944 c -0.10099,0.0165 -0.24389,-0.0315 -0.4268,-0.14453 0.10163,-0.0167 0.24328,0.0317 0.4268,0.14453 z"
       id="path1375" />
    <path
       inkscape:connector-curvature="0"
       style="opacity:1;fill:#65fd19;stroke:none;stroke-width:0.264583"
       d="m 119.12922,140.53151 c -0.0463,0.0751 -0.16884,0.15329 -0.36756,0.23169 0.0463,-0.0761 0.16877,-0.1523 0.36756,-0.23169 z"
       id="path1377" />
    <path
       inkscape:connector-curvature="0"
       style="opacity:1;fill:#87fe4b;stroke:none;stroke-width:0.264583"
       d="m 95.218448,157.96666 c 0.0408,-0.0933 0.16137,-0.1783 0.359596,-0.262 -0.04151,0.091 -0.160708,0.18062 -0.359596,0.262 z"
       id="path1379" />
    <path
       inkscape:connector-curvature="0"
       style="opacity:1;fill:#87fe4b;stroke:none;stroke-width:0.264583"
       d="m 129.53245,143.61525 c -0.0768,-0.0435 -0.16436,-0.16697 -0.26731,-0.36881 0.0753,0.044 0.16594,0.16646 0.26731,0.36881 z"
       id="path1381" />
    <path
       inkscape:connector-curvature="0"
       style="opacity:1;fill:#87fe4b;stroke:none;stroke-width:0.264583"
       d="m 85.925699,158.81883 c 0.122,-0.0246 0.283634,0.0338 0.502656,0.15934 -0.116099,0.0193 -0.28956,-0.0285 -0.502656,-0.15934 z"
       id="path1383" />
    <path
       inkscape:connector-curvature="0"
       style="opacity:1;fill:#87fe4b;stroke:none;stroke-width:0.264583"
       d="m 93.256748,159.06013 c 0.05892,-0.0974 0.214127,-0.18809 0.460957,-0.27534 -0.06054,0.0963 -0.212619,0.18918 -0.460957,0.27534 z"
       id="path1385" />
    <path
       inkscape:connector-curvature="0"
       style="opacity:1;fill:#87fe4b;stroke:none;stroke-width:0.264583"
       d="m 95.636569,142.02744 c -0.05347,0.0373 -0.125306,-0.003 -0.21373,-0.12288 0.05347,-0.0358 0.124169,0.006 0.21373,0.12288 z"
       id="path1387" />
    <path
       inkscape:connector-curvature="0"
       style="opacity:1;fill:#87fe4b;stroke:none;stroke-width:0.264583"
       d="m 95.364313,141.79581 c -0.05001,0.0257 -0.122634,-0.0212 -0.220662,-0.13765 0.03956,-0.01 0.114009,0.0349 0.220662,0.13765 z"
       id="path1389" />
    <path
       inkscape:connector-curvature="0"
       style="opacity:1;fill:#7a6038;stroke:none;stroke-width:0.264583"
       d="m 114.879,155.96864 c 0.0145,-0.004 0.032,-0.006 0.0241,-0.004 -0.008,0.002 -0.0388,0.008 -0.0241,0.004 z"
       id="path1391" />
    <path
       inkscape:connector-curvature="0"
       style="opacity:1;fill:#7a6038;stroke:none;stroke-width:0.264583"
       d="m 115.14501,156.22564 c 0.0151,-0.01 0.0434,-0.006 0.0384,0.001 -0.005,0.007 -0.0533,0.009 -0.0384,-0.001 z"
       id="path1393" />
    <path
       inkscape:connector-curvature="0"
       style="opacity:1;fill:#7a6038;stroke:none;stroke-width:0.264583"
       d="m 115.9194,157.03877 c 0.0109,-5.3e-4 0.0209,-0.002 0.0124,-0.003 -0.008,-7.9e-4 -0.0233,0.004 -0.0124,0.003 z"
       id="path1395" />
    <path
       inkscape:connector-curvature="0"
       style="opacity:1;fill:#7a6038;stroke:none;stroke-width:0.264583"
       d="m 85.415371,158.34296 c -0.0462,-0.06 -0.04781,-0.11939 0.0079,-0.26213 0.122184,-0.0253 0.186981,0.0328 0.251804,0.091 0,-2e-5 -0.06583,0.0816 -0.09599,0.12509 -0.03016,0.0435 -0.119222,0.0467 -0.163777,0.0461 z"
       id="path1397" />
    <path
       inkscape:connector-curvature="0"
       style="opacity:1;fill:#87fe4b;stroke:none;stroke-width:0.264583"
       d="m 128.4354,142.3399 c -0.0559,0.0159 -0.13583,-0.0341 -0.23301,-0.15361 0.0582,-0.0171 0.13361,0.0353 0.23301,0.15361 z"
       id="path1399" />
    <path
       inkscape:connector-curvature="0"
       style="opacity:1;fill:#87fe4b;stroke:none;stroke-width:0.264583"
       d="m 98.025836,144.70674 c -0.04622,0.009 -0.112368,-0.0456 -0.200898,-0.16246 0.06583,-0.0342 0.133588,0.0198 0.200898,0.16246 z"
       id="path1401" />
    <path
       inkscape:connector-curvature="0"
       style="opacity:1;fill:#87fe4b;stroke:none;stroke-width:0.264583"
       d="m 129.23921,143.12277 c -0.0478,0.0123 -0.12277,-0.0398 -0.22617,-0.1553 0.0474,-0.0119 0.12317,0.0394 0.22617,0.1553 z"
       id="path1403" />
    <path
       inkscape:connector-curvature="0"
       style="opacity:1;fill:#87fe4b;stroke:none;stroke-width:0.264583"
       d="m 96.72017,142.90805 c 0.08871,0.0236 0.157798,0.0729 0.237464,0.2044 0.02757,0.0584 0.02513,0.0618 -0.03498,0.0372 -0.107024,-0.0977 -0.153776,-0.17069 -0.200554,-0.2437 0,-1e-5 -0.0045,0.004 -0.0026,0.002 z"
       id="path1405" />
    <path
       inkscape:connector-curvature="0"
       style="opacity:1;fill:#87fe4b;stroke:none;stroke-width:0.264583"
       d="m 128.97611,142.85989 c -0.0466,0.0133 -0.11959,-0.0354 -0.22016,-0.145 0.0462,-0.0129 0.12004,0.035 0.22016,0.145 z"
       id="path1407" />
    <path
       inkscape:connector-curvature="0"
       style="opacity:1;fill:#080808;stroke:none;stroke-width:0.264583"
       d="m 123.71119,149.6316 c 0.96994,0.057 1.8461,0.057 2.78336,0.057 0.2513,1.47989 -0.6891,3.43859 -2.26443,4.26732 -1.69913,0.89385 -3.87461,0.59737 -5.11919,-0.69767 -1.64057,-1.70699 -1.98503,-3.56114 -1.00282,-5.39876 1.02759,-1.92267 2.8471,-2.68691 5.19639,-2.21328 -0.26617,0.69509 -0.77645,1.41172 -0.73245,2.09254 0.0408,0.63183 0.67337,1.22541 1.13914,1.89285 z"
       id="path1501" />
    <path
       inkscape:connector-curvature="0"
       style="opacity:1;fill:#39930f;stroke:none;stroke-width:0.264583"
       d="m 130.52082,145.93549 c 1.55184,1.6332 1.31186,3.72909 1.0305,5.72633 -0.15682,1.11282 -0.86436,2.14804 -1.41639,3.17944 1.25883,-2.89934 1.65656,-5.80799 0.38589,-8.90577 z"
       id="path1503" />
    <path
       inkscape:connector-curvature="0"
       style="opacity:1;fill:#39930f;stroke:none;stroke-width:0.264583"
       d="m 128.62778,156.59274 c -0.28948,0.34717 -0.66529,0.64785 -1.13321,0.90738 0.28755,-0.3454 0.66723,-0.64963 1.13321,-0.90738 z"
       id="path1505" />
    <path
       inkscape:connector-curvature="0"
       style="opacity:1;fill:#39930f;stroke:none;stroke-width:0.264583"
       d="m 129.41987,155.62492 c -0.11851,0.32464 -0.32383,0.67376 -0.624,1.02487 0.11581,-0.33213 0.3265,-0.66625 0.624,-1.02487 z"
       id="path1507" />
    <path
       inkscape:connector-curvature="0"
       style="opacity:1;fill:#39930f;stroke:none;stroke-width:0.264583"
       d="m 129.95893,154.835 c -0.0309,0.25548 -0.14198,0.53884 -0.35071,0.79084 0.0251,-0.27524 0.14783,-0.51909 0.35071,-0.79084 z"
       id="path1509" />
    <path
       inkscape:connector-curvature="0"
       style="opacity:1;fill:#39930f;stroke:none;stroke-width:0.264583"
       d="m 130.24531,145.39078 c 0.15682,0.034 0.26779,0.15407 0.347,0.36168 -0.15208,-0.0335 -0.27249,-0.15455 -0.347,-0.36168 z"
       id="path1511" />
    <path
       inkscape:connector-curvature="0"
       style="opacity:1;fill:#39930f;stroke:none;stroke-width:0.264583"
       d="m 129.72152,144.59631 c 0.15801,0.0353 0.27773,0.15281 0.35565,0.35745 -0.15915,-0.0337 -0.27657,-0.15447 -0.35565,-0.35745 z"
       id="path1513" />
    <path
       inkscape:connector-curvature="0"
       style="opacity:1;fill:#39930f;stroke:none;stroke-width:0.264583"
       d="m 130.03203,145.13289 c 0.10015,-0.0588 0.19569,-0.0282 0.27951,0.093 -0.10255,0.0592 -0.19331,0.0278 -0.27951,-0.093 z"
       id="path1515" />
    <path
       inkscape:connector-curvature="0"
       style="opacity:1;fill:#fafaf8;stroke:none;stroke-width:0.264583"
       d="m 85.774781,158.18725 c -0.164465,-0.0736 -0.229261,-0.13169 -0.36105,-0.19497 -4.421982,-2.5231 -5.401284,-7.41143 -4.405339,-10.63513 1.936512,-6.2679 8.927491,-8.76611 14.513348,-4.90309 0.09813,-0.002 0.116708,-0.0217 0.0947,0.0549 0.435504,0.54269 0.893048,1.00881 1.350618,1.47491 0,0 -0.0093,-0.0155 -0.01799,-0.0126 0.09853,0.18557 0.205581,0.36823 0.380841,0.59536 0.233997,0.33458 0.399732,0.62469 0.63627,0.96024 0.07078,0.0454 0.07406,0.0315 0.07869,0.1332 1.144085,2.4654 1.340935,4.88476 0.43643,7.3703 -0.247147,0.67926 -0.488341,1.36069 -0.732287,2.04113 0,0 0.02196,5.2e-4 -0.06617,-0.0453 -0.183886,0.16174 -0.279744,0.36921 -0.37555,0.5767 -0.519853,0.52334 -1.03968,1.04668 -1.620282,1.64567 -0.884581,0.45634 -1.688756,0.88895 -2.535846,1.20784 -2.451973,0.9232 -4.883415,0.75808 -7.376478,-0.2692 m 1.769507,-4.33672 c 1.661716,0.90716 3.380052,0.91787 4.844389,-0.22491 1.465448,-1.14368 2.289942,-2.72215 1.800807,-4.74572 -1.513734,1.15754 -2.744549,1.26276 -3.643683,0.34521 -0.918474,-0.93736 -0.735092,-2.0986 0.559329,-3.54163 -3.348143,-0.80711 -6.281526,1.54471 -5.683329,4.77841 0.218334,1.18041 1.271719,2.20635 2.122487,3.38864 z"
       id="path1517" />
    <path
       inkscape:connector-curvature="0"
       style="opacity:1;fill:#39930f;stroke:none;stroke-width:0.264583"
       d="m 97.840654,155.04971 c 0.1524,-0.65864 0.393595,-1.34007 0.640742,-2.01933 0.904504,-2.48555 0.707654,-4.9049 -0.443415,-7.36863 0.360256,0.5167 0.906833,1.08988 1.073097,1.75775 0.666856,2.67834 0.406294,5.25745 -1.270424,7.63021 z"
       id="path1519" />
    <path
       inkscape:connector-curvature="0"
       style="opacity:1;fill:#39930f;stroke:none;stroke-width:0.264583"
       d="m 97.387688,155.5792 c 0.01561,-0.18376 0.111363,-0.39122 0.28821,-0.56133 -0.01534,0.2041 -0.111574,0.37086 -0.28821,0.56133 z"
       id="path1521" />
    <path
       inkscape:connector-curvature="0"
       style="opacity:1;fill:#39930f;stroke:none;stroke-width:0.264583"
       d="m 97.00936,143.88819 c -0.499877,-0.37043 -0.957421,-0.83654 -1.395545,-1.39262 0.217223,-0.0895 0.415052,-0.089 0.713185,-0.0887 0.15187,0.14263 0.203358,0.28533 0.324987,0.46352 0.116893,0.10851 0.163645,0.18152 0.272601,0.27742 0.08385,0.23016 0.105489,0.43741 0.08477,0.74034 z"
       id="path1523" />
    <path
       inkscape:connector-curvature="0"
       style="opacity:1;fill:#080808;stroke:none;stroke-width:0.264583"
       d="m 87.455097,153.80759 c -0.761577,-1.13935 -1.814962,-2.16529 -2.033297,-3.3457 -0.598196,-3.2337 2.335186,-5.58552 5.68333,-4.77842 -1.294421,1.44304 -1.477804,2.60428 -0.559329,3.54164 0.899133,0.91755 2.129949,0.81233 3.643683,-0.34521 0.489135,2.02357 -0.33536,3.60204 -1.800807,4.74572 -1.464337,1.14278 -3.182673,1.13207 -4.93358,0.18197 z"
       id="path1553" />
  </g>
</svg>
