<?xml version="1.0" encoding="UTF-8" standalone="no"?>
<!-- Created with Inkscape (http://www.inkscape.org/) -->

<svg
   width="88.763618mm"
   height="88.816544mm"
   viewBox="0 0 88.763618 88.816544"
   version="1.1"
   id="svg2972"
   inkscape:version="1.2.2 (1:1.2.2+202212051552+b0a8486541)"
   sodipodi:docname="ratings_medium.svg"
   xmlns:inkscape="http://www.inkscape.org/namespaces/inkscape"
   xmlns:sodipodi="http://sodipodi.sourceforge.net/DTD/sodipodi-0.dtd"
   xmlns="http://www.w3.org/2000/svg"
   xmlns:svg="http://www.w3.org/2000/svg"
   xmlns:rdf="http://www.w3.org/1999/02/22-rdf-syntax-ns#"
   xmlns:cc="http://creativecommons.org/ns#"
   xmlns:dc="http://purl.org/dc/elements/1.1/">
  <defs
     id="defs2966" />
  <sodipodi:namedview
     id="base"
     pagecolor="#ffffff"
     bordercolor="#666666"
     borderopacity="1.0"
     inkscape:pageopacity="0.0"
     inkscape:pageshadow="2"
     inkscape:zoom="0.35"
     inkscape:cx="345.71429"
     inkscape:cy="81.428571"
     inkscape:document-units="mm"
     inkscape:current-layer="layer1"
     showgrid="false"
     inkscape:window-width="958"
     inkscape:window-height="1054"
     inkscape:window-x="0"
     inkscape:window-y="0"
     inkscape:window-maximized="1"
     inkscape:showpageshadow="2"
     inkscape:pagecheckerboard="0"
     inkscape:deskcolor="#d1d1d1" />
  <metadata
     id="metadata2969">
    <rdf:RDF>
      <cc:Work
         rdf:about="">
        <dc:format>image/svg+xml</dc:format>
        <dc:type
           rdf:resource="http://purl.org/dc/dcmitype/StillImage" />
      </cc:Work>
    </rdf:RDF>
  </metadata>
  <g
     inkscape:label="Ebene 1"
     inkscape:groupmode="layer"
     id="layer1"
     transform="translate(-28.189617,-127.85959)">
    <path
       inkscape:connector-curvature="0"
       style="opacity:1;fill:#f8cf43;stroke:none;stroke-width:0.264583"
       d="m 34.542749,149.52881 c 4.775648,-7.80803 11.26829,-13.51105 19.455144,-17.40384 7.786669,-3.70251 15.935005,-4.98741 24.415456,-3.8827 6.312138,0.82225 12.100587,3.25255 17.575424,6.49575 5.724497,3.3911 10.240937,8.05863 13.877737,13.49418 3.29004,4.91732 5.40131,10.40621 6.42922,16.30888 1.09058,6.26238 0.79573,12.41806 -0.67106,18.57127 -2.02359,8.48884 -6.32863,15.63805 -12.64013,21.59121 -3.722871,3.51151 -7.862542,6.46608 -12.687192,8.28014 -2.863136,1.07654 -5.76752,2.1713 -8.751147,2.77378 -6.850301,1.38332 -13.6779,1.2238 -20.508362,-0.61063 -4.999098,-1.34261 -9.647233,-3.40453 -13.828242,-6.3043 -2.935417,-2.03591 -5.516184,-4.66198 -7.975629,-7.28657 -3.54846,-3.7868 -6.14688,-8.24115 -8.01905,-13.08885 -3.489193,-9.0348 -3.904028,-18.28446 -1.53479,-27.61729 1.005623,-3.96126 2.583675,-7.75992 4.862621,-11.32103 m 72.537011,-1.81427 c 0,0 0.008,-0.0174 -0.0153,-0.19935 -0.76297,-0.91567 -1.52595,-1.83134 -2.38368,-2.90142 -2.38069,-2.85021 -5.133046,-5.2661 -8.181761,-7.40051 -6.174845,-4.32302 -13.155109,-6.43226 -20.487957,-7.36737 -2.725208,-0.34752 -5.565167,0.23322 -8.354431,0.35214 -3.157487,0.1346 -6.100442,1.13181 -9.065394,2.10231 -5.02865,1.64599 -9.538227,4.16189 -13.577417,7.78249 -0.05455,0.0706 -0.10912,0.14127 -0.341048,0.24118 -1.35523,1.33441 -2.740613,2.64006 -4.053242,4.01514 -0.675476,0.7076 -1.221341,1.5389 -1.934377,2.37084 -0.07345,0.0543 -0.102013,0.1263 -0.191897,0.36097 -0.262728,0.38783 -0.525455,0.77567 -0.923023,1.23201 -0.114012,0.16104 -0.228023,0.32208 -0.488506,0.57861 -0.152622,0.37585 -0.305244,0.75169 -0.620842,1.19966 -0.272126,0.44984 -0.544266,0.89967 -0.861009,1.48818 -0.01193,0.0961 -0.02387,0.19229 -0.204317,0.36379 -0.815697,1.75716 -1.631392,3.51431 -2.63511,5.32228 -0.546899,1.93605 -1.093814,3.87209 -1.78857,5.94821 -1.052536,3.95839 -1.126368,8.01797 -0.841648,12.0399 0.213408,3.01472 0.996482,5.98912 1.54708,9.18823 0.951056,2.55433 1.710844,5.20259 2.90617,7.637 1.232853,2.5108 2.889486,4.81351 4.36175,7.20662 0.02265,0.0369 0.05613,0.0683 0.08856,0.0978 1.870446,1.70797 3.727196,3.43138 5.619652,5.11463 0.688282,0.61218 1.462411,1.12777 2.19641,1.68868 1.417629,1.08335 2.718681,2.40603 4.291195,3.17045 1.111575,0.54037 2.274829,0.7163 3.358758,1.62177 1.199457,1.00195 2.996087,1.34039 4.577676,1.81902 1.558835,0.47176 3.221477,0.62277 4.751276,1.16211 1.559515,0.5498 3.062462,1.02492 4.7391,0.72982 0.505566,-0.089 1.048597,0.0499 1.574959,0.0614 2.490259,0.0545 4.987475,0.23192 7.468553,0.10267 1.555247,-0.081 3.119622,-0.52006 4.620921,-0.98791 2.877053,-0.89654 5.722541,-1.89932 8.55345,-2.93386 0.435055,-0.15899 0.722524,-0.7219 1.317572,-1.35103 0.664792,0.10362 1.652614,0.25762 2.709678,0.42242 -0.65204,-0.75453 -0.115835,-1.05984 0.449791,-1.49876 1.330008,-1.03205 2.976721,-1.70843 3.80492,-3.33858 0.12536,-0.24681 0.619681,-0.49493 0.889794,-0.44611 1.040474,0.18802 1.496904,-0.4829 1.975434,-1.16672 0.66471,-0.94988 1.1167,-2.28131 2.02665,-2.78066 2.20859,-1.21199 3.0075,-3.45688 4.44834,-5.21947 0.54787,-0.67023 1.14157,-1.34221 1.50947,-2.11142 0.59325,-1.24021 0.8255,-2.68326 1.55094,-3.82396 1.61417,-2.53815 2.04996,-5.43066 2.85686,-8.219 0.19103,-0.66017 -0.018,-1.57134 1.01277,-1.80758 0.0819,-0.0188 0.0848,-0.53949 0.0638,-0.82245 -0.0853,-1.15154 -0.17198,-2.30393 -0.30668,-3.45032 -0.0454,-0.38644 -0.23473,-0.75598 -0.35859,-1.30796 1.1e-4,-0.1165 2.2e-4,-0.23298 0.20707,-0.39741 0.39015,-0.98863 0.76745,-1.97635 -0.20746,-3.1142 -2.1e-4,-0.48497 0.0422,-0.97445 -0.009,-1.45407 -0.14547,-1.37327 -0.32867,-2.74254 -0.51981,-4.33849 -0.3121,-1.5274 -0.54665,-3.07623 -0.96115,-4.5753 -0.32472,-1.17449 -0.8723,-2.28738 -1.3698,-3.62462 -0.18523,-0.48495 -0.32194,-0.9958 -0.56467,-1.45003 -0.76052,-1.42328 -1.56099,-2.82521 -2.34522,-4.33257 0,0 -0.0298,-0.0925 -0.0466,-0.2811 -0.61221,-0.91147 -1.22441,-1.82294 -1.84049,-2.71815 m -14.516579,63.40285 c 0,-0.1055 0.0026,-0.21098 0.0032,-0.31648 -0.04387,-5.3e-4 -0.125809,-0.004 -0.126021,-8e-4 -0.0082,0.105 -0.0085,0.21058 0.12274,0.3173 z"
       id="path825" />
    <path
       inkscape:connector-curvature="0"
       style="opacity:1;fill:#ffe141;stroke:none;stroke-width:0.264583"
       d="m 31.6562,184.22506 c -0.529457,-2.99234 -1.312532,-5.96674 -1.525939,-8.98146 -0.284721,-4.02193 -0.210889,-8.08151 0.987795,-12.05163 0.344956,0.40201 0.543748,0.81573 0.833832,1.41942 0.566793,-0.51939 1.062289,-0.8318 1.363676,-1.27593 0.947745,-1.39664 1.916903,-2.7927 2.706261,-4.28 1.738218,-3.2751 4.094229,-6.06797 6.651195,-8.69376 1.919925,-1.97162 3.814349,-4.04011 6.032108,-5.63037 2.46004,-1.76398 5.319686,-2.95916 7.923144,-4.53756 3.161162,-1.91651 6.724962,-2.62237 10.201063,-3.55631 5.687087,-1.52801 11.231721,-0.32765 16.677958,1.33423 1.685845,0.51441 3.263318,1.41862 4.843886,2.23445 2.036286,1.05102 4.245874,1.92443 5.987626,3.3535 3.201935,2.62715 6.255175,5.47322 9.102645,8.48147 1.91881,2.02716 3.39934,4.47409 5.03415,6.76307 0.86042,1.20462 1.47156,2.62984 2.48922,3.66698 0.9325,0.95032 1.39232,2.70853 3.26562,2.45027 0.16839,1.37083 0.35158,2.7401 0.49702,4.11336 0.0508,0.47962 0.009,0.96911 0.008,1.6993 1.4e-4,1.13578 0,2.02634 0,2.9169 -1.3e-4,0.1165 -2.3e-4,0.23299 -0.0769,0.50986 -0.64047,2.84183 -1.05944,5.56484 -1.81229,8.19221 -0.65537,2.28733 -1.48447,4.57589 -2.60675,6.66516 -1.31072,2.44004 -2.89205,4.76656 -4.5988,6.95278 -1.60486,2.05572 -3.35899,4.0639 -5.35025,5.73141 -2.458876,2.05912 -5.194562,3.79938 -7.883152,5.56711 -1.214146,0.79829 -2.544313,1.5261 -3.925332,1.94342 -3.286178,0.99309 -6.601539,1.94559 -9.964817,2.61418 -4.695609,0.93347 -9.442657,0.59799 -14.134672,-0.17531 -1.791833,-0.2953 -3.551026,-0.87958 -5.274048,-1.47887 -2.251541,-0.78311 -4.607132,-1.44881 -6.637015,-2.64268 -2.697896,-1.58678 -5.325481,-3.31298 -7.820144,-5.28087 -2.023296,-1.59606 -3.72245,-3.42561 -5.360575,-5.3034 -2.934674,-3.36401 -5.171134,-7.21227 -6.812651,-11.38766 -0.188068,-0.47837 -0.544751,-0.89045 -0.823238,-1.33327 m 53.48426,-10.36321 c 0,0 0.02143,-0.002 0.06506,0.18563 0.702839,0.30284 1.379114,0.73264 2.113174,0.88612 2.90195,0.60678 5.407977,-0.54076 7.786132,-1.99979 0.415078,-0.25467 0.588803,-0.90278 1.061111,-1.3932 0.717868,-0.8753 1.746012,-1.64342 2.092749,-2.64694 0.872146,-2.52438 0.766762,-5.15079 -0.109776,-7.6927 -0.138853,-0.40265 -0.625581,-0.68532 -1.066192,-1.15971 -0.851746,-1.16574 -1.392978,-2.63981 -2.996988,-3.05097 0,0 -0.0026,0.0235 -0.04299,-0.15229 -3.002359,-2.2319 -7.950623,-2.0795 -10.997379,0.36381 -0.254556,0.20412 -0.384361,0.56384 -0.588989,0.83652 0,0 0.01588,0.0147 -0.168593,-0.0469 -0.02852,0.10977 -0.05704,0.21954 -0.09549,0.31087 0,0 0.01429,0.0156 -0.162613,-0.0748 -0.159491,0.14282 -0.347954,0.26387 -0.474266,0.43164 -3.047841,4.04777 -3.091788,8.16792 0.0071,12.47463 0.24138,0.32882 0.482759,0.65766 0.741707,0.98153 0,0 -0.01958,-0.007 0.165788,-0.0274 0.404256,0.25869 0.808487,0.51738 1.279392,0.93244 0.278924,0.19614 0.557795,0.39229 0.913527,0.73367 0.153538,0.0403 0.307049,0.0805 0.47752,0.10783 m -31.525335,0.31445 c 0,0 0.0072,-0.0181 0.102434,0.13976 0.551759,0.29347 1.082945,0.77231 1.660186,0.83643 0.838999,0.0932 1.763943,0.0423 2.556756,-0.22767 1.158505,-0.39442 2.232324,-1.03757 3.420674,-1.68499 0.0888,-0.0988 0.177604,-0.19757 0.44981,-0.33139 0.536612,-0.29193 1.07324,-0.58385 1.70516,-0.74337 0.298077,-0.18481 0.66729,-0.3092 0.883394,-0.56363 2.586889,-3.04573 2.524924,-6.52891 1.581637,-10.12603 -0.07863,-0.29982 -0.486889,-0.51322 -0.737228,-0.77365 0,0 0.0053,-0.005 0.0042,-0.17377 -0.105693,-0.11238 -0.211388,-0.22475 -0.435017,-0.43838 -0.160213,-0.19647 -0.32041,-0.39295 -0.548272,-0.76185 -0.873591,-0.89402 -1.629389,-1.96061 -2.64165,-2.6515 -3.881142,-2.64897 -9.911557,-1.39663 -12.628235,2.28007 -3.641185,4.92792 -2.266495,12.36097 3.946043,15.05314 0.231416,0.0512 0.462844,0.10233 0.680159,0.16683 m 7.54665,15.23607 c 0.299755,0.0431 0.599496,0.12393 0.89925,0.12393 7.333197,-1.1e-4 14.666442,-0.004 21.999633,-0.0194 1.621288,-0.003 1.894285,-0.47281 1.270583,-2.17797 0,0 0.03064,-0.0398 -0.03458,-0.23379 -0.111416,-0.0724 -0.222832,-0.14484 -0.536363,-0.24843 -0.474424,-0.0605 -0.948558,-0.17115 -1.423247,-0.17352 -3.168676,-0.0158 -6.337485,-0.009 -9.506214,-0.008 -4.048945,2.6e-4 -8.098457,-0.0313 -12.146127,0.0407 -0.541633,0.01 -1.073917,0.54457 -1.610526,0.83625 0.301482,0.49671 0.602964,0.9934 0.923279,1.58918 0,0 0.02053,0.0987 0.164314,0.27158 z"
       id="path1121" />
    <path
       inkscape:connector-curvature="0"
       style="opacity:1;fill:#fef8cc;stroke:none;stroke-width:0.264583"
       d="m 108.93706,150.62131 c 0,0 0.0298,0.0925 0.0108,0.24649 -0.33372,0.52245 -0.62863,0.9133 -0.98812,1.23111 -0.0453,0.0401 -0.47005,-0.26902 -0.65151,-0.4756 -1.41917,-1.61572 -2.68636,-3.3937 -4.26127,-4.83707 -2.37048,-2.17256 -4.879922,-4.2132 -7.471701,-6.11749 -1.597766,-1.17401 -3.455009,-1.99645 -5.202502,-2.96459 -0.792242,-0.43896 -1.602105,-0.84602 -2.401676,-1.27199 -0.676778,-0.36055 -1.311275,-0.88597 -2.032079,-1.06266 -2.40292,-0.58904 -4.816819,-1.33167 -7.262416,-1.50286 -3.872283,-0.27108 -7.791688,-0.36983 -11.656642,-0.0806 -2.918486,0.21838 -5.783284,1.15599 -8.670978,1.77813 -0.167142,0.036 -0.375446,0.0667 -0.480237,0.17872 -1.901079,2.03251 -4.654188,2.60408 -6.902114,3.9427 -0.171694,-0.27396 -0.341792,-0.44986 -0.511903,-0.62577 -0.07293,0.13237 -0.145841,0.26473 -0.218768,0.39709 0.245075,0.10788 0.490167,0.21577 0.720304,0.41523 -2.658591,2.16456 -5.302276,4.23755 -8.032715,6.37857 0.02588,0.26786 0.07136,0.73892 0.113075,1.2075 -0.0038,-0.002 0.0011,0.005 -0.09513,-0.007 -0.726589,-0.30734 -1.129036,-0.23481 -1.621042,0.40973 -1.132715,1.48392 -2.437579,2.83568 -3.65325,4.2576 -0.289357,0.33846 -0.586399,0.71147 -0.735145,1.12116 -0.420309,1.15761 -1.846207,2.48414 -2.88085,2.48708 0.513776,-1.31377 1.01336,-2.59126 1.512941,-3.86877 0.01193,-0.0961 0.02387,-0.19229 0.155368,-0.37018 0.889093,-0.26196 1.082736,-0.76575 0.904402,-1.47855 0.152641,-0.37585 0.305263,-0.7517 0.617937,-1.17651 0.261128,-0.23203 0.36222,-0.41508 0.463296,-0.59814 0.262726,-0.38784 0.525452,-0.77568 0.889077,-1.26814 0.158552,-0.1623 0.191461,-0.23171 0.199602,-0.31287 0.604435,-0.77541 1.1503,-1.60672 1.825776,-2.31431 1.312629,-1.37509 2.698011,-2.68073 4.209579,-4.0487 0.207851,-0.10832 0.259349,-0.1831 0.310832,-0.25789 3.913069,-3.57034 8.422645,-6.08624 13.451295,-7.73223 2.964953,-0.9705 5.907908,-1.96771 9.065395,-2.10231 2.789264,-0.11891 5.629222,-0.69966 8.354431,-0.35213 7.332847,0.93511 14.313111,3.04435 20.487957,7.36737 3.048715,2.1344 5.801071,4.55029 8.148531,7.52404 0.14007,1.63682 1.26111,2.32366 2.4402,2.95986 0,0 -0.008,0.0174 -0.0132,0.11416 0.20963,1.28186 0.41151,2.47596 1.86261,2.80999 z"
       id="path1123" />
    <path
       inkscape:connector-curvature="0"
       style="opacity:1;fill:#fdd831;stroke:none;stroke-width:0.264583"
       d="m 31.666763,184.32844 c 0.267925,0.33944 0.624607,0.75152 0.812675,1.22989 1.641517,4.17539 3.877977,8.02365 6.812651,11.38766 1.638125,1.87779 3.33728,3.70734 5.360575,5.3034 2.494663,1.96789 5.122248,3.69409 7.820144,5.28087 2.029883,1.19387 4.385474,1.85957 6.637015,2.64268 1.723022,0.59929 3.482215,1.18357 5.274048,1.47887 4.692015,0.7733 9.439063,1.10878 14.134677,0.17531 3.363277,-0.66859 6.678638,-1.62109 9.964816,-2.61418 1.38102,-0.41732 2.711186,-1.14513 3.925332,-1.94342 2.68859,-1.76773 5.424276,-3.50799 7.883154,-5.56711 1.99125,-1.66751 3.74539,-3.67569 5.35025,-5.73141 1.70674,-2.18622 3.28808,-4.51274 4.5988,-6.95278 1.12228,-2.08927 1.95138,-4.37783 2.60675,-6.66516 0.75285,-2.62737 1.17182,-5.35038 1.8125,-8.10485 0.20019,0.30425 0.3895,0.67378 0.43493,1.06023 0.1347,1.14639 0.22143,2.29877 0.30667,3.45032 0.0209,0.28296 0.0183,0.80366 -0.0638,0.82244 -1.03076,0.23625 -0.82174,1.14742 -1.01277,1.80758 -0.8069,2.78835 -1.24269,5.68086 -2.85686,8.21901 -0.72544,1.14069 -0.95769,2.58374 -1.55094,3.82396 -0.3679,0.7692 -0.9616,1.44119 -1.50947,2.11142 -1.44084,1.76258 -2.23975,4.00747 -4.44834,5.21946 -0.90995,0.49936 -1.36194,1.83079 -2.02665,2.78066 -0.47853,0.68383 -0.93496,1.35475 -1.975433,1.16673 -0.270113,-0.0488 -0.764434,0.19929 -0.889793,0.44611 -0.828199,1.63015 -2.474913,2.30653 -3.80492,3.33857 -0.565627,0.43893 -1.101831,0.74424 -0.449792,1.49876 -1.057063,-0.1648 -2.044885,-0.31879 -2.709677,-0.42242 -0.595048,0.62913 -0.882518,1.19205 -1.317572,1.35103 -2.83091,1.03455 -5.676398,2.03733 -8.55345,2.93387 -1.501299,0.46785 -3.065675,0.90687 -4.620922,0.98791 -2.481077,0.12925 -4.978294,-0.0482 -7.468552,-0.10268 -0.526362,-0.0115 -1.069393,-0.15038 -1.574959,-0.0614 -1.676638,0.29511 -3.179585,-0.18001 -4.7391,-0.72981 -1.5298,-0.53934 -3.192442,-0.69035 -4.751277,-1.16211 -1.581589,-0.47864 -3.378218,-0.81707 -4.577675,-1.81903 -1.083929,-0.90547 -2.247183,-1.08139 -3.358759,-1.62177 -1.572514,-0.76442 -2.873565,-2.08709 -4.291195,-3.17044 -0.733999,-0.56092 -1.508127,-1.0765 -2.196409,-1.68869 -1.892456,-1.68325 -3.749207,-3.40666 -5.619652,-5.11463 -0.03243,-0.0296 -0.0659,-0.061 -0.08856,-0.0978 -1.472267,-2.3931 -3.1289,-4.69581 -4.361752,-7.20661 -1.195327,-2.43441 -1.955115,-5.08267 -2.916748,-7.74039 z"
       id="path1125" />
    <path
       inkscape:connector-curvature="0"
       style="opacity:1;fill:#fdee91;stroke:none;stroke-width:0.264583"
       d="m 114.21907,164.80887 c -1.86193,0.37082 -2.32175,-1.38739 -3.25425,-2.33771 -1.01766,-1.03714 -1.6288,-2.46236 -2.48922,-3.66698 -1.63481,-2.28898 -3.11534,-4.73591 -5.03415,-6.76307 -2.84747,-3.00825 -5.90071,-5.85432 -9.102645,-8.48147 -1.741752,-1.42907 -3.95134,-2.30248 -5.987626,-3.3535 -1.580568,-0.81583 -3.158041,-1.72004 -4.843886,-2.23445 -5.446237,-1.66188 -10.990871,-2.86224 -16.677958,-1.33423 -3.476101,0.93394 -7.039901,1.6398 -10.201063,3.55631 -2.603458,1.5784 -5.463104,2.77358 -7.923144,4.53756 -2.217759,1.59026 -4.112183,3.65875 -6.032108,5.63037 -2.556966,2.62579 -4.912977,5.41866 -6.651195,8.69376 -0.789358,1.4873 -1.758516,2.88336 -2.706261,4.28 -0.301387,0.44413 -0.796883,0.75654 -1.363676,1.27593 -0.290084,-0.60369 -0.488876,-1.01741 -0.759902,-1.48945 0.474679,-1.99436 1.021594,-3.9304 1.673638,-5.78046 -0.164833,1.37776 -0.434792,2.66954 -0.752507,4.18978 0.465299,-0.20585 0.575128,-0.21806 0.615032,-0.27735 1.392291,-2.0682 2.688029,-4.20869 4.186984,-6.19598 1.957086,-2.59469 4.0743,-5.06857 6.122609,-7.59444 0,0 -0.0049,-0.008 0.09071,-0.0164 2.064798,-1.63948 3.954362,-3.38102 6.025391,-4.87021 2.0798,-1.49549 4.297752,-2.81599 6.537862,-4.06484 1.319073,-0.73538 2.774006,-1.25656 4.212744,-1.74062 1.934636,-0.6509 3.882255,-1.4891 5.878661,-1.68073 3.517013,-0.33759 7.077723,-0.37105 10.615334,-0.29833 3.201564,0.0658 6.315975,0.78895 9.234303,2.18259 2.344472,1.11958 4.753292,2.13308 6.992699,3.4358 2.175351,1.26544 4.27146,2.71715 6.216385,4.31362 1.747039,1.43405 3.263579,3.15457 4.840259,4.78879 1.21044,1.25459 2.42967,2.51318 3.51195,3.8757 1.32061,1.66255 2.502,3.43569 3.68689,5.08216 0.41846,-0.71201 0.73162,-1.24485 1.04476,-1.77768 0.44855,1.14027 0.99613,2.25315 1.32085,3.42765 0.4145,1.49907 0.64905,3.0479 0.97253,4.68785 z"
       id="path1127" />
    <path
       inkscape:connector-curvature="0"
       style="opacity:1;fill:#fef3af;stroke:none;stroke-width:0.264583"
       d="m 111.90121,156.59488 c -0.28866,0.63132 -0.60182,1.16415 -1.02028,1.87616 -1.18489,-1.64646 -2.36628,-3.4196 -3.68689,-5.08216 -1.08228,-1.36252 -2.30151,-2.62111 -3.51195,-3.8757 -1.57668,-1.63422 -3.09322,-3.35473 -4.840262,-4.78879 -1.944925,-1.59647 -4.041034,-3.04817 -6.216385,-4.31362 -2.239407,-1.30271 -4.648227,-2.31621 -6.992699,-3.4358 -2.918328,-1.39364 -6.032739,-2.11679 -9.234303,-2.18259 -3.537611,-0.0727 -7.098321,-0.0393 -10.615334,0.29833 -1.996406,0.19163 -3.944025,1.02983 -5.878661,1.68074 -1.438738,0.48406 -2.893671,1.00524 -4.212744,1.74062 -2.24011,1.24884 -4.458062,2.56934 -6.537862,4.06484 -2.071029,1.48919 -3.960593,3.23072 -6.02161,4.87269 -0.137363,-0.45998 -0.182856,-0.93104 -0.208727,-1.1989 2.730439,-2.14102 5.374124,-4.21401 8.031972,-6.37781 0.01418,-0.0908 0.01267,-0.0893 0.01267,-0.0893 2.24636,-1.43667 4.999469,-2.00824 6.900548,-4.04075 0.104791,-0.11205 0.313094,-0.14273 0.480237,-0.17873 2.887694,-0.62213 5.752492,-1.55975 8.670978,-1.77813 3.864954,-0.28921 7.784359,-0.19045 11.656642,0.0806 2.445597,0.17119 4.859496,0.91382 7.262416,1.50286 0.720804,0.17668 1.355301,0.7021 2.032079,1.06266 0.799571,0.42597 1.609434,0.83302 2.401676,1.27198 1.747493,0.96814 3.604736,1.79058 5.202502,2.96459 2.591779,1.9043 5.101217,3.94493 7.471697,6.1175 1.57491,1.44337 2.8421,3.22134 4.26128,4.83706 0.18145,0.20659 0.60618,0.51566 0.65151,0.47561 0.35949,-0.31781 0.65439,-0.70867 0.98774,-1.18253 0.80362,1.30476 1.60409,2.7067 2.36461,4.12998 0.24273,0.45423 0.37944,0.96508 0.58914,1.54852 z"
       id="path1129" />
    <path
       inkscape:connector-curvature="0"
       style="opacity:1;fill:#fef3af;stroke:none;stroke-width:0.264583"
       d="m 42.941447,147.45105 c -1.952014,2.53831 -4.069228,5.01219 -6.026314,7.60688 -1.498955,1.98729 -2.794693,4.12778 -4.186984,6.19598 -0.0399,0.0593 -0.149733,0.0715 -0.615032,0.27735 0.317715,-1.52024 0.587674,-2.81202 0.846508,-4.21519 0.804572,-1.86855 1.620266,-3.6257 2.520212,-5.42053 -0.415316,1.23982 -0.9149,2.51732 -1.428676,3.83109 1.034643,-0.003 2.46054,-1.32947 2.88085,-2.48709 0.148746,-0.40968 0.445788,-0.78269 0.735144,-1.12115 1.215671,-1.42192 2.520535,-2.77368 3.653251,-4.2576 0.492006,-0.64454 0.894453,-0.71708 1.621041,-0.40974 z"
       id="path1131" />
    <path
       inkscape:connector-curvature="0"
       style="opacity:1;fill:#fef3af;stroke:none;stroke-width:0.264583"
       d="m 107.07611,147.60618 c -1.16742,-0.54521 -2.28846,-1.23206 -2.38114,-2.79169 0.84357,0.86936 1.60655,1.78503 2.38114,2.79169 z"
       id="path1133" />
    <path
       inkscape:connector-curvature="0"
       style="opacity:1;fill:#fef3af;stroke:none;stroke-width:0.264583"
       d="m 108.92864,150.527 c -1.44269,-0.23971 -1.64457,-1.43382 -1.85226,-2.7238 0.61946,0.80655 1.23166,1.71802 1.85226,2.7238 z"
       id="path1135" />
    <path
       inkscape:connector-curvature="0"
       style="opacity:1;fill:#fdd831;stroke:none;stroke-width:0.264583"
       d="m 114.8402,173.62703 c -0.10382,-0.8666 -0.10432,-1.75716 -0.10408,-2.76913 0.97488,0.76882 0.59758,1.75653 0.10408,2.76913 z"
       id="path1137" />
    <path
       inkscape:connector-curvature="0"
       style="opacity:1;fill:#fef3af;stroke:none;stroke-width:0.264583"
       d="m 36.542401,150.04518 c 0.259805,0.67675 0.06616,1.18054 -0.800629,1.37316 0.174876,-0.43743 0.447016,-0.88726 0.800629,-1.37316 z"
       id="path1139" />
    <path
       inkscape:connector-curvature="0"
       style="opacity:1;fill:#fef3af;stroke:none;stroke-width:0.264583"
       d="m 37.637683,148.26873 c -0.03366,0.1488 -0.134747,0.33185 -0.322638,0.51613 0.02719,-0.15981 0.141206,-0.32085 0.322638,-0.51613 z"
       id="path1141" />
    <path
       inkscape:connector-curvature="0"
       style="opacity:1;fill:#fdd831;stroke:none;stroke-width:0.264583"
       d="m 92.496776,211.11678 c -0.0649,-0.1061 -0.06443,-0.21168 -0.05633,-0.31668 2.12e-4,-0.003 0.08215,2.6e-4 0.126021,7.9e-4 0,0.1055 -0.0026,0.21099 -0.06969,0.31588 z"
       id="path1143" />
    <path
       inkscape:connector-curvature="0"
       style="opacity:1;fill:#fef3af;stroke:none;stroke-width:0.264583"
       d="m 38.739491,146.68173 c 0.04615,0.0529 0.01325,0.12231 -0.09221,0.21218 -0.06411,-0.0576 -0.03554,-0.12966 0.09221,-0.21218 z"
       id="path1145" />
    <path
       inkscape:connector-curvature="0"
       style="opacity:1;fill:#fef3af;stroke:none;stroke-width:0.264583"
       d="m 45.07691,140.0577 c 0.01159,0.0496 -0.03992,0.12443 -0.159083,0.21813 -0.0131,-0.0517 0.04147,-0.12236 0.159083,-0.21813 z"
       id="path1147" />
    <path
       inkscape:connector-curvature="0"
       style="opacity:1;fill:#fafaf8;stroke:none;stroke-width:0.264583"
       d="m 83.682738,172.86398 c -0.40423,-0.25869 -0.808461,-0.51738 -1.307439,-0.78154 -0.09477,-0.005 -0.08863,0.0378 -0.08863,0.0378 -0.241379,-0.32883 -0.482759,-0.65767 -0.789279,-1.07221 -0.214021,-0.47227 -0.321733,-0.88124 -0.518398,-1.2417 -1.198986,-2.19761 -1.81819,-4.54394 -1.036531,-6.95752 0.51435,-1.58816 1.493176,-3.02588 2.264013,-4.53097 0,0 -0.01429,-0.0156 0.06302,-0.0172 0.119036,-0.0836 0.160893,-0.16562 0.20275,-0.24763 0,0 -0.01588,-0.0147 0.08308,-0.0199 2.892848,-2.2641 5.988341,-2.96538 9.437343,-1.79782 0.703977,0.23831 1.393984,0.51785 2.09042,0.77838 0,0 0.0026,-0.0235 -0.06154,0.069 1.03595,1.35503 2.136061,2.61765 3.242628,3.87308 0.0066,-0.007 -0.01058,0.002 -0.02011,0.10605 1.345194,3.11536 0.848174,6.01959 -0.508477,8.87837 0.0071,0.005 -0.0037,-0.008 -0.08408,0.0261 -0.118057,0.18879 -0.155813,0.34347 -0.184256,0.50215 0.0093,0.004 -0.0026,-0.0129 -0.08493,-0.0288 -0.117264,0.0853 -0.151421,0.18649 -0.177165,0.29274 0.0085,0.005 -0.0061,-0.008 -0.09213,0.002 -0.380709,0.35711 -0.675323,0.70395 -0.963957,1.05667 0.0061,0.006 0,-0.009 -0.0726,0.004 -0.115121,0.0943 -0.158274,0.17488 -0.19349,0.26026 0.0079,0.005 -0.0053,-0.009 -0.09731,7.9e-4 -0.210238,0.17969 -0.328321,0.35016 -0.437118,0.52545 0.0093,0.005 0.0034,-0.0153 -0.07445,-0.0731 -0.204152,0.0722 -0.330306,0.20228 -0.448971,0.33897 0.0074,0.007 -0.004,-0.01 -0.09554,-0.0134 -0.121867,0.0895 -0.152189,0.18263 -0.173673,0.279 0.009,0.003 0.0074,-0.0155 -0.08334,-0.0652 -0.211137,0.0734 -0.331443,0.19645 -0.44397,0.3266 0.0077,0.007 0.0037,-0.0135 -0.0934,-0.071 -2.209139,0.79145 -4.361974,1.16557 -6.594793,0.46223 -0.89199,-0.28099 -1.772047,-0.59993 -2.657528,-0.90161 m 7.462944,-7.94848 c -0.583962,-0.47713 -1.536806,-0.87258 -1.664838,-1.45068 -0.188463,-0.85091 0.211323,-1.83211 0.365442,-2.78827 -1.895845,-0.46363 -3.726868,0.2006 -4.788058,1.89395 -1.092465,1.74329 -0.960385,3.71188 0.353165,5.26371 1.372103,1.621 3.304461,2.10684 5.224278,1.31347 1.741223,-0.71957 2.787491,-2.62194 2.592837,-4.7725 -0.288449,0.13571 -0.550862,0.30105 -0.837195,0.38289 -0.331946,0.0949 -0.684926,0.11643 -1.245631,0.15743 z"
       id="path1409" />
    <path
       inkscape:connector-curvature="0"
       style="opacity:1;fill:#080808;stroke:none;stroke-width:0.264583"
       d="m 85.361837,187.29913 c 0,0 -0.03064,0.0398 -0.0164,0.17132 0.116681,1.33537 -0.578036,1.63173 -1.616922,1.62907 -7.289694,-0.0187 -14.579388,-0.0215 -21.974061,-0.0707 -0.328568,-0.0232 -0.552149,-0.005 -0.77573,0.0128 -0.301484,-0.49669 -0.602966,-0.99338 -0.904449,-1.49009 0.53661,-0.29168 1.068893,-0.82663 1.610527,-0.83625 4.04767,-0.072 8.097181,-0.0404 12.146127,-0.0407 3.168729,-2.5e-4 6.337538,-0.007 9.506214,0.008 0.474689,0.002 0.948822,0.11297 1.572895,0.27451 0.250428,0.18114 0.351155,0.26129 0.451935,0.34144 z"
       id="path1411" />
    <path
       inkscape:connector-curvature="0"
       style="opacity:1;fill:#7a6038;stroke:none;stroke-width:0.264583"
       d="m 52.86618,173.84065 c -6.143795,-2.52335 -7.518485,-9.9564 -3.8773,-14.88432 2.716679,-3.6767 8.747094,-4.92904 12.628235,-2.28007 1.012261,0.69089 1.76806,1.75748 2.630816,2.77885 -0.01085,0.12735 -0.09635,0.21095 -0.170921,0.16299 -0.726506,-0.74997 -1.284013,-1.58284 -2.045854,-2.13258 -4.643546,-3.35087 -10.787163,-1.90377 -13.526484,3.11703 -2.949432,5.40599 0.109265,11.56204 5.383797,13.1081 2.709572,0.7942 5.193369,0.31093 7.655055,-0.86694 0.02669,0.0327 0.07802,0.0998 0.07802,0.0998 -0.0888,0.0988 -0.177604,0.19757 -0.401315,0.37022 -2.517127,1.35211 -5.031396,1.35161 -7.597971,0.84453 0,0 -0.0072,0.0181 -0.05105,-0.058 -0.264245,-0.13725 -0.484643,-0.19842 -0.705027,-0.25959 z"
       id="path1413" />
    <path
       inkscape:connector-curvature="0"
       style="opacity:1;fill:#fdee91;stroke:none;stroke-width:0.264583"
       d="m 61.859301,189.07011 c 7.289689,0.008 14.579383,0.0107 21.869078,0.0294 1.038886,0.003 1.733602,-0.2937 1.632981,-1.60975 0.59354,1.55431 0.320543,2.02378 -1.300744,2.02712 -7.333192,0.0151 -14.666436,0.0193 -21.999633,0.0194 -0.299755,0 -0.599496,-0.0808 -0.882973,-0.21675 0.237956,-0.14503 0.459613,-0.19724 0.681291,-0.24944 z"
       id="path1415" />
    <path
       inkscape:connector-curvature="0"
       style="opacity:1;fill:#7a6038;stroke:none;stroke-width:0.264583"
       d="m 82.118071,158.27267 c -0.682439,1.55026 -1.661265,2.98799 -2.175615,4.57614 -0.781659,2.41358 -0.162455,4.75992 1.036531,6.95752 0.196665,0.36046 0.304377,0.76943 0.37383,1.18007 -2.889197,-4.15936 -2.84525,-8.2795 0.202592,-12.32728 0.126312,-0.16777 0.314774,-0.28881 0.562662,-0.38645 z"
       id="path1417" />
    <path
       inkscape:connector-curvature="0"
       style="opacity:1;fill:#7a6038;stroke:none;stroke-width:0.264583"
       d="m 94.062898,156.92587 c -0.676249,-0.17266 -1.366256,-0.4522 -2.070233,-0.6905 -3.449002,-1.16757 -6.544495,-0.46629 -9.428956,1.80518 0.09729,-0.2749 0.227092,-0.63462 0.481648,-0.83874 3.046756,-2.44331 7.99502,-2.59571 11.017541,-0.27594 z"
       id="path1419" />
    <path
       inkscape:connector-curvature="0"
       style="opacity:1;fill:#fcc777;stroke:none;stroke-width:0.264583"
       d="m 65.233141,160.70864 c 0.255103,0.25355 0.663363,0.46695 0.741992,0.76677 0.943287,3.59712 1.005253,7.0803 -1.581637,10.12603 -0.216103,0.25443 -0.585316,0.37882 -0.894294,0.41973 0.324853,-0.68967 0.660588,-1.23544 1.074161,-1.82941 1.927704,-3.09103 1.956411,-6.2462 0.659778,-9.48312 z"
       id="path1421" />
    <path
       inkscape:connector-curvature="0"
       style="opacity:1;fill:#fcc777;stroke:none;stroke-width:0.264583"
       d="m 95.978851,171.56464 c -0.28522,0.46639 -0.458946,1.1145 -0.874024,1.36917 -2.378154,1.45903 -4.884182,2.60657 -7.786132,1.99979 -0.73406,-0.15348 -1.410335,-0.58328 -2.033826,-0.96656 0.587137,0.054 1.087544,0.23923 1.603931,0.31418 2.135743,0.30998 4.254447,0.44221 6.143493,-0.92036 0,0 0.004,0.0206 0.08281,0.0366 0.201957,-0.0893 0.325094,-0.19467 0.448178,-0.30001 0,0 0.0026,0.0188 0.08244,0.0209 0.112501,-0.0922 0.143854,-0.1865 0.17526,-0.28078 0,0 0.01138,0.0165 0.08998,0.0521 0.199284,-0.0841 0.320119,-0.20367 0.440981,-0.32326 0,0 0.0058,0.0201 0.09258,0.0224 0.202247,-0.17907 0.317711,-0.36046 0.433123,-0.54184 0,0 0.01323,0.0133 0.100092,0.0372 0.114882,-0.085 0.142689,-0.19383 0.17055,-0.30271 0,0 0.0066,0.0153 0.07466,0.0712 0.277575,-0.0793 0.487072,-0.21458 0.711544,-0.33447 0.01508,0.0153 0.04434,0.0465 0.04434,0.0465 z"
       id="path1423" />
    <path
       inkscape:connector-curvature="0"
       style="opacity:1;fill:#fcc777;stroke:none;stroke-width:0.264583"
       d="m 97.197443,160.17749 c 0.325887,0.33816 0.812615,0.62083 0.951468,1.02348 0.876538,2.54191 0.981922,5.16832 0.109776,7.6927 -0.346737,1.00352 -1.374881,1.77164 -2.186305,2.65896 -0.09353,0.012 -0.122926,-0.0192 -0.09681,-0.11498 0.09192,-0.3018 0.157691,-0.50781 0.223493,-0.7138 0,0 0.01429,0.0136 0.09289,0.0304 0.11012,-0.0883 0.141711,-0.19353 0.173302,-0.29871 0,0 0.01111,0.0169 0.10078,0.006 0.114909,-0.18366 0.140256,-0.35668 0.165603,-0.5297 0,0 0.01085,0.0126 0.09612,0.048 1.693175,-2.21668 1.842982,-4.72327 1.282674,-7.31379 -0.130413,-0.60317 -0.563245,-1.14094 -0.856959,-1.70879 0,0 0.0172,-0.009 0.0589,-0.0942 -0.01058,-0.28543 -0.06273,-0.48565 -0.114935,-0.68587 z"
       id="path1425" />
    <path
       inkscape:connector-curvature="0"
       style="opacity:1;fill:#7a6038;stroke:none;stroke-width:0.264583"
       d="m 65.235514,160.7052 c 1.29426,3.24036 1.265553,6.39553 -0.71026,9.44053 -0.158031,-0.0285 -0.190119,-0.0592 -0.177702,-0.17264 1.984367,-3.53837 1.880967,-6.94591 -0.195967,-10.30703 0,0 0.08551,-0.0836 0.130178,-0.12474 0.204864,0.15534 0.365061,0.35182 0.605097,0.67429 0.172003,0.24426 0.264181,0.36255 0.356359,0.48085 0,0 -0.0053,0.005 -0.0077,0.009 z"
       id="path1427" />
    <path
       inkscape:connector-curvature="0"
       style="opacity:1;fill:#fcc777;stroke:none;stroke-width:0.264583"
       d="m 53.669878,174.23715 c 2.51895,0.42816 5.033219,0.42866 7.511122,-0.86832 -1.014217,0.51842 -2.088036,1.16157 -3.246541,1.55599 -0.792813,0.26993 -1.717757,0.32084 -2.556756,0.22767 -0.577242,-0.0641 -1.108427,-0.54296 -1.707825,-0.91534 z"
       id="path1429" />
    <path
       inkscape:connector-curvature="0"
       style="opacity:1;fill:#7a6038;stroke:none;stroke-width:0.264583"
       d="m 92.935058,173.30336 c -1.791811,1.42007 -3.910515,1.28784 -6.046258,0.97786 -0.516387,-0.075 -1.016794,-0.26014 -1.625785,-0.40803 -0.101256,-0.0134 -0.122555,-0.0113 -0.176424,-0.0686 -0.202724,-0.10347 -0.351579,-0.14964 -0.50046,-0.19582 -0.278923,-0.19613 -0.557794,-0.39228 -0.870056,-0.6666 0.852144,0.22349 1.732201,0.54243 2.624191,0.82342 2.232819,0.70335 4.385654,0.32922 6.594792,-0.46223 z"
       id="path1431" />
    <path
       inkscape:connector-curvature="0"
       style="opacity:1;fill:#7a6038;stroke:none;stroke-width:0.264583"
       d="m 97.140081,160.10938 c 0.109564,0.26834 0.161793,0.46856 0.165841,0.76119 -1.148318,-1.17022 -2.248429,-2.43284 -3.294406,-3.78171 1.678225,0.31259 2.219457,1.78666 3.128565,3.02052 z"
       id="path1433" />
    <path
       inkscape:connector-curvature="0"
       style="opacity:1;fill:#7a6038;stroke:none;stroke-width:0.264583"
       d="m 64.447416,170.19392 c -0.287626,0.59181 -0.623361,1.13758 -0.995868,1.76107 -0.573365,0.3696 -1.109993,0.66152 -1.738299,0.97097 -0.09171,0.0175 -0.143031,-0.0495 -0.123151,-0.15728 0.917546,-0.9761 1.815248,-1.84447 2.712932,-2.71283 0.03211,0.0307 0.06419,0.0614 0.144386,0.13807 z"
       id="path1435" />
    <path
       inkscape:connector-curvature="0"
       style="opacity:1;fill:#7a6038;stroke:none;stroke-width:0.264583"
       d="m 61.754317,189.02887 c -0.116694,0.0934 -0.338351,0.14564 -0.648202,0.20425 -0.08816,0.006 -0.108696,-0.0923 -0.118113,-0.14187 0.214167,-0.0676 0.437748,-0.0856 0.766315,-0.0624 z"
       id="path1437" />
    <path
       inkscape:connector-curvature="0"
       style="opacity:1;fill:#fcc777;stroke:none;stroke-width:0.264583"
       d="m 52.900544,173.92506 c 0.18602,-0.0232 0.406418,0.0379 0.677719,0.16849 -0.180496,0.0183 -0.411924,-0.0329 -0.677719,-0.16849 z"
       id="path1439" />
    <path
       inkscape:connector-curvature="0"
       style="opacity:1;fill:#fcc777;stroke:none;stroke-width:0.264583"
       d="m 84.624549,173.6814 c 0.110463,-0.0265 0.259318,0.0197 0.453575,0.12966 -0.108135,0.0235 -0.261646,-0.0168 -0.453575,-0.12966 z"
       id="path1441" />
    <path
       inkscape:connector-curvature="0"
       style="opacity:1;fill:#7a6038;stroke:none;stroke-width:0.264583"
       d="m 82.295448,172.11777 c -0.0087,0.002 -0.01482,-0.0408 -0.01296,-0.0252 0.0026,0.0156 0.0217,0.0227 0.01296,0.0252 z"
       id="path1443" />
    <path
       inkscape:connector-curvature="0"
       style="opacity:1;fill:#fcc777;stroke:none;stroke-width:0.264583"
       d="m 65.242637,160.61222 c -0.0916,-0.0341 -0.183774,-0.15235 -0.296802,-0.34599 0.08483,0.037 0.190527,0.14938 0.296802,0.34599 z"
       id="path1445" />
    <path
       inkscape:connector-curvature="0"
       style="opacity:1;fill:#fdee91;stroke:none;stroke-width:0.264583"
       d="m 85.32924,187.20212 c -0.06818,0.0169 -0.16891,-0.0633 -0.318294,-0.22883 0.06284,-0.013 0.174255,0.0594 0.318294,0.22883 z"
       id="path1447" />
    <path
       inkscape:connector-curvature="0"
       style="opacity:1;fill:#7a6038;stroke:none;stroke-width:0.264583"
       d="m 82.380009,158.02222 c 0.05038,0.11284 0.0085,0.19486 -0.105542,0.28768 -0.04374,-0.099 -0.01508,-0.20874 0.105542,-0.28768 z"
       id="path1449" />
    <path
       inkscape:connector-curvature="0"
       style="opacity:1;fill:#fef3af;stroke:none;stroke-width:0.264583"
       d="m 50.970398,139.78132 c -0.244316,-0.10865 -0.489408,-0.21654 -0.734483,-0.32442 0.07293,-0.13236 0.145838,-0.26472 0.218768,-0.39709 0.170111,0.17591 0.340209,0.35181 0.511902,0.62577 0.0016,0.0981 0.0031,0.0965 0.0038,0.0958 z"
       id="path1451" />
    <path
       inkscape:connector-curvature="0"
       style="opacity:1;fill:#080808;stroke:none;stroke-width:0.264583"
       d="m 91.254108,164.9217 c 0.452278,-0.0472 0.805259,-0.0687 1.137205,-0.16363 0.286332,-0.0818 0.548746,-0.24718 0.837195,-0.38289 0.194654,2.15056 -0.851615,4.05293 -2.592838,4.7725 -1.919816,0.79337 -3.852174,0.30753 -5.224277,-1.31347 -1.31355,-1.55183 -1.44563,-3.52042 -0.353166,-5.26371 1.061191,-1.69335 2.892214,-2.35758 4.788059,-1.89395 -0.15412,0.95616 -0.553905,1.93736 -0.365442,2.78827 0.128031,0.5781 1.080875,0.97355 1.773264,1.45688 z"
       id="path1525" />
    <path
       inkscape:connector-curvature="0"
       style="opacity:1;fill:#7a6038;stroke:none;stroke-width:0.264583"
       d="m 97.24393,161.06182 c 0.303266,0.46357 0.736098,1.00133 0.866511,1.6045 0.560308,2.59052 0.410501,5.09711 -1.289712,7.30924 1.271376,-2.89415 1.768396,-5.79837 0.423201,-8.91374 z"
       id="path1527" />
    <path
       inkscape:connector-curvature="0"
       style="opacity:1;fill:#7a6038;stroke:none;stroke-width:0.264583"
       d="m 96.112889,170.7341 c 0.02037,0.19574 -0.0454,0.40175 -0.152241,0.68819 -0.250613,0.2157 -0.46011,0.35096 -0.743638,0.42441 0.220557,-0.40865 0.51517,-0.7555 0.895879,-1.1126 z"
       id="path1529" />
    <path
       inkscape:connector-curvature="0"
       style="opacity:1;fill:#7a6038;stroke:none;stroke-width:0.264583"
       d="m 94.785528,172.05611 c -0.02328,0.17213 -0.138748,0.35352 -0.350309,0.52777 0.02196,-0.17761 0.140071,-0.34808 0.350309,-0.52777 z"
       id="path1531" />
    <path
       inkscape:connector-curvature="0"
       style="opacity:1;fill:#7a6038;stroke:none;stroke-width:0.264583"
       d="m 94.273956,172.50845 c -0.04286,0.17744 -0.163698,0.29702 -0.370496,0.37447 0.04019,-0.17219 0.166343,-0.30226 0.370496,-0.37447 z"
       id="path1533" />
    <path
       inkscape:connector-curvature="0"
       style="opacity:1;fill:#7a6038;stroke:none;stroke-width:0.264583"
       d="m 93.472427,173.04779 c -0.03223,0.15498 -0.155363,0.2603 -0.365098,0.34256 0.03366,-0.14611 0.153961,-0.26917 0.365098,-0.34256 z"
       id="path1535" />
    <path
       inkscape:connector-curvature="0"
       style="opacity:1;fill:#7a6038;stroke:none;stroke-width:0.264583"
       d="m 96.651369,169.96629 c 0.05493,0.13886 0.02958,0.31188 -0.09464,0.49151 -0.06117,-0.14804 -0.02355,-0.30272 0.09464,-0.49151 z"
       id="path1537" />
    <path
       inkscape:connector-curvature="0"
       style="opacity:1;fill:#7a6038;stroke:none;stroke-width:0.264583"
       d="m 95.076331,171.79512 c 0.04411,0.0951 0.0164,0.20399 -0.106468,0.28415 -0.05181,-0.10928 -0.0087,-0.18984 0.106468,-0.28415 z"
       id="path1539" />
    <path
       inkscape:connector-curvature="0"
       style="opacity:1;fill:#7a6038;stroke:none;stroke-width:0.264583"
       d="m 96.382182,170.43964 c 0.05149,0.12109 0.01984,0.22628 -0.09864,0.30958 -0.05279,-0.12309 -0.01852,-0.22429 0.09864,-0.30958 z"
       id="path1541" />
    <path
       inkscape:connector-curvature="0"
       style="opacity:1;fill:#7a6038;stroke:none;stroke-width:0.264583"
       d="m 93.729443,172.83396 c 0.06014,0.0978 0.02879,0.1921 -0.09255,0.28105 -0.05964,-0.0984 -0.02932,-0.19151 0.09255,-0.28105 z"
       id="path1543" />
    <path
       inkscape:connector-curvature="0"
       style="opacity:1;fill:#fafaf8;stroke:none;stroke-width:0.264583"
       d="m 64.347552,169.97309 c -0.942206,0.95112 -1.839908,1.81949 -2.784147,2.76288 -2.481567,1.28561 -4.965364,1.76888 -7.674936,0.97468 -5.274532,-1.54606 -8.333229,-7.70211 -5.383797,-13.1081 2.739321,-5.0208 8.882938,-6.4679 13.526484,-3.11703 0.761841,0.54974 1.319348,1.38261 2.045854,2.13258 2.151509,3.40908 2.254909,6.81662 0.270542,10.35499 m -7.060632,-8.61761 c 0.191834,-0.17299 0.383667,-0.34597 0.600626,-0.54161 -2.123432,-0.68753 -4.153073,0.0695 -5.236584,1.90793 -1.098073,1.8632 -0.700376,3.98936 1.072851,5.73588 1.215867,1.19755 3.618466,1.39548 5.157955,0.42491 1.716434,-1.08212 2.515028,-3.13595 1.913175,-4.9204 -1.225814,1.07472 -2.373241,1.27689 -3.270051,0.50695 -0.99277,-0.85231 -1.032108,-1.87291 -0.237972,-3.11366 z"
       id="path1545" />
    <path
       inkscape:connector-curvature="0"
       style="opacity:1;fill:#080808;stroke:none;stroke-width:0.264583"
       d="m 57.214914,161.43218 c -0.72213,1.16405 -0.682792,2.18465 0.309978,3.03696 0.89681,0.76994 2.044237,0.56777 3.270051,-0.50695 0.601853,1.78445 -0.196741,3.83828 -1.913175,4.9204 -1.539489,0.97057 -3.942088,0.77264 -5.157955,-0.42491 -1.773227,-1.74652 -2.170924,-3.87268 -1.072851,-5.73588 1.083511,-1.83847 3.113152,-2.59546 5.236584,-1.90793 -0.216959,0.19564 -0.408792,0.36862 -0.672632,0.61831 z"
       id="path1555" />
  </g>
</svg>
