<?xml version="1.0" encoding="UTF-8" standalone="no"?>
<!-- Created with Inkscape (http://www.inkscape.org/) -->

<svg
   xmlns:dc="http://purl.org/dc/elements/1.1/"
   xmlns:cc="http://creativecommons.org/ns#"
   xmlns:rdf="http://www.w3.org/1999/02/22-rdf-syntax-ns#"
   xmlns:svg="http://www.w3.org/2000/svg"
   xmlns="http://www.w3.org/2000/svg"
   xmlns:sodipodi="http://sodipodi.sourceforge.net/DTD/sodipodi-0.dtd"
   xmlns:inkscape="http://www.inkscape.org/namespaces/inkscape"
   width="210mm"
   height="297mm"
   viewBox="0 0 210 297"
   version="1.1"
   id="svg3693"
   inkscape:version="0.92.4 (5da689c313, 2019-01-14)"
   sodipodi:docname="ratings_high.svg">
  <defs
     id="defs3687" />
  <sodipodi:namedview
     id="base"
     pagecolor="#ffffff"
     bordercolor="#666666"
     borderopacity="1.0"
     inkscape:pageopacity="0.0"
     inkscape:pageshadow="2"
     inkscape:zoom="0.35"
     inkscape:cx="-224.28571"
     inkscape:cy="560"
     inkscape:document-units="mm"
     inkscape:current-layer="layer1"
     showgrid="false"
     inkscape:window-width="2560"
     inkscape:window-height="1377"
     inkscape:window-x="-8"
     inkscape:window-y="1072"
     inkscape:window-maximized="1" />
  <metadata
     id="metadata3690">
    <rdf:RDF>
      <cc:Work
         rdf:about="">
        <dc:format>image/svg+xml</dc:format>
        <dc:type
           rdf:resource="http://purl.org/dc/dcmitype/StillImage" />
        <dc:title></dc:title>
      </cc:Work>
    </rdf:RDF>
  </metadata>
  <g
     inkscape:label="Ebene 1"
     inkscape:groupmode="layer"
     id="layer1">
    <path
       inkscape:connector-curvature="0"
       style="opacity:1;fill:#779411;stroke:none;stroke-width:0.26458332"
       d="m 44.962313,122.83158 c 6.68364,-5.27437 14.160367,-8.51459 22.488921,-9.69921 5.06095,-0.71984 10.138436,-0.55419 15.096093,0.71157 11.387693,2.90743 20.726213,8.92264 27.289473,18.80554 6.02771,9.07644 8.42695,19.08619 7.07485,29.93889 -1.40613,11.28664 -6.48975,20.57724 -15.02146,28.096 -6.129492,5.40175 -13.266019,8.49349 -21.180712,10.10374 -4.197932,0.85408 -8.416607,1.04948 -12.620572,0.47521 -8.484526,-1.159 -16.316614,-4.06525 -22.975568,-9.59284 -7.941073,-6.59186 -13.432685,-14.82887 -15.432379,-25.02711 -3.213418,-16.38834 1.216765,-30.48526 13.341456,-42.07433 0.604467,-0.57777 1.246082,-1.11672 1.939898,-1.73746 m 58.910567,5.45811 c 0,0 0.0856,-0.083 0.0299,-0.24771 -0.72012,-0.69185 -1.44024,-1.38369 -2.22052,-2.21709 -0.0845,-0.0544 -0.16902,-0.10883 -0.31755,-0.29621 -0.12457,-0.074 -0.24911,-0.14809 -0.46001,-0.37279 -6.925518,-6.1392 -15.062858,-9.60389 -24.226648,-10.3097 -13.554472,-1.04399 -25.192672,3.31606 -34.675973,13.16834 -2.945025,3.05958 -5.343658,6.50087 -7.323535,10.4501 -0.665136,1.72012 -1.330246,3.44025 -2.142728,5.28749 -0.50255,2.22971 -1.005073,4.45943 -1.622134,6.87238 -0.186637,1.65082 -0.526839,3.30206 -0.522235,4.95235 0.0061,2.21364 0.278818,4.42652 0.418915,6.86433 0.726387,3.16687 1.452774,6.33375 2.220674,9.68435 1.011793,2.09463 1.914896,4.25055 3.055091,6.27278 3.981371,7.06146 9.646788,12.4947 16.761196,16.2766 9.432183,5.01396 19.496748,6.22593 29.894449,3.89486 7.153937,-1.60384 13.46634,-4.97995 18.884398,-9.97034 5.72077,-5.2692 9.81316,-11.57366 12.0555,-19.03235 1.03659,-3.44784 1.7643,-6.9644 1.7953,-10.83772 -0.12461,-2.13108 -0.24918,-4.26215 -0.40796,-6.62596 -0.21071,-1.41223 -0.42145,-2.82446 -0.64743,-4.43912 -0.64156,-1.9685 -1.2831,-3.937 -1.93284,-6.11505 -0.55139,-1.19159 -1.10275,-2.38317 -1.77355,-3.71099 -1.67939,-3.10475 -3.36693,-6.20403 -5.91799,-8.9052 -0.27945,-0.24182 -0.55891,-0.48365 -0.92437,-0.64335 z"
       id="path821" />
    <path
       inkscape:connector-curvature="0"
       style="opacity:1;fill:#baf101;stroke:none;stroke-width:0.26458332"
       d="m 115.10327,152.33614 c 0.12457,2.13107 0.24914,4.26214 0.26967,6.53985 -0.29925,0.56816 -0.60891,0.97339 -0.67167,1.41381 -0.54161,3.80093 -1.35454,7.52592 -2.86425,11.07575 -2.25108,5.29293 -5.45632,10.0027 -9.63451,13.87222 -4.32967,4.00981 -9.12892,7.38767 -14.894217,9.32706 -3.678476,1.23741 -7.383172,2.19933 -11.192299,2.45226 -4.807426,0.31919 -9.631098,0.18424 -14.351159,-1.1932 -4.107788,-1.19876 -8.066562,-2.61639 -11.635474,-5.07351 -3.375104,-2.32371 -6.700414,-4.6735 -9.435332,-7.76291 -2.650702,-2.9943 -4.904767,-6.23622 -6.463798,-9.9468 -0.192881,-0.45901 -0.816637,-0.737 -1.240711,-1.09886 -0.726334,-3.16688 -1.452721,-6.33376 -2.163101,-9.7429 0.01878,-2.48909 -0.0037,-4.73632 0.03315,-6.98257 0.02381,-1.43947 0.485696,-2.62836 1.977708,-3.23189 0.505222,-0.20438 1.038145,-0.59003 1.324239,-1.04131 1.023991,-1.61534 1.941407,-3.29794 2.910999,-4.94814 0.909347,-1.54768 1.76837,-3.13083 2.773787,-4.61413 0.698791,-1.03084 1.616948,-1.91158 2.420196,-2.87353 0.631402,-0.75613 1.195891,-1.57187 1.863937,-2.29271 0.898763,-0.96977 1.864254,-1.87809 2.808975,-2.8048 0.929905,-0.91217 1.777842,-1.94293 2.826174,-2.69127 1.648169,-1.1765 3.38537,-2.25202 5.174853,-3.20044 2.018452,-1.06975 4.08072,-2.1083 6.22665,-2.87169 2.224431,-0.79131 4.589674,-1.17636 6.861572,-1.84665 4.079134,-1.20349 8.13136,-0.55201 12.063677,0.43554 2.792836,0.70138 5.43642,2.05996 8.081936,3.26699 2.456259,1.12067 4.721595,2.49289 6.872208,4.24481 2.836148,2.31036 5.120318,5.11519 7.786448,7.55738 1.0223,0.93644 1.79126,2.16999 2.58702,3.32902 1.97882,2.88242 3.86217,5.83117 5.87541,8.68879 0.88874,1.26145 1.98025,2.4034 3.80791,2.01383 m -49.893851,-7.70913 c -0.02974,-0.06 -0.07728,-0.0971 -0.215132,-0.29084 -0.65159,-0.76663 -1.183905,-1.69679 -1.974295,-2.27298 -4.606581,-3.35823 -10.957691,-2.69261 -14.2136,2.51561 -3.161454,5.0571 -1.511353,11.22556 4.140994,14.13001 0.04792,0.004 0.09586,0.007 0.125994,0.0106 0,0 0,-0.0177 0.02408,0.1905 0.109114,0.17473 0.209021,0.4948 0.328745,0.5024 1.829963,0.11639 3.671357,0.33201 5.490817,0.21787 0.907759,-0.0569 1.776598,-0.73445 2.850886,-1.15859 0.833755,-0.6808 2.397945,-0.52463 2.620618,-2.14938 0.698553,-0.79729 1.78824,-1.4952 2.020861,-2.41085 0.646271,-2.54407 1.050052,-5.18639 -0.126524,-7.7356 -0.167137,-0.36209 -0.506782,-0.64458 -0.766603,-0.95659 0,0 0.0053,0.005 -0.0071,-0.15958 -0.09353,-0.12259 -0.187087,-0.24518 -0.260668,-0.36704 0,0 0,0.0199 -0.03887,-0.0655 m 19.691615,13.95961 c 0.157877,0.0399 0.31578,0.0799 0.453998,0.12551 0,0 0.0079,-0.0189 0.04191,0.17442 2.344526,1.1493 4.791287,1.19704 7.230454,0.47546 0.705459,-0.20871 1.266375,-0.90597 2.076794,-1.45833 0.688393,-0.55095 1.376786,-1.10188 2.231787,-1.6533 0.388382,-0.66267 0.77679,-1.32534 1.343634,-2.04983 0.351948,-0.89167 0.857355,-1.7571 1.015523,-2.68191 0.181954,-1.064 -0.05061,-2.19493 0.0935,-3.27044 0.163327,-1.21854 -0.541337,-1.85407 -1.326144,-2.70978 -0.183039,-0.27858 -0.366078,-0.55716 -0.589307,-0.95958 -0.04786,-0.0776 -0.115543,-0.12935 -0.223255,-0.31331 -0.100859,-0.10238 -0.201772,-0.20477 -0.441802,-0.42183 -1.016264,-1.74754 -2.596568,-2.68925 -4.663281,-3.28692 -4.815681,-1.37547 -8.5412,0.005 -11.331839,4.61693 -1.804168,2.98168 -2.089971,7.52274 1.168585,11.12188 0.793247,0.63534 1.586521,1.27068 2.435675,2.04447 0.140679,0.037 0.281357,0.0739 0.40632,0.11611 0,0 -0.0032,-0.0162 0.07744,0.13045 m -20.187877,12.04322 c 0,0 -0.0058,0.0235 -0.07205,-0.14928 -1.337813,-0.71651 -2.646415,-1.49946 -4.031297,-2.109 -0.414841,-0.18259 -1.231742,-0.0582 -1.519397,0.24889 -0.282654,0.30169 -0.364172,1.18672 -0.123666,1.51719 1.219332,1.67557 2.943066,2.57255 5.009039,2.76622 0,0 0.01402,-0.003 0.04416,0.18588 1.015629,0.50003 1.986862,1.27298 3.055593,1.447 2.784052,0.45327 5.532385,1.03584 8.451427,0.65925 3.979968,-0.51347 7.477284,-2.08775 10.946209,-3.90217 1.181153,-0.61783 1.277356,-1.66519 0.820076,-2.54458 -0.184652,-0.35508 -1.526301,-0.41669 -2.171514,-0.1691 -2.405671,0.92316 -4.734216,2.04553 -7.105968,3.05975 -0.886433,0.37905 -1.811999,0.66664 -2.890943,1.06654 -0.122079,-0.008 -0.244131,-0.0171 -0.538348,-0.15574 -2.447634,-8e-4 -4.841134,-0.30457 -7.158699,-1.15066 -0.885931,-0.32343 -1.822132,-0.50924 -2.714625,-0.77019 z"
       id="path1077" />
    <path
       inkscape:connector-curvature="0"
       style="opacity:1;fill:#edfbc0;stroke:none;stroke-width:0.26458332"
       d="m 101.42881,125.66165 c 0.0845,0.0544 0.16902,0.10883 0.28972,0.3278 0.77079,0.84878 1.50538,1.53301 2.23994,2.21722 0,0 -0.0856,0.083 -0.0631,0.13783 0.32861,0.2847 0.63471,0.51459 0.94083,0.74449 2.51209,2.54522 4.19963,5.6445 5.89103,8.90569 -0.0366,0.62559 -0.0852,1.09475 -0.15907,1.8085 -0.80089,-0.87392 -1.42809,-1.57777 -2.07616,-2.26181 -1.77329,-1.87183 -3.52036,-3.77063 -5.35159,-5.58432 -0.71004,-0.70322 -1.61822,-1.20637 -2.44393,-1.86908 -0.0109,-0.11418 -0.014,-0.15998 -0.0185,-0.29888 -1.152845,-1.04479 -2.294311,-2.00914 -3.466547,-2.93448 -0.175551,-0.13857 -0.495326,-0.0944 -0.750967,-0.13842 -0.0026,-0.004 -0.01032,-0.008 -0.01323,-0.10264 -0.435954,-0.38007 -0.868812,-0.66572 -1.371812,-0.95597 -0.116787,-0.009 -0.163433,-0.0139 -0.217223,-0.10738 -0.349091,-0.28746 -0.690959,-0.48608 -1.122733,-0.68937 -0.209629,-0.0124 -0.329379,-0.0201 -0.455797,-0.12118 -0.439923,-1.35336 -1.348105,-1.84439 -2.727405,-1.72091 -0.209788,-0.0101 -0.329618,-0.0176 -0.458311,-0.11738 -2.798997,-1.26322 -5.557834,-2.51947 -8.395702,-3.56026 -1.031955,-0.37846 -2.251869,-0.32122 -3.386879,-0.32803 -3.990128,-0.0239 -8.00354,-0.24307 -11.962765,0.11424 -2.547937,0.22995 -5.037666,1.27494 -7.511176,2.08382 -1.147393,0.3752 -2.230464,0.9965 -3.27914,1.61412 -2.538465,1.49498 -5.280686,2.76953 -7.498661,4.65345 -3.228446,2.74215 -6.110261,5.90148 -9.054068,8.96537 -1.209226,1.2586 -2.175564,2.748 -3.295466,4.09667 -0.30435,0.36654 -0.765333,0.60304 -1.15443,0.89922 0.0085,-0.52207 -0.01085,-1.04654 0.03334,-1.56557 0.04371,-0.51244 0.151845,-1.0194 0.231696,-1.52876 1.837743,-3.83023 4.236377,-7.27152 7.181401,-10.3311 9.483302,-9.85228 21.121501,-14.21233 34.675973,-13.16834 9.163791,0.70581 17.301131,4.1705 24.291214,10.45922 0.19621,0.21843 0.32787,0.28734 0.4595,0.35624 z"
       id="path1079" />
    <path
       inkscape:connector-curvature="0"
       style="opacity:1;fill:#c0f21b;stroke:none;stroke-width:0.26458332"
       d="m 115.08618,152.21977 c -1.81057,0.50594 -2.90208,-0.63601 -3.79082,-1.89746 -2.01324,-2.85762 -3.89659,-5.80637 -5.87541,-8.68879 -0.79576,-1.15903 -1.56472,-2.39258 -2.58702,-3.32902 -2.66613,-2.44219 -4.9503,-5.24702 -7.786448,-7.55738 -2.150613,-1.75192 -4.415949,-3.12414 -6.872208,-4.24481 -2.645516,-1.20703 -5.2891,-2.56561 -8.081936,-3.26699 -3.932317,-0.98755 -7.984543,-1.63903 -12.063677,-0.43554 -2.271898,0.67029 -4.637141,1.05534 -6.861572,1.84665 -2.14593,0.76339 -4.208198,1.80194 -6.22665,2.87169 -1.789483,0.94842 -3.526684,2.02394 -5.174853,3.20044 -1.048332,0.74834 -1.896269,1.7791 -2.826174,2.69127 -0.944721,0.92671 -1.910212,1.83503 -2.808975,2.8048 -0.668046,0.72084 -1.232535,1.53658 -1.863937,2.29271 -0.803248,0.96195 -1.721405,1.84269 -2.420196,2.87353 -1.005417,1.4833 -1.86444,3.06645 -2.773787,4.61413 -0.969592,1.6502 -1.887008,3.3328 -2.910998,4.94814 -0.286094,0.45128 -0.819018,0.83693 -1.32424,1.04131 -1.492012,0.60353 -1.954001,1.79242 -1.977707,3.23189 -0.03691,2.24625 -0.01455,4.49348 -0.02408,6.87027 -0.165206,-2.08324 -0.437886,-4.29612 -0.444024,-6.50976 -0.0045,-1.65029 0.335597,-3.30153 0.640768,-4.97424 0.513794,-0.44736 0.907124,-0.87465 1.304713,-1.2979 0.715328,-0.76154 1.540193,-1.4464 2.129605,-2.29502 1.618006,-2.32963 3.165395,-4.70995 4.688126,-7.10365 1.416394,-2.22642 3.157617,-4.1427 5.124635,-5.89469 2.026126,-1.80463 3.712607,-4.11823 5.982044,-5.49125 3.188705,-1.92917 6.043029,-4.52972 9.745899,-5.54958 3.27541,-0.90215 6.528568,-2.00342 9.868324,-2.5265 5.101722,-0.79907 10.09306,0.60759 14.893766,2.02508 4.085987,1.20644 7.941786,3.38391 11.232356,6.15164 3.094249,2.60258 5.979393,5.5155 8.616233,8.58431 3.19487,3.71827 6.03237,7.74356 9.02179,11.63246 0.29207,-0.35569 0.54462,-0.66325 0.79714,-0.97081 0.21071,1.41224 0.42145,2.82447 0.64929,4.35307 z"
       id="path1081" />
    <path
       inkscape:connector-curvature="0"
       style="opacity:1;fill:#ade106;stroke:none;stroke-width:0.26458332"
       d="m 33.010317,172.03368 c 0.403277,0.26999 1.027033,0.54798 1.219914,1.00699 1.559031,3.71058 3.813096,6.9525 6.463798,9.9468 2.734918,3.08941 6.060228,5.4392 9.435332,7.76291 3.568912,2.45712 7.527686,3.87475 11.635474,5.07351 4.720061,1.37744 9.543733,1.51239 14.351159,1.1932 3.809127,-0.25293 7.513823,-1.21485 11.192299,-2.45226 5.765297,-1.93939 10.564547,-5.31725 14.894217,-9.32706 4.17819,-3.86952 7.38343,-8.57929 9.63451,-13.87222 1.50971,-3.54983 2.32264,-7.27482 2.86425,-11.07575 0.0628,-0.44042 0.37242,-0.84565 0.65571,-1.29163 0.089,3.60451 -0.63867,7.12107 -1.67526,10.56891 -2.24234,7.45869 -6.33473,13.76315 -12.0555,19.03235 -5.418059,4.99039 -11.730461,8.3665 -18.884398,9.97034 -10.397701,2.33107 -20.462266,1.1191 -29.894449,-3.89486 -7.114408,-3.7819 -12.779825,-9.21514 -16.761196,-16.2766 -1.140195,-2.02223 -2.043298,-4.17815 -3.07586,-6.36463 z"
       id="path1083" />
    <path
       inkscape:connector-curvature="0"
       style="opacity:1;fill:#d2f65e;stroke:none;stroke-width:0.26458332"
       d="m 114.42925,147.76549 c -0.24487,0.40877 -0.49742,0.71633 -0.78949,1.07202 -2.98942,-3.8889 -5.82692,-7.91419 -9.02179,-11.63246 -2.63684,-3.06881 -5.521987,-5.98173 -8.616236,-8.58431 -3.29057,-2.76773 -7.14637,-4.9452 -11.232357,-6.15164 -4.800706,-1.41749 -9.792044,-2.82415 -14.893766,-2.02508 -3.339756,0.52308 -6.592914,1.62435 -9.868323,2.5265 -3.70287,1.01986 -6.557194,3.62041 -9.7459,5.54958 -2.269437,1.37302 -3.955917,3.68662 -5.982044,5.49125 -1.967018,1.75199 -3.708241,3.66827 -5.124635,5.89469 -1.52273,2.3937 -3.070119,4.77402 -4.688126,7.10365 -0.589412,0.84862 -1.414277,1.53348 -2.129605,2.29502 -0.397589,0.42325 -0.790919,0.85054 -1.247404,1.20628 0.441219,-2.29944 0.943742,-4.52916 1.591945,-6.771 0.536919,0.76408 0.999014,0.78507 1.524291,0.11622 1.599327,-2.03633 3.08266,-4.17849 4.823804,-6.08528 2.774395,-3.03838 5.711587,-5.92869 8.600969,-8.86089 0.574966,-0.58349 1.162236,-1.28484 1.886056,-1.56687 2.039382,-0.79461 3.333142,-2.68829 5.607156,-3.26583 2.452078,-0.62277 4.692199,-2.04529 7.067734,-3.01349 2.983733,-1.21608 6.139577,-1.57323 9.338813,-1.79716 3.726947,-0.26086 7.284243,0.79202 10.927291,1.15632 0.491279,0.0491 0.944775,0.40538 1.433301,0.56592 2.067057,0.67924 4.140703,1.33825 6.211967,2.00465 0.119777,0.008 0.239607,0.0151 0.46101,0.11423 0.975228,0.63617 1.848855,1.18073 2.722483,1.72528 0.119724,0.008 0.239475,0.0154 0.457332,0.11611 0.439315,0.29197 0.780468,0.4909 1.121675,0.68983 0.04662,0.005 0.09327,0.009 0.216059,0.11103 0.507074,0.38402 0.938001,0.67096 1.368875,0.9579 0,0 0.0077,0.005 0.02117,0.0966 1.411632,1.0872 2.809796,2.0824 4.207935,3.07762 0.003,0.0458 0.006,0.0916 0.0222,0.29657 0.86736,1.08212 1.72863,1.99878 2.57355,2.93031 0.50001,0.55122 0.96946,1.13006 1.46092,1.68919 1.12056,1.27481 2.25126,2.54076 3.36844,3.81847 1.16877,1.33669 2.32656,2.68292 3.52999,4.07212 0.35359,-0.38134 0.60804,-0.65571 0.86243,-0.93008 0.64157,1.9685 1.2831,3.937 1.93228,6.00671 z"
       id="path1085" />
    <path
       inkscape:connector-curvature="0"
       style="opacity:1;fill:#fdee91;stroke:none;stroke-width:0.26458332"
       d="m 90.093985,122.90136 c -2.062348,-0.57418 -4.135994,-1.23319 -6.203051,-1.91243 -0.488526,-0.16054 -0.942022,-0.51678 -1.433301,-0.56592 -3.643048,-0.3643 -7.200344,-1.41718 -10.927291,-1.15632 -3.199236,0.22393 -6.35508,0.58108 -9.338813,1.79716 -2.375535,0.9682 -4.615656,2.39072 -7.067734,3.01349 -2.274014,0.57754 -3.567774,2.47122 -5.607156,3.26583 -0.72382,0.28203 -1.31109,0.98338 -1.886056,1.56687 -2.889382,2.9322 -5.826574,5.82251 -8.600969,8.86089 -1.741144,1.90679 -3.224477,4.04895 -4.823804,6.08528 -0.525277,0.66885 -0.987372,0.64786 -1.450605,-0.17977 0.593143,-1.77156 1.258253,-3.49169 1.994482,-5.27131 -0.0087,0.44986 -0.116945,0.95682 -0.160655,1.46926 -0.04427,0.51903 -0.02487,1.0435 -0.03334,1.56557 0.389097,-0.29618 0.85008,-0.53268 1.15443,-0.89922 1.119902,-1.34867 2.08624,-2.83807 3.295465,-4.09667 2.943807,-3.06389 5.825622,-6.22322 9.054068,-8.96537 2.217976,-1.88392 4.960197,-3.15847 7.498661,-4.65345 1.048676,-0.61762 2.131748,-1.23892 3.27914,-1.61412 2.47351,-0.80888 4.963239,-1.85387 7.511177,-2.08382 3.959225,-0.35731 7.972637,-0.13818 11.962765,-0.11424 1.135009,0.007 2.354924,-0.0504 3.386878,0.32803 2.837868,1.04079 5.596705,2.29704 8.395707,3.56026 z"
       id="path1087" />
    <path
       inkscape:connector-curvature="0"
       style="opacity:1;fill:#fdee91;stroke:none;stroke-width:0.26458332"
       d="m 112.49287,141.65401 c -0.2503,0.37914 -0.50475,0.65351 -0.85834,1.03484 -1.20343,-1.38919 -2.36122,-2.73542 -3.52999,-4.07211 -1.11717,-1.27771 -2.24787,-2.54367 -3.36843,-3.81848 -0.49147,-0.55912 -0.96092,-1.13796 -1.46093,-1.68918 -0.84492,-0.93153 -1.70619,-1.84819 -2.56569,-2.86192 0.81272,0.50352 1.7209,1.00667 2.43094,1.70989 1.83123,1.81369 3.5783,3.71249 5.35159,5.58432 0.64807,0.68404 1.27527,1.38789 2.07616,2.26181 0.0739,-0.71375 0.12251,-1.18291 0.21876,-1.74039 0.5991,1.10327 1.15046,2.29485 1.70593,3.59122 z"
       id="path1089" />
    <path
       inkscape:connector-curvature="0"
       style="opacity:1;fill:#fef3af;stroke:none;stroke-width:0.26458332"
       d="m 103.93066,128.12433 c -0.70675,-0.60187 -1.44134,-1.2861 -2.18202,-2.06411 0.71395,0.59807 1.43407,1.28991 2.18202,2.06411 z"
       id="path1091" />
    <path
       inkscape:connector-curvature="0"
       style="opacity:1;fill:#fef3af;stroke:none;stroke-width:0.26458332"
       d="m 104.81672,129.01101 c -0.28662,-0.15192 -0.59272,-0.38181 -0.87833,-0.70758 0.29995,0.14596 0.57941,0.38779 0.87833,0.70758 z"
       id="path1093" />
    <path
       inkscape:connector-curvature="0"
       style="opacity:1;fill:#fef3af;stroke:none;stroke-width:0.26458332"
       d="m 101.39677,125.59516 c -0.0996,-0.002 -0.23124,-0.0713 -0.38428,-0.21442 0.10316,-1.5e-4 0.2277,0.0739 0.38428,0.21442 z"
       id="path1095" />
    <path
       inkscape:connector-curvature="0"
       style="opacity:1;fill:#4eec06;stroke:none;stroke-width:0.26458332"
       d="m 136.65756,168.37043 c 0.0411,-0.10713 0.0906,-0.11341 0.21484,-0.1247 0.33896,0.9789 0.60325,1.9628 0.86169,3.05482 -0.35991,-0.871 -0.71403,-1.85015 -1.07653,-2.93012 z"
       id="path1111" />
    <path
       inkscape:connector-curvature="0"
       style="opacity:1;fill:#ccfeb2;stroke:none;stroke-width:0.26458332"
       d="m 142.12824,133.0221 c 0.19074,0.93065 -0.1746,1.66171 -1.15504,2.12036 0.29398,-0.69148 0.6857,-1.38076 1.15504,-2.12036 z"
       id="path1113" />
    <path
       inkscape:connector-curvature="0"
       style="opacity:1;fill:#080808;stroke:none;stroke-width:0.26458332"
       d="m 74.758655,172.6808 c 0.122079,0.008 0.244131,0.0171 0.555652,-2.7e-4 3.06189,-1.08787 5.936482,-2.1441 8.805016,-3.21653 0.573087,-0.21423 1.10482,-0.56713 1.69119,-0.70619 0.304588,-0.0722 0.792162,0.0902 0.99732,0.32285 0.138959,0.15755 0.01111,0.66853 -0.143748,0.93691 -0.190579,0.33018 -0.488976,0.6485 -0.81751,0.84103 -3.754596,2.20014 -7.675165,3.88398 -12.126277,4.03733 -3.416644,0.1177 -6.603762,-0.76188 -9.730475,-1.99522 0,0 -0.01402,0.003 -0.05879,-0.0645 -1.133687,-0.62701 -2.245333,-1.14736 -3.301153,-1.76335 -0.473604,-0.27629 -0.895535,-0.69978 -1.222799,-1.14359 -0.164782,-0.22354 -0.199231,-0.73996 -0.04874,-0.9442 0.152929,-0.20756 0.631614,-0.31335 0.921782,-0.25081 0.502153,0.10825 0.971788,0.37424 1.449784,0.58593 0.994305,0.44029 1.985116,0.88834 2.977383,1.33321 0,0 0.0058,-0.0235 0.04979,0.0587 3.206723,1.53632 6.46213,2.50204 10.001567,1.96881 z"
       id="path1283" />
    <path
       inkscape:connector-curvature="0"
       style="opacity:1;fill:#779411;stroke:none;stroke-width:0.26458332"
       d="m 52.803664,158.72007 c -5.508625,-2.91571 -7.158726,-9.08417 -3.997272,-14.14127 3.255909,-5.20822 9.607019,-5.87384 14.2136,-2.51561 0.79039,0.57619 1.322705,1.50635 2.024407,2.40717 0.09197,0.18405 0.143483,0.22 0.204708,0.24204 0,0 0,-0.0199 0.0048,0.0571 0.09295,0.20285 0.180261,0.32876 0.267547,0.45466 0,0 -0.0053,-0.005 0.0063,0.0883 -0.0048,0.22001 -0.02117,0.34671 -0.130916,0.46911 -1.14546,-1.22414 -2.002287,-2.72673 -3.284908,-3.61352 -4.827825,-3.33788 -11.171924,-1.35859 -13.507454,4.04793 -1.959081,4.5351 -0.05286,9.73054 4.335913,11.84664 1.843563,0.88891 3.800288,0.97636 5.917801,0.90178 0.213096,0.0522 0.297921,0.0746 0.294746,0.15952 -2.144236,0.63301 -4.117788,0.18147 -6.079012,-0.42227 0,0 0,0.0177 -0.01852,-0.027 -0.09583,-0.0147 -0.173884,0.0154 -0.251936,0.0455 z"
       id="path1285" />
    <path
       inkscape:connector-curvature="0"
       style="opacity:1;fill:#c0f21b;stroke:none;stroke-width:0.26458332"
       d="m 64.004904,172.99518 c 3.111632,1.13877 6.29875,2.01836 9.715394,1.90066 4.451112,-0.15335 8.371681,-1.83719 12.126277,-4.03733 0.328534,-0.19253 0.626931,-0.51086 0.81751,-0.84104 0.154966,-0.26837 0.282707,-0.77936 0.143748,-0.93691 -0.205158,-0.23262 -0.692732,-0.39508 -0.99732,-0.32285 -0.58637,0.13906 -1.118103,0.49197 -1.69119,0.7062 -2.868534,1.07243 -5.743126,2.12866 -8.719397,3.18123 0.803883,-0.33861 1.729449,-0.62621 2.615882,-1.00525 2.371752,-1.01422 4.700297,-2.1366 7.105968,-3.05975 0.645213,-0.24759 1.986862,-0.18598 2.171515,0.1691 0.457279,0.87939 0.361077,1.92675 -0.820076,2.54458 -3.468926,1.81442 -6.966241,3.3887 -10.94621,3.90217 -2.919042,0.37659 -5.667375,-0.20598 -8.451426,-0.65925 -1.068732,-0.17402 -2.039964,-0.94697 -3.070675,-1.54156 z"
       id="path1287" />
    <path
       inkscape:connector-curvature="0"
       style="opacity:1;fill:#779411;stroke:none;stroke-width:0.26458332"
       d="m 81.886848,156.15356 c -3.163808,-3.45711 -2.878005,-7.99818 -1.073838,-10.97985 2.79064,-4.61189 6.516158,-5.9924 11.3461,-4.51602 -0.04762,0.17157 -0.109511,0.24223 -0.280431,0.30917 -3.472842,-0.92997 -6.471365,-0.28288 -8.923444,2.23752 -3.205559,3.29484 -3.706098,7.07375 -1.768845,11.29523 0.102129,0.18994 0.21373,0.29198 0.295513,0.4043 -0.02987,0.0103 0.0332,0.007 0.02381,0.0786 0.06424,0.12071 0.137901,0.16997 0.273341,0.25153 0.103162,0.11431 0.144569,0.19633 0.171715,0.3848 -0.0308,0.24922 -0.04736,0.392 -0.06395,0.53477 z"
       id="path1289" />
    <path
       inkscape:connector-curvature="0"
       style="opacity:1;fill:#c0f21b;stroke:none;stroke-width:0.26458332"
       d="m 64.67422,170.56694 c -0.959194,-0.35847 -1.950005,-0.80652 -2.94431,-1.24681 -0.477996,-0.21169 -0.947631,-0.47768 -1.449784,-0.58593 -0.290168,-0.0625 -0.768853,0.0433 -0.921782,0.25081 -0.150495,0.20423 -0.116046,0.72066 0.04874,0.9442 0.327264,0.44381 0.749195,0.8673 1.222799,1.14359 1.05582,0.61599 2.167466,1.13634 3.303614,1.7701 -2.023639,-0.13271 -3.747373,-1.02969 -4.966706,-2.70526 -0.240506,-0.33047 -0.158988,-1.2155 0.123667,-1.51719 0.287655,-0.30706 1.104556,-0.43148 1.519396,-0.24889 1.384882,0.60954 2.693485,1.39249 4.06437,2.19538 z"
       id="path1291" />
    <path
       inkscape:connector-curvature="0"
       style="opacity:1;fill:#d2f65e;stroke:none;stroke-width:0.26458332"
       d="m 65.490222,145.78584 c 0.0164,-0.12669 0.03305,-0.25339 0.03776,-0.47706 0.247967,0.22235 0.587613,0.50483 0.75475,0.86692 1.176576,2.54922 0.772795,5.19153 0.126524,7.7356 -0.232622,0.91566 -1.322308,1.61357 -2.118148,2.42182 -0.09731,0.011 -0.102976,0.006 -0.06485,-0.0763 0.09491,-0.2978 0.151765,-0.51284 0.216773,-0.72082 0.0082,0.007 -0.0093,-0.005 0.07848,0.0149 0.117925,-0.0837 0.148061,-0.1873 0.185658,-0.28232 0.0074,0.009 -0.01349,-7.9e-4 0.08319,-0.0104 0.121973,-0.18017 0.147346,-0.35072 0.181398,-0.51529 0.0087,0.006 -0.0085,-0.008 0.07924,0.0272 0.118163,-0.0789 0.148669,-0.19242 0.185526,-0.29698 0.0063,0.009 -0.01429,0.002 0.08133,-0.0147 0.493474,-1.47675 1.18819,-2.93388 1.204515,-4.39856 0.01588,-1.42924 -0.661299,-2.8662 -1.026504,-4.29394 0.0077,0.006 -0.0056,0.0198 -0.0056,0.0198 z"
       id="path1293" />
    <path
       inkscape:connector-curvature="0"
       style="opacity:1;fill:#d2f65e;stroke:none;stroke-width:0.26458332"
       d="m 98.078289,145.73036 c 0.769012,0.66377 1.473677,1.29929 1.310349,2.51784 -0.144118,1.0755 0.08845,2.20643 -0.0935,3.27043 -0.158168,0.92481 -0.663575,1.79024 -1.134216,2.68883 -0.118692,0.007 -0.177377,-0.0402 -0.151606,-0.13758 1.157155,-2.83454 1.187529,-5.57463 0.05265,-8.32355 0.005,-0.006 0.0164,-0.016 0.0164,-0.016 z"
       id="path1295" />
    <path
       inkscape:connector-curvature="0"
       style="opacity:1;fill:#7a6038;stroke:none;stroke-width:0.26458332"
       d="m 81.934208,156.22457 c -0.03077,-0.21378 -0.01429,-0.35656 0.08784,-0.55889 1.521936,1.64939 3.30536,2.92345 5.530665,3.09144 1.795647,0.13552 3.628443,-0.22207 5.438378,-0.25776 -2.533095,1.30168 -5.078439,0.93644 -7.628255,0.19384 0,0 -0.0079,0.0189 -0.04247,-0.0522 -0.189812,-0.11447 -0.344911,-0.15778 -0.500036,-0.20107 0,0 0.0032,0.0162 -0.02011,-0.0543 -0.161846,-0.10838 -0.300408,-0.14618 -0.438918,-0.18399 -0.793273,-0.63534 -1.586547,-1.27069 -2.427181,-1.97704 z"
       id="path1297" />
    <path
       inkscape:connector-curvature="0"
       style="opacity:1;fill:#d2f65e;stroke:none;stroke-width:0.26458332"
       d="m 85.379903,158.78988 c 2.532751,0.64592 5.078095,1.01116 7.618995,-0.28202 0.01402,-0.0946 0.01191,-0.0713 0.10414,-0.0403 0.384942,-0.1675 0.67773,-0.36592 0.960728,-0.5584 -0.0098,0.006 -0.02646,-0.01 0.04601,0.036 0.185367,0.0431 0.298291,0.0404 0.411188,0.0376 -0.627194,0.47331 -1.188111,1.17057 -1.89357,1.37928 -2.439167,0.72158 -4.885928,0.67384 -7.247493,-0.57212 z"
       id="path1299" />
    <path
       inkscape:connector-curvature="0"
       style="opacity:1;fill:#d2f65e;stroke:none;stroke-width:0.26458332"
       d="m 53.08571,158.80574 c 1.949635,0.49963 3.923187,0.95117 6.165848,0.31022 0.868416,-0.29025 1.550432,-0.51014 2.256446,-0.7018 0.02381,0.0282 0.07191,0.0847 0.07191,0.0847 -0.886433,0.3968 -1.755272,1.07431 -2.663031,1.13125 -1.81946,0.11414 -3.660854,-0.10148 -5.490817,-0.21787 -0.119724,-0.008 -0.219631,-0.32767 -0.34036,-0.60652 z"
       id="path1301" />
    <path
       inkscape:connector-curvature="0"
       style="opacity:1;fill:#c0f21b;stroke:none;stroke-width:0.26458332"
       d="m 74.67256,172.61575 c -3.453342,0.59828 -6.708749,-0.36744 -9.92587,-1.89756 0.858996,0.1726 1.795198,0.35841 2.681128,0.68184 2.317565,0.84609 4.711065,1.14996 7.244742,1.21572 z"
       id="path1303" />
    <path
       inkscape:connector-curvature="0"
       style="opacity:1;fill:#7a6038;stroke:none;stroke-width:0.26458332"
       d="m 91.987687,140.97059 c 0.06191,-0.0707 0.123798,-0.14133 0.24847,-0.24752 1.975406,0.43137 3.555709,1.37309 4.666059,3.26951 0.07398,0.26857 0.05382,0.38827 -0.05956,0.5084 -1.324584,-1.65645 -2.823634,-2.95237 -4.854972,-3.53039 z"
       id="path1305" />
    <path
       inkscape:connector-curvature="0"
       style="opacity:1;fill:#7a6038;stroke:none;stroke-width:0.26458332"
       d="m 94.612565,157.94319 c -0.204496,0.0423 -0.31742,0.0451 -0.503184,-0.0929 0.899609,-0.96933 1.872059,-1.79793 2.886022,-2.54198 -0.04768,0.37054 -0.136843,0.65654 -0.226034,0.94253 -0.688393,0.55094 -1.376786,1.10187 -2.156804,1.69234 z"
       id="path1307" />
    <path
       inkscape:connector-curvature="0"
       style="opacity:1;fill:#d2f65e;stroke:none;stroke-width:0.26458332"
       d="m 64.196594,156.34675 c -0.03088,1.60016 -1.595067,1.44398 -2.522749,2.13847 -0.09393,0.0137 -0.141922,-0.0428 -0.119089,-0.13162 0.09422,-0.20921 0.165577,-0.32961 0.243523,-0.43957 0.0066,0.0105 -0.01138,-0.006 0.079,0.0185 0.297445,-0.16931 0.504376,-0.36351 0.715513,-0.54813 0.0042,0.01 -0.01349,-0.002 0.07342,0.008 0.119803,-0.0865 0.152585,-0.18221 0.190923,-0.26949 0.0056,0.008 -0.01058,-0.004 0.08287,0.0186 0.121576,-0.082 0.149622,-0.18638 0.182986,-0.28301 0.0053,0.008 -0.0098,-0.003 0.08784,0.0344 0.211667,-0.16441 0.325649,-0.36664 0.443151,-0.56208 0.0034,0.007 -0.0085,-0.003 0.06977,0.0619 0.206957,0.0254 0.335676,-0.0138 0.46437,-0.0529 0,0 0.0056,0.005 0.0085,0.007 z"
       id="path1309" />
    <path
       inkscape:connector-curvature="0"
       style="opacity:1;fill:#d2f65e;stroke:none;stroke-width:0.26458332"
       d="m 96.852686,156.25061 c 0.0058,-0.28575 0.09504,-0.57175 0.152877,-0.93464 -0.03135,-0.0769 -0.03522,-0.0517 0.06551,-0.0521 0.124221,-0.17538 0.147664,-0.35042 0.179096,-0.52179 0.0079,0.004 -0.004,-0.009 0.0713,0.0456 0.270881,-0.1702 0.466487,-0.39533 0.662067,-0.62046 0,-2e-5 0.05868,0.0471 0.08819,0.0711 -0.35896,0.68665 -0.747369,1.34932 -1.219042,2.01223 z"
       id="path1311" />
    <path
       inkscape:connector-curvature="0"
       style="opacity:1;fill:#d2f65e;stroke:none;stroke-width:0.26458332"
       d="m 97.513404,144.70267 c 0.183012,0.27858 0.366051,0.55717 0.556974,0.93172 0.0079,0.096 -0.0034,0.10622 -0.07062,0.0607 -0.212011,-0.18274 -0.356817,-0.32 -0.489717,-0.46215 0.01191,-0.005 -0.0063,0.0134 0.01799,-0.0736 0.0071,-0.20609 -0.01005,-0.3252 -0.02381,-0.4472 0.0034,-0.003 0.0093,-0.01 0.0093,-0.01 z"
       id="path1313" />
    <path
       inkscape:connector-curvature="0"
       style="opacity:1;fill:#d2f65e;stroke:none;stroke-width:0.26458332"
       d="m 96.935871,144.50054 c 0.02011,-0.11969 0.04032,-0.23939 0.03596,-0.45064 0.07633,0.0109 0.177245,0.11324 0.285724,0.29651 0.0077,0.0809 0.0032,0.0836 -0.07162,0.0718 -0.122581,0.005 -0.170312,0.021 -0.220848,0.0523 -0.0029,0.0149 -0.02921,0.03 -0.02921,0.03 z"
       id="path1315" />
    <path
       inkscape:connector-curvature="0"
       style="opacity:1;fill:#d2f65e;stroke:none;stroke-width:0.26458332"
       d="m 84.38933,158.27082 c 0.110569,-0.0314 0.249131,0.006 0.418835,0.11217 -0.109537,0.031 -0.250216,-0.006 -0.418835,-0.11217 z"
       id="path1317" />
    <path
       inkscape:connector-curvature="0"
       style="opacity:1;fill:#d2f65e;stroke:none;stroke-width:0.26458332"
       d="m 65.515225,145.14183 c -0.08104,-0.0436 -0.168355,-0.16953 -0.271251,-0.37276 0.07789,0.0453 0.17145,0.16788 0.271251,0.37276 z"
       id="path1319" />
    <path
       inkscape:connector-curvature="0"
       style="opacity:1;fill:#d2f65e;stroke:none;stroke-width:0.26458332"
       d="m 84.860711,158.51327 c 0.11475,-0.0301 0.269849,0.0133 0.469477,0.12484 -0.113374,0.0284 -0.271277,-0.0116 -0.469477,-0.12484 z"
       id="path1321" />
    <path
       inkscape:connector-curvature="0"
       style="opacity:1;fill:#d2f65e;stroke:none;stroke-width:0.26458332"
       d="m 65.22929,144.6697 c -0.04141,0.0207 -0.09292,-0.0153 -0.148643,-0.10955 0.05149,-0.0302 0.09903,0.007 0.148643,0.10955 z"
       id="path1323" />
    <path
       inkscape:connector-curvature="0"
       style="opacity:1;fill:#d2f65e;stroke:none;stroke-width:0.26458332"
       d="m 52.875525,158.71443 c 0.0061,-0.0244 0.08424,-0.0545 0.188965,-0.0399 -0.02117,0.0412 -0.06919,0.0377 -0.188965,0.0399 z"
       id="path1325" />
    <path
       inkscape:connector-curvature="0"
       style="opacity:1;fill:#d2f65e;stroke:none;stroke-width:0.26458332"
       d="m 97.267659,144.42551 c 0.08998,0.024 0.157665,0.0757 0.22561,0.21525 0.02011,0.0619 0.01429,0.0685 -0.04773,0.0427 -0.123481,-0.0906 -0.164438,-0.16651 -0.184811,-0.25351 0,0 0.0045,-0.003 0.0069,-0.004 z"
       id="path1327" />
    <path
       inkscape:connector-curvature="0"
       style="opacity:1;fill:#fdee91;stroke:none;stroke-width:0.26458332"
       d="m 100.67806,129.78908 c -1.396763,-0.9021 -2.794927,-1.89731 -4.203966,-2.9809 0.242094,-0.048 0.561869,-0.0921 0.73742,0.0464 1.172237,0.92534 2.313702,1.88968 3.466546,2.93447 z"
       id="path1329" />
    <path
       inkscape:connector-curvature="0"
       style="opacity:1;fill:#fdee91;stroke:none;stroke-width:0.26458332"
       d="m 93.2797,124.73965 c -0.866934,-0.45111 -1.740561,-0.99567 -2.625804,-1.62929 1.277699,-0.2151 2.185882,0.27593 2.625804,1.62929 z"
       id="path1331" />
    <path
       inkscape:connector-curvature="0"
       style="opacity:1;fill:#fdee91;stroke:none;stroke-width:0.26458332"
       d="m 96.447265,126.61354 c -0.427804,-0.19252 -0.858731,-0.47946 -1.295638,-0.85887 0.426826,0.19316 0.859684,0.47881 1.295638,0.85887 z"
       id="path1333" />
    <path
       inkscape:connector-curvature="0"
       style="opacity:1;fill:#fdee91;stroke:none;stroke-width:0.26458332"
       d="m 94.858231,125.5502 c -0.334037,-0.1101 -0.67519,-0.30903 -1.024626,-0.59634 0.333666,0.11026 0.675535,0.30888 1.024626,0.59634 z"
       id="path1335" />
    <path
       inkscape:connector-curvature="0"
       style="opacity:1;fill:#fafaf8;stroke:none;stroke-width:0.26458332"
       d="m 58.730144,158.93472 c -1.98927,0.10424 -3.945995,0.0168 -5.789558,-0.87212 -4.388776,-2.1161 -6.294993,-7.31154 -4.335913,-11.84664 2.33553,-5.40652 8.679629,-7.38581 13.507455,-4.04793 1.28262,0.88679 2.139447,2.38938 3.284907,3.61352 0.09319,0.004 0.106522,-0.01 0.06279,0.0887 0.646933,1.9317 1.001818,3.80833 0.560599,5.75426 -0.217884,0.96103 -0.529246,1.90087 -0.798301,2.85029 0,0 0.02064,0.007 -0.07165,-0.0302 -0.123878,0.072 -0.155495,0.18141 -0.187087,0.29085 0,0 0.01693,0.0134 -0.07474,0.0366 -0.126127,0.18073 -0.160523,0.33826 -0.194919,0.49581 2.6e-5,0 0.0209,0.009 -0.07054,-0.0183 -0.124142,0.0753 -0.156845,0.17832 -0.189494,0.2813 0,0 0.01746,0.0121 -0.07564,0.0103 -0.29964,0.261 -0.506095,0.52385 -0.712549,0.78671 0,0 0.01191,0.009 -0.06676,0.0284 -0.207671,0.17882 -0.336603,0.33867 -0.465587,0.49853 0,0 0.01508,0.0112 -0.06884,0.006 -0.12192,0.0826 -0.159835,0.17024 -0.19775,0.2579 0,0 0.01614,0.0122 -0.07461,0.004 -0.12483,0.0812 -0.158776,0.17052 -0.192722,0.2598 0,0 0.01773,0.0112 -0.07726,-0.0274 -0.301758,0.15834 -0.508477,0.35528 -0.715169,0.55221 0,0 0.01799,0.0169 -0.08633,-0.026 -1.059735,0.32245 -2.01504,0.68775 -2.970318,1.05305 m -6.145396,-8.19391 c 0.134858,0.37056 0.235188,0.75839 0.410289,1.10884 1.058571,2.11813 3.330732,3.03967 5.540427,2.26478 2.126747,-0.74577 3.300253,-2.95798 2.784686,-5.24946 -1.568397,1.10528 -2.71526,1.1932 -3.591904,0.27534 -0.935725,-0.97974 -0.770652,-2.02633 0.557689,-3.53559 -3.426485,-0.8257 -5.935106,1.32248 -5.701187,5.13609 z"
       id="path1465" />
    <path
       inkscape:connector-curvature="0"
       style="opacity:1;fill:#7a6038;stroke:none;stroke-width:0.26458332"
       d="m 58.858388,158.96438 c 0.827034,-0.39497 1.782339,-0.76027 2.83546,-1.09319 0.02648,0.1528 -0.04487,0.2732 -0.16301,0.45417 -0.728848,0.28046 -1.410864,0.50035 -2.191306,0.7282 -0.183224,-0.0145 -0.268049,-0.037 -0.481144,-0.0892 z"
       id="path1467" />
    <path
       inkscape:connector-curvature="0"
       style="opacity:1;fill:#fafaf8;stroke:none;stroke-width:0.26458332"
       d="m 96.96405,155.23141 c -0.98261,0.82096 -1.95506,1.64956 -2.927086,2.57299 0,0.0948 0.01693,0.11068 -0.06345,0.0612 -0.374491,0.15734 -0.668549,0.36414 -0.962607,0.57094 0,0 0.0026,-0.0233 -0.0056,-0.0318 -1.824117,0.13032 -3.656912,0.48791 -5.45256,0.35239 -2.225305,-0.16799 -4.008729,-1.44205 -5.516457,-3.19789 -0.112606,-0.12891 -0.154014,-0.21093 -0.270457,-0.38583 -0.105727,-0.17823 -0.164253,-0.23474 -0.250692,-0.26242 0,0 -0.06308,0.003 -0.05691,-0.0781 -0.08334,-0.19457 -0.172826,-0.30789 -0.262282,-0.42122 -1.946778,-4.13357 -1.446239,-7.91247 1.759321,-11.20731 2.452079,-2.5204 5.450601,-3.16749 8.923443,-2.23753 2.140347,0.58175 3.639397,1.87767 4.96398,3.53412 0.09321,-5.3e-4 0.119592,-0.0156 0.06919,0.0573 0.163644,0.27793 0.377772,0.48297 0.591899,0.68801 0,0 0.01826,-0.0182 -0.05384,0.0786 0.254874,1.13209 0.6672,2.14923 0.891064,3.20628 0.464794,2.19525 -0.310621,4.20723 -1.09474,6.20158 0,0 0.01191,0.0129 -0.08697,0.0309 -0.128879,0.17881 -0.158883,0.33967 -0.188913,0.50053 0,0 0.004,-0.0252 -0.0063,-0.0328 m -6.664755,-6.11865 c -1.060212,-1.24467 -0.570283,-2.39645 0.307737,-3.51127 -2.516188,-0.50915 -4.268417,0.23519 -5.327386,2.20279 -0.917231,1.70409 -0.567425,3.85633 0.868865,5.34576 1.247802,1.29398 3.533087,1.59931 5.269442,0.70401 1.615175,-0.83283 2.548599,-2.77958 2.190671,-4.63694 -1.045316,0.67469 -2.099998,0.89136 -3.309329,-0.10435 z"
       id="path1469" />
    <path
       inkscape:connector-curvature="0"
       style="opacity:1;fill:#7a6038;stroke:none;stroke-width:0.26458332"
       d="m 81.18639,154.49961 c 0.09898,0.0254 0.188463,0.13873 0.301651,0.32304 -0.08792,-0.0311 -0.199522,-0.1331 -0.301651,-0.32304 z"
       id="path1471" />
    <path
       inkscape:connector-curvature="0"
       style="opacity:1;fill:#7a6038;stroke:none;stroke-width:0.26458332"
       d="m 81.505742,154.98246 c 0.09581,-0.0438 0.154331,0.0127 0.198252,0.15865 -0.06035,0.0113 -0.134011,-0.0379 -0.198252,-0.15865 z"
       id="path1473" />
    <path
       inkscape:connector-curvature="0"
       style="opacity:1;fill:#7a6038;stroke:none;stroke-width:0.26458332"
       d="m 65.317846,154.45849 c 0.173328,-0.93307 0.48469,-1.87291 0.702574,-2.83394 0.441219,-1.94593 0.08633,-3.82257 -0.568272,-5.7601 0.408914,1.32929 1.086141,2.76625 1.070213,4.19549 -0.0164,1.46468 -0.711041,2.9218 -1.204515,4.39855 z"
       id="path1475" />
    <path
       inkscape:connector-curvature="0"
       style="opacity:1;fill:#7a6038;stroke:none;stroke-width:0.26458332"
       d="m 63.723758,156.39248 c 0.12819,-0.3274 0.334645,-0.59026 0.62611,-0.85834 0.02815,0.20982 -0.02871,0.42486 -0.123614,0.72266 -0.16682,0.12192 -0.295539,0.16107 -0.502496,0.13568 z"
       id="path1477" />
    <path
       inkscape:connector-curvature="0"
       style="opacity:1;fill:#7a6038;stroke:none;stroke-width:0.26458332"
       d="m 64.790319,155.25825 c -0.0622,-0.14789 -0.02781,-0.30542 0.08967,-0.49211 0.0577,0.14139 0.03233,0.31194 -0.08967,0.49211 z"
       id="path1479" />
    <path
       inkscape:connector-curvature="0"
       style="opacity:1;fill:#7a6038;stroke:none;stroke-width:0.26458332"
       d="m 65.050987,154.77013 c -0.05601,-0.14408 -0.02434,-0.25352 0.09319,-0.33446 0.05548,0.14205 0.02487,0.25558 -0.09319,0.33446 z"
       id="path1481" />
    <path
       inkscape:connector-curvature="0"
       style="opacity:1;fill:#7a6038;stroke:none;stroke-width:0.26458332"
       d="m 64.521503,155.55093 c -0.05517,-0.12297 -0.02249,-0.22594 0.09419,-0.30993 0.05387,0.12264 0.02381,0.22628 -0.09419,0.30993 z"
       id="path1483" />
    <path
       inkscape:connector-curvature="0"
       style="opacity:1;fill:#7a6038;stroke:none;stroke-width:0.26458332"
       d="m 97.321475,154.78775 c 0.708872,-2.0493 1.484286,-4.06128 1.019493,-6.25653 -0.223864,-1.05705 -0.636191,-2.07419 -0.902997,-3.20139 0.204973,0.0453 0.349779,0.18253 0.556789,0.371 1.202082,2.79442 1.171708,5.53451 0.01455,8.36907 -0.221351,0.32253 -0.416957,0.54766 -0.687838,0.71785 z"
       id="path1485" />
    <path
       inkscape:connector-curvature="0"
       style="opacity:1;fill:#7a6038;stroke:none;stroke-width:0.26458332"
       d="m 93.103038,158.46752 c 0.20193,-0.23776 0.495988,-0.44456 0.880295,-0.60788 -0.202565,0.24196 -0.495353,0.44038 -0.880295,0.60788 z"
       id="path1487" />
    <path
       inkscape:connector-curvature="0"
       style="opacity:1;fill:#7a6038;stroke:none;stroke-width:0.26458332"
       d="m 61.877283,157.93254 c 0.116205,-0.22186 0.322924,-0.41879 0.620448,-0.58673 -0.116072,0.22322 -0.323003,0.41742 -0.620448,0.58673 z"
       id="path1489" />
    <path
       inkscape:connector-curvature="0"
       style="opacity:1;fill:#7a6038;stroke:none;stroke-width:0.26458332"
       d="m 63.210836,156.89264 c 0.0313,-0.19766 0.160232,-0.35751 0.364411,-0.54311 -0.03876,0.17647 -0.152744,0.3787 -0.364411,0.54311 z"
       id="path1491" />
    <path
       inkscape:connector-curvature="0"
       style="opacity:1;fill:#7a6038;stroke:none;stroke-width:0.26458332"
       d="m 62.940009,157.14126 c -0.05554,-0.11007 -0.01773,-0.19773 0.09898,-0.28808 0.05064,0.1017 0.02249,0.20609 -0.09898,0.28808 z"
       id="path1493" />
    <path
       inkscape:connector-curvature="0"
       style="opacity:1;fill:#7a6038;stroke:none;stroke-width:0.26458332"
       d="m 62.666218,157.39213 c -0.05305,-0.0986 -0.01905,-0.18786 0.100092,-0.27753 0.05249,0.0953 0.01958,0.19107 -0.100092,0.27753 z"
       id="path1495" />
    <path
       inkscape:connector-curvature="0"
       style="opacity:1;fill:#7a6038;stroke:none;stroke-width:0.26458332"
       d="m 97.071074,155.26389 c -0.0707,-0.16051 -0.04069,-0.32137 0.08022,-0.50383 0.06744,0.15341 0.044,0.32845 -0.08022,0.50383 z"
       id="path1497" />
    <path
       inkscape:connector-curvature="0"
       style="opacity:1;fill:#7a6038;stroke:none;stroke-width:0.26458332"
       d="m 97.528009,145.15933 c -0.23839,-0.11806 -0.452517,-0.3231 -0.613384,-0.61595 0.100992,-0.10417 0.148723,-0.12053 0.271304,-0.12517 0.09517,0.0988 0.136128,0.17467 0.25617,0.26816 0.07578,0.14776 0.09297,0.26687 0.08591,0.47296 z"
       id="path1499" />
    <path
       inkscape:connector-curvature="0"
       style="opacity:1;fill:#080808;stroke:none;stroke-width:0.26458332"
       d="m 52.565751,150.63006 c -0.214922,-3.70287 2.293699,-5.85104 5.720184,-5.02534 -1.328341,1.50926 -1.493414,2.55584 -0.557689,3.53559 0.876644,0.91785 2.023507,0.82994 3.591904,-0.27534 0.515567,2.29148 -0.657939,4.50369 -2.784686,5.24945 -2.209695,0.77489 -4.481856,-0.14664 -5.540427,-2.26477 -0.175101,-0.35045 -0.275431,-0.73828 -0.429286,-1.21959 z"
       id="path1549" />
    <path
       inkscape:connector-curvature="0"
       style="opacity:1;fill:#080808;stroke:none;stroke-width:0.26458332"
       d="m 90.376586,149.1893 c 1.132046,0.91917 2.186728,0.7025 3.232044,0.0278 0.357929,1.85736 -0.575495,3.80412 -2.19067,4.63694 -1.736355,0.8953 -4.021641,0.58997 -5.269442,-0.704 -1.436291,-1.48944 -1.786096,-3.64168 -0.868865,-5.34577 1.058968,-1.9676 2.811198,-2.71194 5.327385,-2.20279 -0.87802,1.11482 -1.367949,2.2666 -0.230452,3.58782 z"
       id="path1551" />
  </g>
</svg>
