<?xml version="1.0" encoding="UTF-8" standalone="no"?>
<!-- Created with Inkscape (http://www.inkscape.org/) -->

<svg
   xmlns:dc="http://purl.org/dc/elements/1.1/"
   xmlns:cc="http://creativecommons.org/ns#"
   xmlns:rdf="http://www.w3.org/1999/02/22-rdf-syntax-ns#"
   xmlns:svg="http://www.w3.org/2000/svg"
   xmlns="http://www.w3.org/2000/svg"
   xmlns:sodipodi="http://sodipodi.sourceforge.net/DTD/sodipodi-0.dtd"
   xmlns:inkscape="http://www.inkscape.org/namespaces/inkscape"
   width="210mm"
   height="297mm"
   viewBox="0 0 210 297"
   version="1.1"
   id="svg2266"
   inkscape:version="0.92.4 (5da689c313, 2019-01-14)"
   sodipodi:docname="ratings_low.svg">
  <defs
     id="defs2260" />
  <sodipodi:namedview
     id="base"
     pagecolor="#ffffff"
     bordercolor="#666666"
     borderopacity="1.0"
     inkscape:pageopacity="0.0"
     inkscape:pageshadow="2"
     inkscape:zoom="0.35"
     inkscape:cx="-224.28571"
     inkscape:cy="560"
     inkscape:document-units="mm"
     inkscape:current-layer="layer1"
     showgrid="false"
     inkscape:window-width="2560"
     inkscape:window-height="1377"
     inkscape:window-x="-8"
     inkscape:window-y="1072"
     inkscape:window-maximized="1" />
  <metadata
     id="metadata2263">
    <rdf:RDF>
      <cc:Work
         rdf:about="">
        <dc:format>image/svg+xml</dc:format>
        <dc:type
           rdf:resource="http://purl.org/dc/dcmitype/StillImage" />
        <dc:title></dc:title>
      </cc:Work>
    </rdf:RDF>
  </metadata>
  <g
     inkscape:label="Ebene 1"
     inkscape:groupmode="layer"
     id="layer1">
    <path
       inkscape:connector-curvature="0"
       style="opacity:1;fill:#f59a15;stroke:none;stroke-width:0.26458332"
       d="m 90.779583,169.24581 c -3.667395,0.20118 -7.241902,0.72575 -10.771095,0.50982 -5.509807,-0.33709 -10.779641,-1.8535 -15.847354,-4.16925 -7.17437,-3.27839 -12.972875,-8.22836 -17.352526,-14.6324 -8.083034,-11.8192 -10.175883,-24.73303 -5.995516,-38.54508 3.118574,-10.30382 9.36285,-18.323343 18.31576,-24.089344 3.436077,-2.212954 7.378682,-3.760018 11.258193,-5.138534 7.85976,-2.792844 15.909721,-2.839394 23.917177,-0.568828 9.911108,2.810349 18.147648,8.16687 24.392758,16.45846 2.61474,3.471526 4.60833,7.291416 6.16941,11.309466 0.86833,2.23492 1.30175,4.64486 1.86027,6.9928 1.04219,4.3812 1.0891,8.85935 0.45146,13.25052 -0.54582,3.75865 -1.53539,7.49893 -2.75868,11.10129 -1.47553,4.3451 -3.83694,8.32356 -6.83457,11.79819 -4.12461,4.78095 -8.79368,8.90149 -14.62321,11.66052 -3.892144,1.84212 -7.934501,3.03622 -12.182077,4.06237 M 49.449854,99.548822 c -0.07509,0.04789 -0.10055,0.114689 -0.208675,0.32452 -0.260934,0.393548 -0.521861,0.787088 -0.936548,1.268988 -0.552775,0.86303 -1.105543,1.72605 -1.8063,2.68021 -0.07536,0.21813 -0.150717,0.43625 -0.364109,0.75674 -0.295008,0.64429 -0.590015,1.28859 -1.039778,2.00729 -0.09829,0.19069 -0.196572,0.3814 -0.403439,0.72068 -0.249502,0.56388 -0.49901,1.12776 -0.883209,1.81708 -0.467203,1.54918 -0.934405,3.09837 -1.56325,4.7573 -0.295638,1.19824 -0.591275,2.39647 -1.043088,3.73177 -0.49784,3.29516 -0.948926,6.58653 -0.403604,9.93074 0.32779,2.01023 0.511686,4.04392 0.838629,6.05431 0.207827,1.27793 0.450223,2.57036 0.872855,3.78839 0.59314,1.70942 1.339445,3.36853 2.075923,5.02437 0.463384,1.04183 0.946254,2.09228 1.568024,3.04221 0.876692,1.33937 1.891536,2.58819 2.840572,3.88067 0.0455,0.062 -0.0056,0.19779 0.04169,0.25509 1.061238,1.28529 2.12961,2.56468 3.199691,3.84262 0.02336,0.0279 0.08965,0.0156 0.123772,0.0394 0.568965,0.39736 1.192863,0.73771 1.69032,1.21085 0.77615,0.73816 1.362442,1.71139 2.21629,2.32442 1.411171,1.01316 2.943505,1.87094 4.479298,2.69226 0.931079,0.49793 1.971778,0.78766 2.947688,1.2071 0.271381,0.11661 0.487307,0.36226 0.875996,0.66255 -0.534609,0.27414 -0.841954,0.43174 -1.1493,0.58934 2.384931,-0.13444 4.367417,0.73728 6.244564,1.99374 0.230235,0.15414 0.591259,0.11718 0.892969,0.15958 1.944341,0.27337 3.889507,0.54096 5.832766,0.82179 0.165899,0.024 0.362575,0.0903 0.472324,0.20586 0.723712,0.76222 1.561806,0.47641 2.450658,0.42506 1.37976,-0.0797 2.878505,-0.19014 4.129833,0.26001 0.995273,0.35804 1.754466,0.39814 2.596145,-0.0209 2.303799,-1.14699 4.647099,-1.41388 7.088584,-0.48202 0.172197,0.0657 0.432322,0.0159 0.610476,-0.0678 1.051277,-0.4935 2.104975,-0.98567 3.128267,-1.53352 0.646115,-0.34589 1.208535,-0.85368 1.864259,-1.17504 2.256243,-1.10581 4.745703,-1.87477 6.742163,-3.32748 1.58548,-1.15366 2.78482,-2.73962 4.87789,-3.21923 0.67445,-0.15455 1.20169,-1.05476 1.7427,-1.66161 0.64285,-0.72111 1.23372,-1.48912 1.83637,-2.24537 0.51237,-0.64295 0.98487,-1.31909 1.51801,-1.94384 1.47777,-1.73163 2.99676,-3.42849 4.45343,-5.17742 0.29008,-0.34828 0.36603,-0.8711 0.55723,-1.30618 0.97358,-2.21532 2.03191,-4.39765 2.9012,-6.65299 0.55947,-1.45155 0.89687,-2.99762 1.22894,-4.52412 0.16175,-0.7435 0.0369,-1.54456 0.12465,-2.31007 0.13222,-1.15351 0.43417,-2.29414 0.48869,-3.44851 0.0851,-1.8033 0.042,-3.61381 0.0132,-5.42063 -0.009,-0.55106 -0.14903,-1.10003 -0.24495,-1.86963 -0.0117,-0.36736 -0.0234,-0.7347 -0.0237,-1.31959 -0.62206,-2.49678 -1.23105,-4.99698 -1.8838,-7.48571 -0.0757,-0.28878 -0.39418,-0.5139 -0.62091,-0.96967 -0.0343,-0.19892 -0.0685,-0.39785 -0.0988,-0.7588 -0.0796,-0.13405 -0.15913,-0.26811 -0.34195,-0.56064 -0.51113,-1.10381 -0.93641,-2.25846 -1.55324,-3.29965 -0.95801,-1.61715 -2.04638,-3.15707 -3.12991,-4.89963 -0.28569,-0.374543 -0.57138,-0.749074 -0.90212,-1.287059 -0.40259,-0.410255 -0.8052,-0.820507 -1.22081,-1.335487 0,0 -0.0602,-0.08669 -0.0965,-0.249719 -0.32244,-0.3091 -0.64489,-0.618197 -1.02928,-1.070332 -0.15659,-0.132689 -0.31319,-0.265383 -0.54265,-0.541997 -0.28252,-0.225327 -0.56503,-0.450659 -0.92825,-0.841658 -0.20117,-0.232598 -0.38191,-0.487373 -0.60649,-0.694595 -7.31083,-6.745518 -15.986556,-10.420527 -25.851345,-11.187091 -7.926422,-0.615934 -15.458294,1.011623 -22.542101,4.645146 -3.529708,1.810499 -6.763943,4.037172 -9.724221,6.929682 -0.03972,0.09873 -0.07945,0.197474 -0.256241,0.396745 -0.738811,0.750041 -1.477623,1.500084 -2.381379,2.297671 -0.144558,0.23168 -0.289113,0.463359 -0.390094,0.767524 0,0 -0.03824,-0.07509 -0.205494,-0.03751 -0.211825,0.264882 -0.423648,0.529773 -0.73579,0.845087 -0.06042,0.05122 -0.09432,0.116266 -0.230511,0.255768 -0.03486,0.08531 -0.06971,0.170629 -0.122457,0.256727 0,0 0.0062,0.0168 -0.101705,0.0562 m 26.926297,66.616008 c -0.253053,0.0608 -0.506106,0.12154 -0.759175,0.1823 0.0113,0.099 0.02257,0.19789 0.03383,0.29684 0.363514,0 0.727009,0 1.090504,0 -0.05742,-0.1571 -0.114869,-0.31418 -0.365159,-0.47914 m 14.358427,0.19592 c -0.227346,-0.0959 -0.454674,-0.19177 -0.682033,-0.28766 -0.04958,0.14742 -0.09916,0.29484 -0.148733,0.44227 0.264131,0.006 0.528281,0.0124 0.830766,-0.15461 m 17.247814,-6.69091 c 0.002,-0.19818 0.004,-0.39635 0.007,-0.59453 -0.21024,0.10498 -0.42047,0.20995 -0.63071,0.31492 0.15519,0.12132 0.3104,0.24265 0.62423,0.27961 m -38.44681,5.51835 c -0.145259,-0.0899 -0.290502,-0.17985 -0.435761,-0.26978 -0.03582,0.0728 -0.07164,0.14565 -0.107455,0.21846 0.142256,0.0544 0.284496,0.10888 0.543216,0.0513 m 26.474613,0.58301 c 0,0 -0.03078,0.0186 0,0 z"
       id="path817" />
    <path
       inkscape:connector-curvature="0"
       style="opacity:1;fill:#fea825;stroke:none;stroke-width:0.26458332"
       d="m 124.98557,119.85708 c 0.08,0.54992 0.22029,1.09889 0.22907,1.64995 0.0288,1.80681 0.0719,3.61733 -0.0132,5.42063 -0.0545,1.15437 -0.35647,2.29499 -0.48868,3.44851 -0.0877,0.76551 0.0371,1.56657 -0.12465,2.31006 -0.33207,1.52651 -0.66947,3.07257 -1.22895,4.52413 -0.86928,2.25534 -1.92761,4.43767 -2.90119,6.65299 -0.19121,0.43508 -0.26715,0.9579 -0.55724,1.30618 -1.45666,1.74893 -2.97565,3.44579 -4.45342,5.17742 -0.53314,0.62475 -1.00564,1.30089 -1.51801,1.94384 -0.60265,0.75625 -1.19352,1.52426 -1.83638,2.24537 -0.541,0.60684 -1.06824,1.50706 -1.74269,1.66161 -2.09307,0.4796 -3.29241,2.06557 -4.87789,3.21923 -1.99646,1.45271 -4.48592,2.22167 -6.742164,3.32748 -0.655725,0.32136 -1.218145,0.82915 -1.86426,1.17504 -1.023292,0.54785 -2.07699,1.04002 -3.128266,1.53351 -0.178155,0.0836 -0.43828,0.13354 -0.610476,0.0678 -2.441485,-0.93185 -4.784786,-0.66496 -7.088585,0.48203 -0.841679,0.41905 -1.600872,0.37895 -2.596144,0.0209 -1.251329,-0.45015 -2.750074,-0.33974 -4.129834,-0.26001 -0.888852,0.0514 -1.726946,0.33715 -2.450658,-0.42506 -0.109749,-0.11559 -0.306424,-0.18188 -0.472324,-0.20586 -1.943258,-0.28083 -3.888425,-0.54842 -5.832766,-0.82179 -0.301709,-0.0424 -0.662733,-0.005 -0.892968,-0.15958 -1.877148,-1.25647 -3.859633,-2.12818 -6.244564,-1.99374 0.307345,-0.1576 0.61469,-0.3152 1.149299,-0.58934 -0.388688,-0.30029 -0.604615,-0.54595 -0.875995,-0.66256 -0.975911,-0.41943 -2.01661,-0.70916 -2.947689,-1.20709 -1.535792,-0.82132 -3.068127,-1.6791 -4.479298,-2.69227 -0.853847,-0.61302 -1.44014,-1.58625 -2.21629,-2.32442 -0.497456,-0.47313 -1.121354,-0.81348 -1.69032,-1.21084 -0.03412,-0.0238 -0.100412,-0.0115 -0.123772,-0.0394 -1.070081,-1.27794 -2.138452,-2.55734 -3.199691,-3.84263 -0.04732,-0.0573 0.0038,-0.19312 -0.04169,-0.25509 -0.949037,-1.29248 -1.963881,-2.5413 -2.840572,-3.88068 -0.621771,-0.94992 -1.104641,-2.00038 -1.568024,-3.0422 -0.736479,-1.65585 -1.482784,-3.31495 -2.075924,-5.02437 -0.422632,-1.21803 -0.665027,-2.51046 -0.872855,-3.78839 -0.326943,-2.01039 -0.510839,-4.04408 -0.838628,-6.05431 -0.545323,-3.34421 -0.09424,-6.63558 0.552235,-9.93912 0.739497,1.19677 1.093684,1.29018 1.840296,0.26208 0.817036,-1.12508 1.506181,-2.34329 2.246818,-3.52358 0.899187,-1.43295 1.756021,-2.89434 2.703349,-4.29461 0.679722,-1.00472 1.477848,-1.92935 2.306172,-2.89829 0.195474,-0.17622 0.307919,-0.34386 0.456271,-0.59225 0.191566,-0.38302 0.347218,-0.68528 0.59491,-0.99332 1.644399,-1.34193 3.315856,-2.49189 4.74816,-4.02841 1.859462,-1.994764 4.104722,-3.691195 6.386623,-5.211872 1.904294,-1.269018 4.083652,-2.136069 6.173542,-3.111857 1.333416,-0.622605 2.682606,-1.310402 4.101092,-1.630262 2.593396,-0.584766 5.2407,-0.935837 7.871304,-1.347344 0.903724,-0.141367 1.836404,-0.305019 2.735395,-0.225978 1.911527,0.168093 3.80991,0.486873 5.713217,0.747144 2.446348,0.334558 4.98421,0.344932 7.039332,2.048706 0.221853,0.183936 0.578194,0.195345 0.850934,0.329832 2.052151,1.011849 4.277618,1.786367 6.110188,3.105561 3.78377,2.723742 7.11278,5.99808 10.16039,9.5396 1.20014,1.39463 2.44457,2.75655 3.55927,4.21701 0.56735,0.74333 0.82524,1.71529 1.34013,2.50783 1.05961,1.63094 2.15784,3.2405 3.31704,4.80181 0.86424,1.16404 1.73208,2.39493 3.38105,2.55026 m -52.746669,6.39962 c 0.08782,-0.0193 0.17562,-0.0386 0.391173,0.0652 1.142566,-0.21014 2.454696,-1.61208 2.58618,-2.7565 0,0 -0.0044,-0.002 0.193657,-2.6e-4 1.176642,-0.65588 1.157925,-1.76842 1.11765,-3.12158 0.0089,-0.13184 0.0024,-0.26684 0.02892,-0.39507 1.550405,-7.52105 -5.489959,-13.5425 -12.693897,-11.01445 -1.069813,0.37544 -1.989283,1.17933 -3.145253,1.84352 -2.353249,2.21513 -3.453262,4.95458 -3.182347,8.15763 0.256587,3.03403 1.402061,5.60456 4.429284,7.17625 0.728556,0.36926 1.457129,0.73852 2.192403,1.30436 0.275209,0.17182 0.553665,0.49624 0.825111,0.49049 1.662142,-0.0352 3.341754,-0.0251 4.975215,-0.28417 0.74553,-0.11826 1.398977,-0.81688 2.117974,-1.35084 0,0 0.02896,-0.0972 0.163928,-0.11448 m 20.815865,-15.3835 c -0.382629,0.53666 -0.765246,1.07333 -1.165981,1.58875 0,0 0.02729,0.006 -0.150329,0.0475 -0.425847,0.65641 -0.987488,1.26198 -1.255416,1.97752 -1.68701,4.50559 -0.518345,9.64709 4.395163,12.25533 2.581093,1.37012 5.252509,1.51558 8.104949,0.49131 6.66564,-2.39357 8.16185,-11.34748 2.97748,-16.2772 -0.6383,-0.60696 -1.56374,-0.91194 -2.56995,-1.41602 -0.34444,-0.10745 -0.68886,-0.21489 -1.0552,-0.50309 -1.84141,-0.805 -3.772056,-0.8355 -5.599269,-0.18935 -1.254445,0.44361 -2.344965,1.35076 -3.52112,2.02116 0,0 0.02471,0.0204 -0.160327,0.004 m -1.611868,28.11641 c -1.815795,-0.50731 -3.60309,-1.19303 -5.452718,-1.48871 -5.693855,-0.91023 -10.777088,0.92462 -15.524618,3.87135 -0.504216,0.31297 -0.658132,1.19039 -0.974553,1.80595 0.676735,-0.0354 1.423572,0.10195 2.016996,-0.13885 1.749393,-0.70989 3.416133,-1.62112 5.155385,-2.3589 2.85514,-1.21113 5.831281,-1.54319 8.918691,-1.16238 3.177421,0.39189 5.937089,1.85687 8.755827,3.19406 0.554943,0.26326 1.100902,0.56815 1.684716,0.73782 0.279104,0.0811 0.820947,-0.0141 0.916596,-0.19884 0.146405,-0.28278 0.144193,-0.80951 -0.036,-1.05786 -0.324544,-0.44742 -0.778537,-0.85575 -1.265524,-1.11995 -1.312386,-0.71194 -2.670606,-1.33933 -4.194802,-2.08369 z"
       id="path1017" />
    <path
       inkscape:connector-curvature="0"
       style="opacity:1;fill:#fdebc7;stroke:none;stroke-width:0.26458332"
       d="m 49.802837,99.175257 c 0.0074,-0.07886 0.04127,-0.143909 0.251907,-0.2178 0.351092,-0.301781 0.551961,-0.58089 0.752827,-0.860001 0,0 0.03824,0.07509 0.115782,0.05047 0.210862,-0.279892 0.34418,-0.535165 0.477496,-0.79044 0.738812,-0.750051 1.477624,-1.500095 2.356374,-2.34233 0.178599,-0.192188 0.217249,-0.29219 0.255902,-0.392191 2.820678,-2.80487 6.054913,-5.031542 9.584621,-6.842041 7.083807,-3.633523 14.615679,-5.261081 22.542101,-4.645147 9.864789,0.766564 18.540523,4.441574 25.851343,11.187092 0.22459,0.207221 0.40532,0.461997 0.54827,0.820364 -0.22107,0.474083 -0.38392,0.822405 -0.54644,1.170398 2.6e-4,-2.65e-4 0.001,-0.0011 -0.0836,0.0104 -0.20395,0.179559 -0.3233,0.34775 -0.44384,0.517038 -0.001,0.0011 -0.004,0.0038 -0.0991,-0.0054 -1.3081,-0.771203 -2.50892,-1.553536 -3.73725,-2.289932 -1.59603,-0.956855 -2.90869,-2.235105 -4.64792,-3.119869 -3.083762,-1.568744 -6.173431,-2.935722 -9.492687,-3.847029 -0.792636,-0.217614 -1.549971,-0.704996 -2.343301,-0.755034 -3.894836,-0.245647 -7.795149,-0.467846 -11.696041,-0.523925 -1.64347,-0.02363 -3.296536,0.358884 -4.938943,0.599705 -1.372621,0.201255 -2.466691,1.555575 -4.032554,0.988748 -2.918055,1.452319 -6.053537,2.59385 -8.694931,4.441664 -2.815331,1.969484 -5.753976,3.878249 -7.970242,6.670135 -1.878494,2.366378 -4.568479,4.037168 -6.020684,6.811188 -0.116885,0.22327 -0.620011,0.44637 -0.826646,0.36657 -0.229007,-0.0885 -0.351657,-0.51415 -0.468471,-0.81335 -0.110127,-0.28211 -0.152461,-0.59069 -0.224605,-0.88762 0.07536,-0.21812 0.150718,-0.43625 0.351899,-0.63569 0.77896,-0.82386 1.434039,-1.66496 2.072896,-2.51821 0.01445,-0.0193 -0.154998,-0.17628 -0.238664,-0.26903 0.260932,-0.39355 0.521859,-0.78709 0.891312,-1.272181 0.160118,-0.141666 0.193294,-0.201948 0.208039,-0.272383 0,0 -0.0062,-0.0168 0.06237,-0.05221 0.106606,-0.117589 0.144669,-0.199771 0.182732,-0.281953 z"
       id="path1019" />
    <path
       inkscape:connector-curvature="0"
       style="opacity:1;fill:#fcc777;stroke:none;stroke-width:0.26458332"
       d="m 50.363703,107.1592 c -0.745302,0.96036 -1.543428,1.88499 -2.223151,2.88971 -0.947327,1.40027 -1.804162,2.86166 -2.703348,4.29461 -0.740638,1.18029 -1.429782,2.3985 -2.246818,3.52358 -0.746612,1.0281 -1.100799,0.93469 -1.762199,-0.33061 0.225084,-1.25839 0.520721,-2.45662 0.909915,-3.62066 0.511016,1.04968 0.947052,0.49109 1.289304,0.009 0.925663,-1.30316 1.7481,-2.68372 2.726135,-3.94466 1.476242,-1.90326 3.092608,-3.69766 4.573548,-5.59747 3.801594,-4.876878 8.525933,-8.692802 13.874025,-11.673839 3.351702,-1.868257 6.96508,-3.140038 10.789992,-3.976235 4.907727,-1.072941 9.735259,-1.188874 14.58446,-0.136491 2.372206,0.514826 4.637961,1.502855 6.992922,2.120236 1.747969,0.458267 3.376862,1.068401 4.826902,2.160358 0.25211,0.189862 0.66218,0.170032 1.08771,0.253084 0.2064,0.01307 0.32435,0.02011 0.45134,0.117518 0.1549,0.302241 0.25929,0.567714 0.45306,0.717751 2.06253,1.597117 4.13069,3.187332 6.21672,4.753602 0.74151,0.556741 1.53594,1.043032 2.30966,1.564816 0.003,0.003 0.01,0.0102 0.009,0.10593 0.0888,0.33512 0.1217,0.62317 0.27773,0.80644 1.68536,1.97952 3.42781,3.91179 5.07048,5.92564 0.63502,0.77853 1.055,1.73229 1.57582,2.6045 0.0414,0.0693 0.10539,0.1251 0.15715,0.18728 0.30043,-0.11311 0.60257,-0.22633 0.90078,-0.33807 0.45648,0.962 0.48242,2.20035 1.93808,2.33261 -0.0567,-0.71739 -0.10079,-1.27596 -0.10402,-1.84028 0.0409,-0.006 0.12343,-0.004 0.12343,-0.004 0.20591,0.25463 0.52435,0.47975 0.60009,0.76853 0.65275,2.48873 1.26174,4.98893 1.78156,7.59185 -1.02944,-0.56465 -2.09504,-1.1096 -2.84871,-1.93828 -0.93282,-1.02566 -1.57282,-2.31163 -2.40028,-3.44046 -1.41556,-1.93112 -2.85295,-3.84751 -4.32856,-5.733 -1.56495,-1.99968 -2.95129,-4.22362 -4.83467,-5.87038 -3.00913,-2.631069 -5.89397,-5.450059 -9.59772,-7.253422 -2.785613,-1.356321 -5.420609,-2.975642 -8.513284,-3.615767 -4.162407,-0.861553 -8.299397,-2.010781 -12.601718,-1.12989 -3.121531,0.63914 -6.269723,1.225701 -9.312431,2.145371 -2.068833,0.625301 -4.08449,1.610069 -5.929694,2.748807 -2.77911,1.715116 -5.488813,3.580225 -8.034555,5.622719 -1.688835,1.354992 -3.047423,3.124082 -4.533476,4.726692 -0.22447,0.24207 -0.337916,0.58711 -0.502714,0.88451 -0.15566,0.30227 -0.311311,0.60453 -0.586909,0.99469 -0.231712,0.25649 -0.343485,0.42509 -0.455261,0.59369 m -7.538016,8.07529 c 0,0 -0.02695,0.0159 0,0 z"
       id="path1021" />
    <path
       inkscape:connector-curvature="0"
       style="opacity:1;fill:#fef3af;stroke:none;stroke-width:0.26458332"
       d="m 103.52541,93.157246 c -0.11796,-0.007 -0.23591,-0.01408 -0.45084,-0.119171 -0.51326,-0.45765 -0.87325,-0.950021 -1.35536,-1.154613 -2.518871,-1.068928 -5.023774,-2.204178 -7.621773,-3.043103 -2.176079,-0.702662 -4.452813,-1.209916 -6.723216,-1.470485 -2.130912,-0.244544 -4.31193,-0.05142 -6.470909,-0.05266 -2.556288,-0.0016 -5.099349,0.04134 -7.555466,0.925348 -3.642315,1.310934 -7.1687,2.761208 -10.552925,4.752812 -4.739309,2.789057 -8.466447,6.621211 -12.266007,10.418461 -1.351475,1.35066 -2.519532,2.93012 -3.540916,4.55038 -0.716269,1.13625 -1.341038,2.09471 -2.77971,1.95699 -0.09349,-0.32442 -0.179646,-0.62337 -0.265792,-0.92232 0.249499,-0.56388 0.499007,-1.12776 0.895413,-1.77975 0.23504,-0.2944 0.323173,-0.50068 0.411298,-0.70697 0.295,-0.6443 0.590007,-1.2886 0.954026,-1.98408 0.141166,0.24575 0.1835,0.55433 0.293627,0.83644 0.116814,0.2992 0.239464,0.7249 0.468471,0.81335 0.206635,0.0798 0.709761,-0.1433 0.826646,-0.36657 1.452205,-2.77402 4.14219,-4.4448 6.020684,-6.811186 2.216266,-2.791886 5.154911,-4.700651 7.970242,-6.670135 2.641394,-1.847814 5.776876,-2.989345 8.694931,-4.441664 1.565863,0.566827 2.659933,-0.787493 4.032554,-0.988748 1.642407,-0.240821 3.295473,-0.623337 4.938943,-0.599705 3.900892,0.05608 7.801205,0.278278 11.696041,0.523926 0.79333,0.05004 1.550665,0.537419 2.343301,0.755033 3.319256,0.911307 6.408925,2.278285 9.492687,3.847029 1.73923,0.884764 3.05189,2.163014 4.64792,3.119869 1.22833,0.736396 2.42915,1.518729 3.7462,2.382049 1.22215,1.383435 1.95169,3.213392 4.26576,2.990006 0.0953,0.521796 0.19765,1.082056 0.3437,1.881606 0.54154,-0.50355 0.96215,-0.89466 1.38276,-1.28577 1.03313,1.57266 2.1215,3.11258 3.07952,4.72973 0.61682,1.04119 1.0421,2.19584 1.58704,3.46405 0.12395,0.29569 0.21407,0.42697 0.30419,0.55825 0.0343,0.19893 0.0685,0.39786 0.1132,0.69734 0.0104,0.10057 -0.0721,0.0991 -0.19282,0.13927 -0.44342,-0.13077 -0.84786,-0.22986 -1.0733,-0.48632 -0.64741,-0.73657 -1.19752,-1.55785 -1.83153,-2.30722 -1.02458,-1.21095 -2.0372,-2.43841 -3.14449,-3.57127 -1.17403,-1.20109 -2.45265,-2.29995 -3.68558,-3.44345 0,0 -0.007,-0.007 -0.0442,-0.0905 -1.73368,-1.594512 -3.37444,-3.174606 -5.14544,-4.591969 -1.17304,-0.9388 -2.53276,-1.644338 -3.80891,-2.454293 z"
       id="path1023" />
    <path
       inkscape:connector-curvature="0"
       style="opacity:1;fill:#f8cf43;stroke:none;stroke-width:0.26458332"
       d="m 51.497911,105.56507 c 0.07276,-0.29165 0.186206,-0.63669 0.410676,-0.87876 1.486053,-1.60261 2.844641,-3.3717 4.533477,-4.726693 2.545741,-2.042493 5.255445,-3.907602 8.034554,-5.622719 1.845205,-1.138737 3.860861,-2.123506 5.929694,-2.748806 3.042708,-0.919671 6.190901,-1.506231 9.312431,-2.145372 4.302321,-0.88089 8.439311,0.268338 12.601718,1.12989 3.092675,0.640125 5.727671,2.259447 8.513289,3.615767 3.70375,1.803363 6.58858,4.622353 9.59772,7.253423 1.88338,1.64676 3.26971,3.8707 4.83467,5.87038 1.4756,1.88549 2.913,3.80188 4.32856,5.733 0.82745,1.12883 1.46745,2.4148 2.40027,3.44046 0.75367,0.82868 1.81927,1.37363 2.8431,2.04707 0.10826,0.36998 0.11995,0.73733 0.13955,1.21453 -1.64101,-0.0455 -2.50885,-1.27637 -3.37309,-2.44042 -1.1592,-1.56131 -2.25744,-3.17087 -3.31705,-4.80181 -0.51489,-0.79254 -0.77277,-1.7645 -1.34013,-2.50783 -1.11469,-1.46046 -2.35913,-2.82238 -3.55926,-4.21701 -3.04762,-3.54152 -6.37663,-6.815857 -10.1604,-9.5396 -1.83257,-1.319194 -4.058034,-2.093711 -6.110185,-3.10556 -0.27274,-0.134488 -0.629081,-0.145896 -0.850934,-0.329832 -2.055122,-1.703774 -4.592985,-1.714148 -7.039333,-2.048706 -1.903306,-0.260271 -3.801689,-0.579052 -5.713216,-0.747144 -0.898991,-0.07904 -1.831671,0.08461 -2.735395,0.225978 -2.630604,0.411506 -5.277908,0.762577 -7.871304,1.347343 -1.418487,0.31986 -2.767677,1.007658 -4.101092,1.630262 -2.089891,0.975789 -4.269248,1.842839 -6.173542,3.111858 -2.281902,1.520676 -4.527161,3.217108 -6.386624,5.211871 -1.432303,1.53652 -3.10376,2.68648 -4.748154,4.02843 z"
       id="path1025" />
    <path
       inkscape:connector-curvature="0"
       style="opacity:1;fill:#fdee91;stroke:none;stroke-width:0.26458332"
       d="m 43.875146,109.06161 c 0.153496,0.23623 0.239649,0.53518 0.333142,0.8596 1.438672,0.13772 2.063441,-0.82074 2.77971,-1.95699 1.021384,-1.62026 2.189441,-3.19972 3.540916,-4.55038 3.79956,-3.79725 7.526698,-7.629404 12.266007,-10.418461 3.384225,-1.991604 6.91061,-3.441878 10.552925,-4.752812 2.456117,-0.884007 4.999178,-0.926808 7.555466,-0.925348 2.158979,0.0013 4.339997,-0.191889 6.470909,0.05266 2.270403,0.26057 4.547137,0.767824 6.723216,1.470485 2.597999,0.838925 5.102902,1.974176 7.621773,3.043103 0.48211,0.204592 0.8421,0.696963 1.26694,1.148583 -0.32858,0.015 -0.73865,0.03482 -0.99076,-0.155038 -1.45004,-1.091957 -3.078933,-1.702091 -4.826902,-2.160358 -2.354961,-0.617381 -4.620716,-1.605409 -6.992922,-2.120236 -4.849201,-1.052383 -9.676733,-0.93645 -14.58446,0.136491 -3.824912,0.836197 -7.43829,2.107978 -10.789992,3.976235 -5.348092,2.981037 -10.072431,6.796961 -13.874025,11.673831 -1.48094,1.89982 -3.097306,3.69422 -4.573548,5.59748 -0.978035,1.26094 -1.800472,2.6415 -2.726135,3.94466 -0.342252,0.48181 -0.778288,1.0404 -1.208487,-0.0641 0.454472,-1.63827 0.921674,-3.18746 1.456227,-4.79936 z"
       id="path1027" />
    <path
       inkscape:connector-curvature="0"
       style="opacity:1;fill:#fdebc7;stroke:none;stroke-width:0.26458332"
       d="m 117.3425,100.42867 c -0.39541,0.47606 -0.81602,0.86717 -1.35756,1.37072 -0.14605,-0.79955 -0.24839,-1.35981 -0.3437,-1.881606 -2.31407,0.223386 -3.04361,-1.606571 -4.17069,-2.98073 -0.009,-0.09214 -0.006,-0.09487 0.0795,-0.106669 0.20506,-0.180433 0.3245,-0.349076 0.44394,-0.517719 0,0 -5.3e-4,5.3e-4 0.108,5.3e-4 0.57136,-0.103505 1.03409,-0.206762 1.49681,-0.310018 0.15659,0.132689 0.31319,0.265382 0.48805,0.55599 -0.2422,1.140598 0.50633,0.99164 1.04732,1.075444 0,0 0.0602,0.08669 0.0537,0.24488 -0.0861,1.099489 0.22881,1.614035 1.2723,1.340747 0.28571,0.374533 0.5714,0.749064 0.88228,1.208561 z"
       id="path1029" />
    <path
       inkscape:connector-curvature="0"
       style="opacity:1;fill:#fef3af;stroke:none;stroke-width:0.26458332"
       d="m 48.381508,101.09815 c 0.160544,0.0486 0.329986,0.20556 0.315542,0.22486 -0.638857,0.85325 -1.293936,1.69435 -1.9989,2.47264 0.500938,-0.92727 1.053706,-1.79029 1.683358,-2.6975 z"
       id="path1031" />
    <path
       inkscape:connector-curvature="0"
       style="opacity:1;fill:#fef3af;stroke:none;stroke-width:0.26458332"
       d="m 113.56237,95.931084 c -0.42629,0.175223 -0.88902,0.27848 -1.4607,0.38231 0.0539,-0.347752 0.21672,-0.696074 0.47813,-1.087321 0.3811,0.182393 0.66361,0.407726 0.98257,0.705011 z"
       id="path1033" />
    <path
       inkscape:connector-curvature="0"
       style="opacity:1;fill:#fef3af;stroke:none;stroke-width:0.26458332"
       d="m 116.43771,99.138382 c -1.02098,0.355018 -1.33594,-0.159528 -1.24331,-1.206645 0.41558,0.304416 0.81819,0.714668 1.24331,1.206645 z"
       id="path1035" />
    <path
       inkscape:connector-curvature="0"
       style="opacity:1;fill:#fea825;stroke:none;stroke-width:0.26458332"
       d="m 76.472575,166.16877 c 0.153866,0.16102 0.21131,0.3181 0.268735,0.4752 -0.363495,0 -0.72699,0 -1.090504,0 -0.01127,-0.0989 -0.02254,-0.19789 -0.03383,-0.29684 0.253069,-0.0608 0.506122,-0.12153 0.855599,-0.17836 z"
       id="path1037" />
    <path
       inkscape:connector-curvature="0"
       style="opacity:1;fill:#fea825;stroke:none;stroke-width:0.26458332"
       d="m 90.715409,166.44737 c -0.283316,0.0804 -0.547466,0.0742 -0.811613,0.068 0.04959,-0.14742 0.09917,-0.29485 0.148765,-0.44227 0.227343,0.0959 0.454671,0.19178 0.662848,0.37428 z"
       id="path1039" />
    <path
       inkscape:connector-curvature="0"
       style="opacity:1;fill:#fea825;stroke:none;stroke-width:0.26458332"
       d="m 107.90309,159.71203 c -0.23453,-0.0791 -0.38974,-0.20048 -0.54493,-0.3218 0.21024,-0.10497 0.42047,-0.20994 0.63071,-0.31492 -0.002,0.19818 -0.004,0.39635 -0.0858,0.63672 z"
       id="path1041" />
    <path
       inkscape:connector-curvature="0"
       style="opacity:1;fill:#fef3af;stroke:none;stroke-width:0.26458332"
       d="m 115.11602,97.552964 c -0.52284,-0.0024 -1.27137,0.146675 -0.9982,-0.922406 0.33516,0.2227 0.6576,0.531797 0.9982,0.922406 z"
       id="path1043" />
    <path
       inkscape:connector-curvature="0"
       style="opacity:1;fill:#fef3af;stroke:none;stroke-width:0.26458332"
       d="m 50.723936,98.116254 c -0.117231,0.260313 -0.3181,0.539422 -0.619035,0.815989 0.111768,-0.267428 0.323591,-0.532318 0.619035,-0.815989 z"
       id="path1045" />
    <path
       inkscape:connector-curvature="0"
       style="opacity:1;fill:#fea825;stroke:none;stroke-width:0.26458332"
       d="m 69.477347,165.2442 c -0.200488,0.002 -0.342728,-0.0529 -0.484984,-0.10733 0.03582,-0.0728 0.07164,-0.14563 0.107455,-0.21846 0.145259,0.0899 0.290502,0.17985 0.377529,0.32579 z"
       id="path1047" />
    <path
       inkscape:connector-curvature="0"
       style="opacity:1;fill:#fef3af;stroke:none;stroke-width:0.26458332"
       d="m 51.318378,97.381255 c -0.05084,0.23151 -0.184163,0.486783 -0.416811,0.730438 0.04523,-0.243308 0.18978,-0.474988 0.416811,-0.730438 z"
       id="path1049" />
    <path
       inkscape:connector-curvature="0"
       style="opacity:1;fill:#fdee91;stroke:none;stroke-width:0.26458332"
       d="m 45.171821,106.54937 c -0.01074,0.16909 -0.09887,0.37537 -0.279619,0.59547 0.0057,-0.17687 0.103952,-0.36758 0.279619,-0.59547 z"
       id="path1051" />
    <path
       inkscape:connector-curvature="0"
       style="opacity:1;fill:#fcc777;stroke:none;stroke-width:0.26458332"
       d="m 122.34042,109.18463 c -0.0921,-0.0503 -0.18221,-0.18154 -0.25451,-0.39799 0.0974,0.0489 0.17693,0.18295 0.25451,0.39799 z"
       id="path1053" />
    <path
       inkscape:connector-curvature="0"
       style="opacity:1;fill:#fef3af;stroke:none;stroke-width:0.26458332"
       d="m 53.943331,94.666789 c 0.03114,0.05618 -0.0075,0.156183 -0.117581,0.298106 -0.03168,-0.05681 0.008,-0.155554 0.117581,-0.298106 z"
       id="path1055" />
    <path
       inkscape:connector-curvature="0"
       style="opacity:1;fill:#fef3af;stroke:none;stroke-width:0.26458332"
       d="m 49.738427,99.205578 c 0.02635,0.05186 -0.01172,0.134044 -0.109384,0.251243 -0.02474,-0.05029 0.01011,-0.135609 0.109384,-0.251243 z"
       id="path1057" />
    <path
       inkscape:connector-curvature="0"
       style="opacity:1;fill:#fef3af;stroke:none;stroke-width:0.26458332"
       d="m 49.503792,99.529121 c 0.0392,0.05073 0.006,0.111014 -0.08795,0.190627 -0.06654,-0.05624 -0.04108,-0.123036 0.08795,-0.190627 z"
       id="path1059" />
    <path
       inkscape:connector-curvature="0"
       style="opacity:1;fill:#fea825;stroke:none;stroke-width:0.26458332"
       d="m 95.994801,165.78047 c -0.0154,0.009 0.0154,-0.009 0,0 z"
       id="path1061" />
    <path
       inkscape:connector-curvature="0"
       style="opacity:1;fill:#fafaf8;stroke:none;stroke-width:0.26458332"
       d="m 102.35738,109.21807 c 0.34444,0.10745 0.68886,0.21489 1.14885,0.41017 1.14697,1.07342 2.30441,1.95856 3.18551,3.06396 2.37802,2.98337 2.52738,7.24821 0.50596,10.3671 -2.10328,3.24517 -6.00003,4.8709 -9.728135,4.05862 -6.309352,-1.37464 -9.243912,-8.34587 -5.836997,-13.84702 0.146018,-0.2358 0.191283,-0.534 0.283509,-0.80313 0,0 -0.02729,-0.006 0.0723,0.0392 0.483529,-0.50912 0.867484,-1.06332 1.251424,-1.61752 0,0 -0.02471,-0.0204 0.07278,0.04 2.786311,-2.01288 5.813242,-2.37879 9.044799,-1.71145 m 0.0878,12.34796 c 0.88549,-1.15915 1.72423,-2.33332 1.29112,-3.99035 -1.16343,0.69063 -2.29956,0.89572 -3.29583,-0.13804 -1.149993,-1.19328 -0.560769,-2.38063 0.25693,-3.5123 -2.255596,-0.44149 -3.98251,0.16875 -5.002182,1.69803 -1.280671,1.92075 -1.037937,4.1299 0.649912,5.91429 1.379519,1.45841 3.84891,1.52218 6.10005,0.0284 z"
       id="path1215" />
    <path
       inkscape:connector-curvature="0"
       style="opacity:1;fill:#080808;stroke:none;stroke-width:0.26458332"
       d="m 91.534995,139.03131 c 1.4321,0.70265 2.79032,1.33005 4.102706,2.04199 0.486987,0.2642 0.94098,0.67252 1.265523,1.11995 0.180189,0.24835 0.182401,0.77508 0.036,1.05786 -0.09565,0.18476 -0.637493,0.27996 -0.916596,0.19884 -0.583814,-0.16967 -1.129774,-0.47456 -1.684716,-0.73782 -2.818739,-1.3372 -5.578406,-2.80217 -8.755827,-3.19406 -3.08741,-0.38081 -6.063552,-0.0487 -8.918692,1.16238 -1.739251,0.73778 -3.405992,1.64901 -5.155385,2.3589 -0.593423,0.2408 -1.34026,0.1034 -2.016995,0.13883 0.31642,-0.61554 0.470336,-1.49296 0.974553,-1.80593 4.74753,-2.94673 9.830763,-4.78159 15.524617,-3.87135 1.849628,0.29568 3.636923,0.9814 5.544815,1.53041 z"
       id="path1217" />
    <path
       inkscape:connector-curvature="0"
       style="opacity:1;fill:#7a6038;stroke:none;stroke-width:0.26458332"
       d="m 91.827259,112.48862 c -0.0034,0.24828 -0.04867,0.54648 -0.194691,0.78228 -3.406915,5.50115 -0.472355,12.47238 5.836997,13.84702 3.728105,0.81228 7.624855,-0.81345 9.728135,-4.05862 2.02142,-3.11889 1.87206,-7.38373 -0.50596,-10.3671 -0.8811,-1.1054 -2.03854,-1.99054 -3.07859,-3.03439 0.78374,0.38668 1.70918,0.69166 2.34748,1.29862 5.18438,4.92972 3.68817,13.88363 -2.97748,16.2772 -2.85244,1.02427 -5.523854,0.87881 -8.104946,-0.49132 -4.913508,-2.60823 -6.082173,-7.74973 -4.395163,-12.25532 0.267928,-0.71554 0.829569,-1.32111 1.344218,-1.99837 z"
       id="path1219" />
    <path
       inkscape:connector-curvature="0"
       style="opacity:1;fill:#7a6038;stroke:none;stroke-width:0.26458332"
       d="m 60.884283,110.81896 c 0.989023,-0.60568 1.908492,-1.40957 2.978306,-1.78501 7.203938,-2.52805 14.244302,3.4934 12.693896,11.01444 -0.02643,0.12823 -0.02,0.26324 -0.106939,0.56614 -0.464569,1.09693 -0.851159,2.02279 -1.237747,2.94865 0,0 0.0044,0.002 -0.07212,0.0363 -0.220512,0.0914 -0.364432,0.14862 -0.515779,0.10736 3.591092,-5.5459 1.062807,-11.59187 -3.269906,-13.77808 -3.590753,-1.81183 -7.04576,-1.25904 -10.298872,1.06004 -0.09502,-0.0943 -0.132938,-0.13207 -0.170839,-0.16989 z"
       id="path1221" />
    <path
       inkscape:connector-curvature="0"
       style="opacity:1;fill:#7a6038;stroke:none;stroke-width:0.26458332"
       d="m 61.871075,126.06287 c -2.934025,-1.42322 -4.079499,-3.99375 -4.336087,-7.02778 -0.270914,-3.20305 0.829099,-5.9425 3.265821,-8.18687 0.121375,0.009 0.159293,0.0464 0.199099,0.20994 -0.886865,1.56509 -2.137142,2.89876 -2.594657,4.46412 -1.230061,4.20841 0.08391,7.72758 3.595727,10.40327 -0.04397,0.0451 -0.129903,0.13732 -0.129903,0.13732 z"
       id="path1223" />
    <path
       inkscape:connector-curvature="0"
       style="opacity:1;fill:#7a6038;stroke:none;stroke-width:0.26458332"
       d="m 102.34643,109.12769 c -3.220603,-0.57696 -6.247534,-0.21106 -9.027662,1.81661 1.072481,-0.74557 2.163001,-1.65272 3.417446,-2.09633 1.827212,-0.64615 3.757856,-0.61565 5.610216,0.27972 z"
       id="path1225" />
    <path
       inkscape:connector-curvature="0"
       style="opacity:1;fill:#7a6038;stroke:none;stroke-width:0.26458332"
       d="m 64.149958,127.31912 c -0.728557,-0.36926 -1.457129,-0.73852 -2.232276,-1.18202 -0.04661,-0.0742 0.03932,-0.16641 0.17449,-0.18564 3.12379,1.70572 6.190271,1.74328 9.359908,0.45212 0.03966,0.0476 0.118356,0.14335 0.05904,0.2172 -2.408558,1.27251 -4.846846,1.42985 -7.361164,0.69834 z"
       id="path1227" />
    <path
       inkscape:connector-curvature="0"
       style="opacity:1;fill:#fc9d73;stroke:none;stroke-width:0.26458332"
       d="m 64.153318,127.41742 c 2.510958,0.63321 4.949246,0.47587 7.437629,-0.80993 0.246189,-0.10402 0.353208,-0.12088 0.460243,-0.13774 -0.695212,0.43539 -1.348658,1.13401 -2.094188,1.25227 -1.633461,0.25911 -3.313073,0.24898 -4.975215,0.28417 -0.271447,0.006 -0.549902,-0.31866 -0.828469,-0.58877 z"
       id="path1229" />
    <path
       inkscape:connector-curvature="0"
       style="opacity:1;fill:#fc9d73;stroke:none;stroke-width:0.26458332"
       d="m 74.631329,123.80537 c 0.143918,-0.0572 0.287838,-0.11445 0.50722,-0.20797 -0.05378,1.11242 -1.365906,2.51435 -2.523183,2.58922 0.05565,-0.27667 0.12601,-0.41805 0.20375,-0.54939 0.0074,0.01 -0.0048,0.0322 0.08779,0.0265 0.130985,-0.118 0.169402,-0.23039 0.221287,-0.42271 0.444823,-0.39285 0.876192,-0.70579 1.38556,-1.06179 0.104433,-0.15078 0.130871,-0.25851 0.146195,-0.36196 -0.01111,0.004 -0.02862,-0.0119 -0.02862,-0.0119 z"
       id="path1231" />
    <path
       inkscape:connector-curvature="0"
       style="opacity:1;fill:#fc9d73;stroke:none;stroke-width:0.26458332"
       d="m 75.310856,123.5641 c 0.287531,-0.92678 0.674121,-1.85264 1.132652,-2.83569 0.124331,1.06821 0.143047,2.18076 -1.132652,2.83569 z"
       id="path1233" />
    <path
       inkscape:connector-curvature="0"
       style="opacity:1;fill:#7a6038;stroke:none;stroke-width:0.26458332"
       d="m 93.147284,110.88135 c -0.291423,0.56235 -0.675378,1.11655 -1.149848,1.63629 0.292085,-0.57111 0.674701,-1.10778 1.149848,-1.63629 z"
       id="path1235" />
    <path
       inkscape:connector-curvature="0"
       style="opacity:1;fill:#f8cf43;stroke:none;stroke-width:0.26458332"
       d="m 50.446724,107.15062 c 0.02876,-0.16002 0.140528,-0.32862 0.336333,-0.50436 -0.02841,0.1605 -0.140859,0.32814 -0.336333,0.50436 z"
       id="path1237" />
    <path
       inkscape:connector-curvature="0"
       style="opacity:1;fill:#7a6038;stroke:none;stroke-width:0.26458332"
       d="m 72.811737,125.62719 c -0.07036,0.14138 -0.140721,0.28276 -0.260239,0.4979 -0.136975,0.0931 -0.224777,0.11233 -0.43166,0.0834 -0.15277,-0.0865 -0.186457,-0.12489 -0.153058,-0.21862 0.326384,-0.15783 0.585671,-0.26026 0.844957,-0.36268 z"
       id="path1239" />
    <path
       inkscape:connector-curvature="0"
       style="opacity:1;fill:#7a6038;stroke:none;stroke-width:0.26458332"
       d="m 72.06309,126.42047 c -0.118935,0.0662 -0.225954,0.083 -0.412829,0.11317 -0.07982,0.0133 -0.158517,-0.0825 -0.152413,-0.1877 0.138007,-0.17039 0.269912,-0.23553 0.401833,-0.30068 0.0337,0.0383 0.06739,0.0767 0.15267,0.17186 0.05158,0.0569 0.02262,0.15406 0.01074,0.20335 z"
       id="path1241" />
    <path
       inkscape:connector-curvature="0"
       style="opacity:1;fill:#fef3af;stroke:none;stroke-width:0.26458332"
       d="m 111.90943,96.324036 c -0.0349,0.157273 -0.15432,0.325916 -0.35821,0.505248 0.0349,-0.157499 0.15427,-0.325689 0.35821,-0.505248 z"
       id="path1243" />
    <path
       inkscape:connector-curvature="0"
       style="opacity:1;fill:#fdee91;stroke:none;stroke-width:0.26458332"
       d="m 112.52262,100.38971 c 1.23424,1.04779 2.51286,2.14665 3.68689,3.34774 1.10729,1.13286 2.11991,2.36032 3.14449,3.57127 0.63401,0.74937 1.18412,1.57065 1.83153,2.30722 0.22544,0.25646 0.62988,0.35555 1.03241,0.49207 0.12393,0.52414 0.16805,1.08271 0.22471,1.80009 -1.45566,-0.13226 -1.48159,-1.3706 -1.93807,-2.33261 -0.29821,0.11175 -0.60035,0.22497 -0.90079,0.33807 -0.0518,-0.0622 -0.11575,-0.11797 -0.15714,-0.18728 -0.52082,-0.87221 -0.9408,-1.82597 -1.57583,-2.60449 -1.64266,-2.01385 -3.38511,-3.94612 -5.07047,-5.92565 -0.15603,-0.18326 -0.18896,-0.47132 -0.27773,-0.80643 z"
       id="path1245" />
    <path
       inkscape:connector-curvature="0"
       style="opacity:1;fill:#fdee91;stroke:none;stroke-width:0.26458332"
       d="m 103.53444,93.247609 c 1.26712,0.719592 2.62684,1.42513 3.79988,2.36393 1.771,1.417363 3.41176,2.997457 5.142,4.588651 -0.73616,-0.438196 -1.53059,-0.924487 -2.2721,-1.481228 -2.08603,-1.56627 -4.15419,-3.156485 -6.21672,-4.753602 -0.19377,-0.150037 -0.29816,-0.41551 -0.45306,-0.717751 z"
       id="path1247" />
    <path
       inkscape:connector-curvature="0"
       style="opacity:1;fill:#fdee91;stroke:none;stroke-width:0.26458332"
       d="m 42.812209,115.24245 c -0.01347,0.008 0.01347,-0.008 0,0 z"
       id="path1249" />
    <path
       inkscape:connector-curvature="0"
       style="opacity:1;fill:#080808;stroke:none;stroke-width:0.26458332"
       d="m 102.37044,121.62867 c -2.17635,1.43117 -4.645737,1.3674 -6.025256,-0.091 -1.687849,-1.78438 -1.930583,-3.99354 -0.649912,-5.91428 1.019672,-1.52929 2.746586,-2.13953 5.002178,-1.69804 -0.817695,1.13167 -1.406919,2.31903 -0.25692,3.5123 0.99627,1.03376 2.13239,0.82867 3.29582,0.13804 0.43311,1.65704 -0.40563,2.8312 -1.36591,4.053 z"
       id="path1453" />
    <path
       inkscape:connector-curvature="0"
       style="opacity:1;fill:#fafaf8;stroke:none;stroke-width:0.26458332"
       d="m 71.96678,125.98986 c -0.19902,0.12055 -0.330925,0.18569 -0.508612,0.30847 -3.175725,1.39641 -6.242206,1.35885 -9.322025,-0.39199 -3.646982,-2.65648 -4.960953,-6.17565 -3.730892,-10.38406 0.457515,-1.56536 1.707792,-2.89903 2.65176,-4.40766 3.251223,-2.44485 6.70623,-2.99764 10.296983,-1.18581 4.332713,2.18622 6.860998,8.23218 3.269906,13.77806 0.0074,0.0985 0.02492,0.11466 -0.0706,0.11482 -0.102883,0.13365 -0.110215,0.26715 -0.117547,0.40064 -0.431368,0.31292 -0.862737,0.62585 -1.401238,1.03753 -0.144841,0.20233 -0.182515,0.30593 -0.220192,0.40952 0,0 0.0122,-0.0221 0.0048,-0.0322 -0.266665,0.0924 -0.525952,0.19481 -0.852336,0.35263 m -8.571304,-10.37393 c -1.221357,2.17398 -0.942401,4.35657 0.769752,6.02272 1.287826,1.25322 3.773964,1.41426 5.413286,0.35063 1.58682,-1.02957 2.370963,-3.17842 1.768319,-4.84586 -1.310807,1.16087 -2.442422,1.33641 -3.362556,0.41368 -0.345246,-0.34621 -0.723984,-0.93558 -0.662635,-1.35141 0.116951,-0.7928 0.539131,-1.54058 0.861737,-2.37749 -1.783226,-0.34153 -3.411485,0.0626 -4.787903,1.78773 z"
       id="path1455" />
    <path
       inkscape:connector-curvature="0"
       style="opacity:1;fill:#7a6038;stroke:none;stroke-width:0.26458332"
       d="m 74.513749,124.17925 c -0.07067,-0.0904 -0.06334,-0.22391 0.05066,-0.3618 0.08021,0.10328 0.05377,0.21101 -0.05066,0.3618 z"
       id="path1457" />
    <path
       inkscape:connector-curvature="0"
       style="opacity:1;fill:#7a6038;stroke:none;stroke-width:0.26458332"
       d="m 72.906902,125.66375 c -0.05491,-0.098 -0.01722,-0.20156 0.114139,-0.32397 0.05526,0.0936 0.01685,0.20597 -0.114139,0.32397 z"
       id="path1459" />
    <path
       inkscape:connector-curvature="0"
       style="opacity:1;fill:#080808;stroke:none;stroke-width:0.26458332"
       d="m 63.454022,115.53808 c 1.317879,-1.64731 2.946138,-2.05141 4.729364,-1.70988 -0.322606,0.83691 -0.744786,1.58469 -0.861737,2.37749 -0.06135,0.41583 0.317389,1.0052 0.662635,1.35141 0.920134,0.92273 2.051749,0.74719 3.362556,-0.41368 0.602644,1.66744 -0.181499,3.81629 -1.768319,4.84586 -1.639322,1.06363 -4.12546,0.90259 -5.413286,-0.35063 -1.712153,-1.66615 -1.991109,-3.84874 -0.711213,-6.10057 z"
       id="path1547" />
  </g>
</svg>
